<?xml version="1.0" encoding="UTF-8"?>
<svg version="1.1" viewBox="0 0 736.59 800" xmlns="http://www.w3.org/2000/svg">
 <g transform="translate(-1446.7 -248.1)">
  <g transform="matrix(1.1631 0 0 1.1631 -235.92 -170.92)">
   <path transform="translate(1080)" d="m734.25 695.65c0 22.316-18.09 40.406-40.406 40.406s-40.406-18.09-40.406-40.406 18.09-40.406 40.406-40.406 40.406 18.09 40.406 40.406z" color="#000000" fill="#bfb8b1"/>
   <path d="m1803.6 712.32c2.3571-3.7431 3.0656-8.3681 8.0812-9.3439 0.7577 0 9.4702 4.9245 9.849 5.6821 0.3788 0.75761-3.283 6.9448-3.9143 7.0711-0.6314 0.12627-7.7024 0.88388-8.8388 0.25253-1.1365-0.63134-4.5457-2.3991-4.5457-2.3991" fill="#92624b"/>
   <path transform="matrix(.39687 0 0 .39687 1498.5 419.57)" d="m734.25 695.65c0 22.316-18.09 40.406-40.406 40.406s-40.406-18.09-40.406-40.406 18.09-40.406 40.406-40.406 40.406 18.09 40.406 40.406z" color="#000000" fill="#1d1c17"/>
   <path d="m1773.6 690.59c-6.7967 0-12.603 4.2492-14.938 10.219 2.1507 6.3207 8.1393 10.875 15.188 10.875 6.7937 0 12.601-4.2219 14.937-10.188-2.1446-6.3314-8.1316-10.906-15.187-10.906z" color="#000000" fill="#3c3f36"/>
   <path transform="matrix(.35312 0 0 .35312 1528.8 450)" d="m734.25 695.65c0 22.316-18.09 40.406-40.406 40.406s-40.406-18.09-40.406-40.406 18.09-40.406 40.406-40.406 40.406 18.09 40.406 40.406z" color="#000000" fill="#0f160f"/>
   <path d="m1773.6 690.59c-5.8471 0-10.948 3.1373-13.75 7.8125 1.2815 6.5645 7.0603 11.5 14 11.5 6.7266 0 12.337-4.6421 13.844-10.906-2.7156-4.9989-8.0049-8.4062-14.094-8.4062z" color="#000000" fill="#607161"/>
   <path transform="matrix(.13437 0 0 .13437 1680.6 602.17)" d="m734.25 695.65c0 22.316-18.09 40.406-40.406 40.406s-40.406-18.09-40.406-40.406 18.09-40.406 40.406-40.406 40.406 18.09 40.406 40.406z" color="#000000"/>
   <path transform="matrix(.071482 .007033 -.0044709 .043593 1728.1 656.22)" d="m734.25 695.65c0 22.316-18.09 40.406-40.406 40.406s-40.406-18.09-40.406-40.406 18.09-40.406 40.406-40.406 40.406 18.09 40.406 40.406z" color="#000000" fill="#b6beb3"/>
   <path transform="translate(1080)" d="m878.2 700.58c0 18.759-15.207 33.966-33.966 33.966s-33.966-15.207-33.966-33.966 15.207-33.966 33.966-33.966 33.966 15.207 33.966 33.966z" color="#000000" fill="#bfb8b1"/>
   <path d="m1893.4 706.51c7.7334 1.1798 6.7858 6.6877 4.672 12.501l-11.112 0.37881-0.3788-13.637" fill="#7b5646"/>
   <path transform="matrix(.46468 0 0 .46468 1531.9 375.03)" d="m878.2 700.58c0 18.759-15.207 33.966-33.966 33.966s-33.966-15.207-33.966-33.966 15.207-33.966 33.966-33.966 33.966 15.207 33.966 33.966z" color="#000000" fill="#1a1c0f"/>
   <path d="m1924.8 693.12c-7.2946 0-13.519 4.1403-16.062 9.9688 1.211 7.514 7.7069 13.281 15.562 13.281 8.413 0 15.249-6.6107 15.719-14.906-2.9145-4.9651-8.614-8.3438-15.219-8.3438z" color="#000000" fill="#29332a"/>
   <path transform="matrix(.42007 0 0 .42007 1569.6 406.28)" d="m878.2 700.58c0 18.759-15.207 33.966-33.966 33.966s-33.966-15.207-33.966-33.966 15.207-33.966 33.966-33.966 33.966 15.207 33.966 33.966z" color="#000000" fill="#0f1910"/>
   <path d="m1924.8 693.12c-6.2648 0-11.746 3.0438-14.781 7.5938 0.084 7.808 6.4533 14.125 14.281 14.125 7.8802 0 14.25-6.401 14.25-14.281 0-0.42839-0.025-0.83121-0.062-1.25-3.1628-3.7475-8.1027-6.1875-13.688-6.1875z" color="#000000" fill="#57685c"/>
   <path transform="matrix(.14498 0 0 .14498 1801.8 599.01)" d="m878.2 700.58c0 18.759-15.207 33.966-33.966 33.966s-33.966-15.207-33.966-33.966 15.207-33.966 33.966-33.966 33.966 15.207 33.966 33.966z" color="#000000"/>
   <path transform="matrix(.085502 0 0 .072491 1850.9 645.69)" d="m878.2 700.58c0 18.759-15.207 33.966-33.966 33.966s-33.966-15.207-33.966-33.966 15.207-33.966 33.966-33.966 33.966 15.207 33.966 33.966z" color="#000000" fill="#b6beb3"/>
   <path d="m2046.7 716.5-61.151-59.783c-1.1286 4.5674-142.01 299.22-142.01 299.22 12.224 28.167 49.799 31.378 80.989 40.652 26.179 7.7849 69.21 4.9999 102.61 4.3476-16.491-16.491-22.917-22.784-31.438-45.719 32.265 13.828 47.877 21.328 84.281 21.438-69.66-100.95-32.409-160.49-32.411-254.9 0.6529-4.9363 3.1876-3.3085-0.8702-5.2609z" fill="#442415"/>
   <path d="m1649.3 646.65-27.857 105.71c1.5348 46.958 5.5485 86.708 17.143 131.43 9.8957 62.62 56.228 99.959 107.14 110.71-38.552-76.644-54.82-167.74-60.714-257.14 0-5-35.714-90.714-35.714-90.714z" fill="#22120a"/>
   <path d="m1668.7 1010.8c13.768-61.571 7.0588-139.31 9.2139-201.81l223.82 53.942c-23.726 40.079-23.948 101.42 0.5051 153.04-74.005 47.521-115.13 39.316-233.54-5.1735z" fill="#e3ab8d"/>
   <path d="m1685.1 819.03c-0.3367 9.6476-4.5372 7.9313-7.5938 14.969-0.049 9.136-0.01 18.518 0.062 28 28.057 33.462 75.618 74.001 106.5 102.47 50.07 46.156 77.772 58.373 105.72 16.75-0.013-0.0514-0.018-0.10482-0.031-0.15625-0.4246-1.6842-0.8409-3.3736-1.2188-5.0625-0.011-0.0516-0.02-0.10461-0.031-0.15625-0.3736-1.6762-0.7037-3.3523-1.0312-5.0312-0.3338-1.7107-0.6515-3.4133-0.9376-5.125-0.2496-1.4935-0.4741-3.0071-0.6874-4.5v-0.0625c-0.1553-1.0887-0.3015-2.1622-0.4376-3.25-0.038-0.30272-0.089-0.60362-0.125-0.90625-0.095-0.79357-0.1961-1.5822-0.2812-2.375-0.1405-1.308-0.2624-2.601-0.375-3.9062-0.015-0.17629-0.016-0.35502-0.031-0.53125-0.248-2.9738-0.4277-5.9548-0.5313-8.9062-0.01-0.25147-0.024-0.49873-0.031-0.75-0.015-0.49132-0.02-0.97824-0.031-1.4688-0.02-0.85662-0.024-1.7085-0.031-2.5625-0.01-0.66834-0.033-1.3334-0.031-2 0-1.0126 0.012-2.0231 0.031-3.0312 0.013-0.65746 0.042-1.3133 0.062-1.9688 0.044-1.4354 0.1082-2.8565 0.1876-4.2812 0.085-1.524 0.1876-3.0522 0.3124-4.5625 0.045-0.54327 0.1062-1.0836 0.1563-1.625 0.053-0.57382 0.097-1.1471 0.1563-1.7188 0.095-0.91931 0.2027-1.8367 0.3124-2.75 0.1359-1.1306 0.2474-2.2541 0.4063-3.375 0.031-0.21825 0.062-0.43839 0.094-0.65625 0.01-0.0524 0.024-0.10385 0.031-0.15625 0.2237-1.5217 0.4837-3.0293 0.75-4.5312 0.2791-1.5743 0.5805-3.1368 0.9063-4.6875 0.2468-1.1748 0.5077-2.3397 0.7812-3.5 0.1508-0.63958 0.3098-1.2713 0.4688-1.9062 0.2973-1.1885 0.6117-2.3595 0.9374-3.5312 0.1563-0.56208 0.306-1.1294 0.4688-1.6875 0.2781-0.95322 0.5779-1.9027 0.875-2.8438 0.046-0.14492 0.079-0.29288 0.125-0.4375 0.3801-1.1896 0.8082-2.3621 1.2188-3.5312 0.095-0.27124 0.1843-0.5424 0.2812-0.8125 0.4764-1.3281 0.9527-2.6378 1.4688-3.9375 0.5577-1.4045 1.146-2.7867 1.75-4.1562 0.5956-1.3507 1.2032-2.6852 1.8437-4 0.024-0.0503 0.038-0.10602 0.062-0.15625 0.4792-0.97996 0.9958-1.9472 1.5-2.9062 0.2697-0.5131 0.5357-1.0243 0.8125-1.5312 0.5939-1.0878 1.1858-2.1601 1.8125-3.2188l-216.66-43.938z" fill="#bf612e"/>
   <path d="m1790.5 449.22c-19.985 0.0274-40.143 2.1619-59.062 8.1562-25.688 8.1389-51.097 20.169-71.438 37.844-63.2 55.523-23.704 125.25 0 180.72 6.3533 26.879-1.8047 55.339 0.7188 82.844 2.2568 24.6 4.2542 49.992 13.562 72.875 8.2392 20.254 23.001 37.535 37.875 53.562 16.092 17.34 35.181 31.761 54.281 45.719 11.97 8.7471 24.27 18.186 38.562 22.125 16.781 4.6248 34.891 5.0926 52.156 2.875 9.5052-1.2208 18.204-6.8885 25.688-12.875 9.48-7.5841 16.261-18.038 24.312-27.125 8.6155-9.7231 17.73-19.013 25.688-29.281 6.8362-8.8211 13.321-18.039 18.594-27.875 7.1502-13.338 13.033-27.319 18.562-41.406 4.4843-11.424 8.8908-22.994 11.438-35 2.4826-11.704 3.5625-23.755 3.5625-35.719 0-12.912-2.6534-25.714-3.5625-38.594-0.52-7.3665-0.8905-14.742-0.7187-22.125 0.3048-13.111 2.2849-26.168 2.125-39.281-0.317-25.978 3.8904-52.987-3.5626-77.875-6.3654-21.256-21.309-39.486-36.437-55.719-17.898-19.205-37.545-38.335-61.406-49.281-23.77-10.905-51.029-13.162-77.156-14.281-4.5756-0.1961-9.1692-0.28757-13.781-0.28125zm-17.844 237.03c13.267 0.0136 26.712 6.6866 38.406 17.781 5.2037 4.9369-2.0676 7.3607-8.8125 7.8125-22.076 3.2486-47.87 6.2248-59.344-12.469 9.2072-9.1203 19.432-13.136 29.75-13.125zm156.41 5.2812c13.536-0.20301 25.643 5.9413 28.625 17.5-11.893 12.878-27.152 8.5923-40.375 6.625-3.6236-0.53908-6.6821-1.9163-9.75-2.5-4.1768-0.79468-7.1515 0.79831-10.812-0.28125-2.1284-0.62757-1.8655-3.1414-0.7812-4.6562 4.4809-6.2602 10.483-10.94 17-13.5 5.2751-2.0724 10.797-3.1081 16.094-3.1875z" fill="#e3ab8d"/>
   <path d="m1780 859.15c9.7485-2.4824 18.54 2.8093 32.143-2.5 6.6724-2.6043 13.311-5.2951 20-7.8572 9.6003-3.6773 13.641 0.42769 21.786 4.2857 12.647-3.7244 16.353-3.2375 27.5 1.0714 14.459 5.5893 16.053 6.0277 29.821 2.6786-12.152 25.048-35.2 40.163-58.393 39.821-28.63-0.4213-45.977-12.732-67.451-33.252-2.0001-1.9112-3.2522-3.2143-5.4059-4.2483z" fill="#cc6f6a"/>
   <path d="m1910.8 857.78-2.375 2.625c-10.333 11.421-26.934 7.1218-42.344 7.8438-12.386 0.58027-24.638-0.60074-36.969-1.4375-15.036-1.0203-37.408-4.7901-42.312-6.9375-1.4353-0.62847-4.1072-0.39105-6.4375-0.53125 0.082 0.0422 0.1708 0.0818 0.25 0.125 1.7799 0.40325 3.8047 0.7251 5.125 1.2812 0.5256 0.22141 4.547 2.5302 19.992 5.5001 5.0368 0.96853 10.632 0.53696 15.218 1.1463 29.074 3.8631 50.37 1.3701 69.337 2.4006 9.5426 0.51849 15.98-3.2336 20.516-12.016z" fill="#51241f"/>
   <path d="m1835.9 872.36c-8.1964-0.94419-24.324-4.674-18.75-1.7857 8.5591 6.591 24.24 12.643 32.321 3.2143-4.5626-0.213-9.0158-1.6162-13.571-1.4286z" fill="#f8b2a6"/>
   <path d="m1879.8 874.86c-7.3371-5.8123-19.638-2.2258-28.125-0.35714 9.2601 3.6305 18.756 4.5892 28.125 0.35714z" fill="#f8b2a6"/>
   <path d="m1811.2 795.76c2.4893 13.905 7.1292 18.81 18.214 19.821 9.6679-3.5712 17.553 0.1497 25.179 5.3571 10.201 6.8609 29.072 9.1656 32.143 1.6071 12.258 0.22662 11.939-7.3635 11.795-12.848-1.8538 3.1314-6.8129 6.0549-12.33 7.6696 20.633-8.5784 16.234-25.208 8.2143-37.5 4.4185 10.116 1.3501 14.697-5.5357 21.786-9.1385 12.323-19.226 16.62-32.5 11.964-8.8131-7.0856-23.086-14.679-28.036-0.53571-13.126-0.19801-14.843-7.4641-17.143-17.321z" fill="#bf612e"/>
   <path d="m1954.8 626.06c11.568 25.542 23.838 51.601-4.0312 68.719 1.3805 6.3958 5.3207 12.792 1 19.188 16.828 6.5653 25.825 14.772 33 25.938-0.656-10.626-2.562-21.211-3.3125-31.844-0.52-7.3665-0.8904-14.742-0.7188-22.125 0.305-13.111 2.285-26.168 2.125-39.281-0.049-4.0408 0.017-8.1093 0.125-12.188l-10.5-7.875z" fill="#bf612e" opacity=".88327"/>
   <path d="m1900 672.29c18.24-12.031 68.831-31.557 77.782 7.8287-14.677-14.809-20.522-17.051-37.881-11.869-18.583 5.5468-20.942 6.1014-39.901 4.0406z" fill="#442415"/>
   <path d="m1708.1 665.22c10.495 3.575 20.224 2.4514 30.305-1.2627 34.633-12.76 58.822 0.2764 74.751 11.364 2.2848 1.5904 19.428 5.9725 19.193 4.7982-31.595-49.698-92.157-34.09-109.1-22.223-5.2986 3.7117-9.1084 6.0285-15.152 7.3236z" fill="#442415"/>
   <path d="m1889.9 687.19c-13.84 19.22-12.059 28.98-9.3439 51.518-1.8678-18.286 2.8097-34.756 9.3439-51.518z" fill="#bf612e"/>
   <path d="m1776.4 676.09c-11.412 0.0125-23.47 3.3842-36.094 8.7812-6.5102 2.7834-11.918 6.0564-17.844 8.75 7.0942 4.6544 10.261 12.601 16.594 16.062 22.615 12.36 41.841 10.333 60.75 4.7812 3.2791-0.96276 6.3482-1.4357 9.4374-2.0938 4.8674-1.0367 6.5787-3.4828 4.6563-6.25-18.423-26.517-46.026-25.866-69.469-17.688 25.926-15.586 48.975-11.602 72.844 6.9688-12.574-13.806-26.202-19.329-40.875-19.312zm-3.6563 11.125c12.931 0.0125 26.039 6.1477 37.438 16.375 5.0721 4.5509-2.0194 6.8023-8.5938 7.2188-21.518 2.9946-46.66 5.7321-57.844-11.5 8.9743-8.4072 18.942-12.103 29-12.094z"/>
   <path d="m1738.8 703.08c-1.0714 0.17857-8.75 1.4286-8.75 1.4286l11.25 2.1429-7.3214 4.1071 12.143-1.6071-6.7857 5.5357 13.036-3.9286-1.4285 4.8214 8.0357-2.6786s-0.7143 5.7143 0 5.5357 4.8214-3.9286 4.8214-3.9286l2.3214 5.1786 2.8572-3.75 3.5714 3.9286 2.1429-3.9286 4.2857 5 1.9643-4.6429 3.5714 3.2143 1.0714-3.75 3.3929 3.3929 1.25-3.9286 5.7143 2.8572-2.8572-4.1072-15.357 1.0714-12.5-1.6071-14.286-4.2857z"/>
   <path d="m1755.9 687.09c-0.2679-0.71428-2.0536-3.0357-2.0536-3.0357l6.875 2.3214-3.3036-11.696 9.375 10.179-0.8036-6.6964 5.4465 6.875s3.4821-11.696 3.4821-11.339c0 0.35714 1.3393 10.714 1.3393 10.714l2.5-7.1428 1.25 7.8571 3.5714-4.2857-0.7143 4.7322c3.7682-1.789 6.0898-3.9914 8.2143-6.25-0.3422 2.6521-0.2116 5.1991-2.5893 8.3036 4.0501-0.35238 6.3067-1.828 9.2858-4.2857-0.6729 2.3314-1.8138 3.9773-3.3929 5.7143 2.4117-0.65088 4.5003-1.7566 6.6071-3.0357-0.9137 2.5283-2.564 4.0259-4.4642 5.8036l-10.625-4.1072-11.161-1.6964-14.107 2.0536z"/>
   <path d="m1934.9 679.91c-14.522 0.0991-30.498 5.3097-41.344 20.938 12.379-15.582 47.59-27.632 65.344-5.9688-19.471-8.4093-52.603-9.0716-65 14.438-0.747 2.2926-1.1547 4.4871 2.3125 5.375 5.2654 0.30088 10.515 0.66482 15.719 1.5938 8.0263 4.2927 31.213 4.2439 35.344 7.1562 1.4107-1.8809 2.5358-2.9251 2.1563-5.375 2.3162 0.77209 3.9227 1.6001 5.5312 3.5938-0.3088-2.6244-0.4733-3.6526-2.8438-5.1875 2.6369 0.47945 4.915 0.83744 7.125 2.5l-2.8437-3.5625c3.6879 0.77639 6.6882 2.2155 9.8125 4.4688-2.5759-4.1215-4.7831-7.6005-9.0938-10.188 6.8289-2.2094 11.413-6.2468 16.063-11.781-3.0117 0.94112-4.2459 1.1103-6.25-1.625-4.7166-6.4374-6.554-11.852-14.656-14.094-5.1687-1.43-11.134-2.3238-17.375-2.2812zm-5.9063 12.344c13.266-0.19202 25.109 5.5979 28.031 16.531-11.656 12.182-26.603 8.1421-39.562 6.2812-3.5511-0.50992-6.5559-1.8229-9.5625-2.375-4.0933-0.75169-7.0058 0.77115-10.594-0.25-2.0859-0.59362-1.8127-2.9734-0.75-4.4062 4.3913-5.9216 10.27-10.328 16.656-12.75 5.1697-1.9603 10.59-2.9561 15.781-3.0312zm-35.562 8.75c-1.2226 1.5609-2.2146 3.1509-2.9376 4.75 0.9257-1.6795 1.9133-3.2622 2.9376-4.75z"/>
   <path d="m1936.3 733.88c11.928-2.207 20.75-0.35994 21.696-14.464 7.6744 14.082-9.8882 16.643-21.696 14.464z" fill="#625148"/>
   <path d="m1542.7 762.97c15.701 82.815-23.384 145.24-95.969 201 28.725 0 47.963-1.5244 76.25-11.094-9.2187 26.855-14.202 41.106-40.906 55.031 23.836-4.7801 47.219-10.162 69.719-19.687-5.0926 26.029-15.897 36.937-38.906 53.031 52.958-13.646 86.968-25.891 107.59-80.812 23.369 23.369 39.847 44.005 73.75 50-5.9796-103.36-39.699-176.77-31.741-286.61 2.4013-33.145 26.134-52.871 38.317-79.624 10.47-22.992 17.061-45.589 30.799-60.546 39.284-19.642 67.207-30.34 96.969-63.656 105.18 14.973 131.35 183.75 235.69 207.64-20.519-31.013-35.399-70.514-30.269-108.77 14.879-110.96-39.679-257.05-230.23-253.92-268.73-43.74-301.78 229.34-261.07 398.03z" fill="#442415"/>
   <path d="m1915 693.25c2.2584-2.1332 3.0391-4.6122 4.0406-7.4499 0.3598 1.8912 0.2287 3.4987-0.2525 5.3033 2.0305-1.9507 3.4885-4.2185 4.7982-6.6923 0.724 2.3529 0.3236 3.7594-0.5051 5.9346 3.3399-2.1087 4.5772-5.0664 6.3135-8.46 0.9423 2.9094 0.3333 4.5195-0.7576 7.1973 3.8041-2.655 5.5869-6.1069 7.4498-10.228 1.106 4.1169 0.235 6.052-1.6415 9.5964 4.3461-2.8257 5.3746-6.0899 7.0711-10.733 1.6083 3.2168 1.1803 5.5798 0.6313 8.9651 3.3049-1.8434 4.7909-4.1679 6.566-7.3236 0.9851 4.4967-0.2342 6.4157-2.5253 10.102 4.3301-1.1364 5.5846-2.996 7.8286-6.566-0.489 4.6852-2.2352 6.6314-5.4295 9.7227l-9.3439-1.6415-10.607-0.50508-6.6923 1.1364z"/>
  </g>
 </g>
</svg>
