<?xml version="1.0" encoding="UTF-8"?>
<svg viewBox="0 0 355.13013 173.45552" xmlns="http://www.w3.org/2000/svg">
 <path d="m36.263 170.38c18.104-2.1976 33.494-15.677 40.386-32.127 1.6486-4.4385 2.3211-9.8103 7.576-11.003 11.305-3.7672 23.399-5.949 34.988-9.2197 49.76-12.237 100.13-22.321 150.66-31.415 17.618 11.101 38.622 23.287 59.259 17.93 10.301-2.9786 22.053-10.979 20.991-23.325-2.3256-12.355-15.95-18.986-20.387-30.412 0.38971-9.4658 9.3058-17.21 5.2702-27.257-5.5889-13.552-22.608-21.445-36.113-17.492-15.44 3.8086-21.425 20.324-26.881 33.515-2.125 6.5293-7.1363 11.579-13.957 12.828-62.856 14.44-126.5 26.104-190.61 35.422-15.321-7.7442-32.258-18.869-49.437-13.531-9.937 4.3927-18.011 16.222-13.342 27.967 2.2133 6.6474 6.4305 12.458 10.899 17.834-3.8368 14.232-6.2352 32.777 6.2044 44.325 4.0188 3.6082 9.2351 5.9896 14.487 5.9624z" fill="#e6e5c9"/>
 <path d="m345.74 75.187c-8.449 2.2496-16.826 4.8769-25.814 4.2912-10.014 0.8815-19.893-2.9756-29.762-4.9198-9.5446-2.0404-19.298-6.5572-28.858-3.4659-58.44 13.4-116.96 26.574-175.35 40.116-6.8901 2.8376-14.474 4.7974-20.93 8.184-6.5124 8.42-10.68 18.72-18.305 26.119-8.5975 5.2807-18.685 7.3795-28.838 7.7978 3.5715 3.4674 6.5566 8.0506 10.474 10.859 5.8635 0.77087 12.072 4.1296 17.347 0.48801 6.925-1.9372 12.581-6.0133 17.946-10.58 4.9095-3.4778 6.9906-9.7024 10.088-14.729 2.1844-4.2223 3.2468-9.7521 6.1078-13.186 39.617-9.7866 78.991-20.446 119.07-28.565 23.855-5.1423 47.946-9.3382 71.903-14.071 10.127 7.5033 21.818 12.29 33.063 17.511 7.5623 1.5014 15.123 2.7852 22.657 1.3862 4.7215 0.30568 8.708-1.3335 12.211-4.2522 3.8204-2.7286 6.9862-6.8024 9.5582-10.594 0.59387-4.3289 2.5201-9.0125-2.1654-11.936l-0.40547-0.4532z" fill="#abab96"/>
 <path d="m315.55 2.8398c9.4626 2.7625 20.936 12.831 22.319 19.586 1.3774 6.7299 0.22111 14.024-3.0846 19.46-2.2322 3.6702-2.9304 5.8286-2.4584 7.5995 0.36261 1.3603 4.0178 6.0641 8.1225 10.453 8.0544 8.6117 11.373 14.021 12.502 20.379 1.0752 6.0558-2.6678 13.818-9.0599 18.788-7.6031 5.9122-14.602 8.05-25.326 7.7364-12.686-0.37088-24.976-4.6962-40.703-14.324l-7.671-4.6963-21.204 3.9254c-19.584 3.6255-28.524 5.3644-57.698 11.222-30.717 6.168-105.85 24.369-108.33 26.242-0.64884 0.49091-1.8116 3.2278-2.584 6.082-4.3855 16.206-25.517 34.728-41.152 36.071-9.8874 0.84898-18.44-4.177-24.448-14.367-2.3591-4.001-2.8326-6.0702-3.3424-14.607-0.43631-7.3051-0.17213-11.63 0.9953-16.292l1.5893-6.3466-3.1862-4.0597c-13.786-17.565-11.224-35.649 6.2695-44.256 3.2187-1.5835 5.8518-1.9815 11.63-1.7576 9.7054 0.3761 14.044 1.7472 28.115 8.8864l11.636 5.9033 22.746-3.423c12.51-1.8826 28.325-4.3731 35.143-5.5343 11.359-1.9347 19.056-3.3354 58.501-10.647 7.3616-1.3646 27.92-5.6404 45.685-9.5016 31.98-6.9508 32.334-7.0563 35.66-10.624 1.9608-2.103 4.6802-7.1139 6.5319-12.036 5.5582-14.774 12.918-24.289 22.032-28.487 4.853-2.235 15.426-2.9354 20.768-1.3758zm-19.683 7.8926c-7.8238 4.4251-14.34 14.298-19.452 29.475-1.8424 5.4691-6.1666 10.887-10.333 12.948-3.4428 1.7025-40.096 10.031-57.794 13.132-7.0904 1.2424-13.164 2.4211-13.497 2.6193-1.0664 0.63503-31.454 6.3807-51.934 9.8197-10.91 1.832-21.844 3.7156-24.297 4.1857-9.2251 1.7677-47.956 7.495-50.194 7.4223-1.2822-0.0417-6.7609-2.4448-12.175-5.3403-11.977-6.4057-19.78-9.0036-27.83-9.2651-6.9039-0.22424-10.419 1.1697-15.013 5.9542-9.1504 9.5298-7.2201 20.087 6.509 35.598 4.8438 5.4725 5.4144 6.5794 5.5281 10.724 0.15093 5.5009-1.71 6.2468-1.955 0.78356-0.17969-4.0083-1.7444-6.4804-3.4539-5.457-3.1758 1.9012-3.8691 21.733-0.99448 28.446 5.1738 12.083 16.787 16.118 29.268 10.17 8.9424-4.2619 19.045-14.042 23.04-22.304 1.8097-3.7426 3.5573-8.6058 3.8836-10.807s1.1101-4.3981 1.7418-4.8815c1.6895-1.2931 57.993-15.147 92.265-22.702 30.798-6.7896 82.853-17.038 95.398-18.782 6.84-0.95083 7.3676-0.88333 10.975 1.404 7.8668 4.9885 24.131 12.889 30.051 14.598 23.865 6.8894 46.302-5.9116 39.733-22.669-0.56099-1.4313-4.4284-6.3108-8.5943-10.844s-7.892-9.2007-8.2803-10.373c-1.1786-3.5594-2.9982-1.7246-3.2207 3.2476-0.21806 4.8739-1.4688 6.1049-2.6324 2.5909-1.1128-3.3605 1.1931-13.236 4.0708-17.435 4.5224-6.5984 5.831-10.046 5.7234-15.079-0.16004-7.4932-3.9462-12.056-14.441-17.402-7.0187-3.5756-15.532-3.4897-22.096 0.22287z"/>
</svg>
