<?xml version="1.0" encoding="UTF-8"?>
<svg viewBox="0 0 744.09448819 1052.3622047" xmlns="http://www.w3.org/2000/svg">
 <path d="m67.728 766.17c-0.95029-0.34608-6.9028-0.42359-13.228-0.17225-8.8264 0.35076-11.929 0.13396-13.346-0.93253-1.7125-1.2893-1.8385-3.1886-1.7478-26.333 0.0538-13.719 0.53723-52.619 1.0743-86.444s0.98609-72.918 0.99779-86.872c0.0188-22.441-0.15201-25.229-1.4787-24.128-1.2625 1.0478-1.5 0.86485-1.5-1.155 0-1.32 0.74155-3.4586 1.6479-4.7526 1.5213-2.172 1.5845-13.383 0.82283-145.97-0.45379-78.991-0.83718-145.87-0.85199-148.62-0.11317-21.022 0.6078-73.618 1.0446-76.202l0.54129-3.202 57.648 0.0361c31.706 0.0199 66.873-0.21243 78.148-0.51623s54.925-0.78074 97-1.0599 88.425-1.029 103-1.6664 38.2-1.2631 52.5-1.3906 32.3-0.55955 40-0.96022 16.475-0.78328 19.5-0.85026l5.5-0.12178-0.16004 8.9666c-0.088 4.9316-0.31301 14.367-0.5 20.967s-0.0231 16.275 0.36413 21.5c0.83541 11.272 1.858 204.57 2.1604 408.35 0.15809 106.56-0.086 146.26-0.90597 147.38-0.97864 1.3384-5.4654 1.4956-35.04 1.2278-46.94-0.42495-57.921-0.25067-68.627 1.0892-9.3128 1.1654-25.134 1.2286-98.791 0.39436-96.625-1.0943-123.65-1.156-139.5-0.31842-31.929 1.6875-83.581 2.7428-86.272 1.7626zm4.7722-3.4246c3.025-0.34291 13.076-0.77486 22.336-0.9599s17.086-0.58628 17.392-0.89164-0.47135-1.3864-1.726-2.4024c-2.2521-1.8236-2.2578-1.8846-0.44929-4.775 1.0076-1.6103 3.5454-4.5801 5.6395-6.5996 4.0445-3.9002 4.7914-5.8282 2.258-5.8282-0.85231 0-2.9898-0.76258-4.75-1.6946s-4.1003-1.8195-5.2003-1.9721-3.795-0.53752-5.9888-0.85537-5.0063-1.5338-6.25-2.7022c-1.9957-1.8748-2.2612-3.098-2.2612-10.415 0-7.7861 0.18264-8.4989 3-11.708 3.3154-3.776 3.7288-5.4359 1.5611-6.2677-2.206-0.84654-2.9003-5.8597-1.2481-9.013l1.4438-2.7557 0.73917 3.4418c0.93799 4.3675 1.5788 5.4388 2.4297 4.0619 1.1557-1.8699-0.026-8.1201-1.5352-8.1201-1.7109 0-1.8471-4.1435-0.19059-5.8 0.66-0.66 1.9412-1.2 2.847-1.2 1.3951 0 1.7416-1.7205 2.2652-11.25 0.5818-10.588 2.789-23.445 6.3907-37.225 0.86618-3.3139 1.5034-8.0031 1.416-10.42-0.0926-2.5624 0.49697-5.396 1.414-6.7956 0.87756-1.3393 1.2987-3.2646 0.95261-4.355-0.92219-2.9056 0.38799-5.9544 2.5588-5.9544 3.7655 0 5.3051-4.4286 5.771-16.6 0.53011-13.849-0.98205-26.631-4.9213-41.599-1.6358-6.2155-3.5087-13.886-4.162-17.046-0.94701-4.5806-1.5192-5.6399-2.823-5.2261-1.6289 0.51699-6.9091-5.1858-6.9091-7.4621 0-0.5867-0.88713-1.0667-1.9714-1.0667-1.3788 0-2.2209 0.96283-2.8014 3.2031l-0.83001 3.2031-2.2073-5.4531c-2.3352-5.7692-2.3517-7.4711-0.23664-24.453 0.54801-4.4 1.4193-11.6 1.9362-16s1.4755-10.113 2.1302-12.696c1.4723-5.8076-0.0493-17.785-3.2781-25.804-0.33218-0.825-1.3099-5.1449-2.1727-9.5998-2.0191-10.425-2.0013-23.756 0.0422-31.665 1.7553-6.7934 1.9018-7.1908 6.1667-16.735 2.0137-4.5063 3.1076-8.9346 3.5666-14.438 0.36408-4.3657 1.0924-9.3157 1.6184-11s1.9253-7.5624 3.1095-13.062 2.4903-10.45 2.9026-11 1.0707-2.35 1.4633-4 2.4473-6.7059 4.5662-11.235 3.4347-8.4935 2.9241-8.809c-1.1757-0.72661-1.2139-5.7455-0.0533-7.0057 0.4812-0.5225 2.0893-4.1 3.5736-7.95s3.7169-7.9 4.9613-9 3.2948-4.8221 4.5562-8.2712 2.6852-6.5132 3.1637-6.809 0.87013-1.6596 0.87013-3.0308c0-1.8765-0.74941-2.7542-3.0304-3.5494-3.7128-1.2943-5.9697-5.3922-5.9697-10.84 0-2.2546-0.6582-5.3722-1.4627-6.9278-1.7545-3.3929-1.866-20.909-0.14795-23.239 0.61084-0.82846 2.1264-2.0474 3.368-2.7088 1.8241-0.97169 2.1531-1.7945 1.7139-4.2871-1.1734-6.6607 6.1451-27.809 11.713-33.848 4.9775-5.3983 13.633-10.88 21.696-13.74 6.9172-2.4536 25.721-2.3938 29.519 0.0939 2.0359 1.3334 3.1165 1.5408 3.9073 0.75 0.60121-0.60121 3.038-1.0931 5.4151-1.0931 9.3425 0 25.863 10.747 29.645 19.285 2.2872 5.1632 2.4093 21.076 0.22283 29.052-0.77842 2.8395-1.6882 6.4003-2.0216 7.9128-1.2557 5.695-2.5682 2.5555-2.5682-6.143 0-7.262-0.29604-9.0066-1.6142-9.5124-1.0922-0.41911-1.4604-1.4239-1.1387-3.107 0.26154-1.3682 0.0879-2.4876-0.3858-2.4876s-0.86133 0.41704-0.86133 0.92676c0 0.92113-5.5359 4.0732-7.1536 4.0732-0.4655 0-0.84804-1.6875-0.8501-3.75-5e-3 -5.4323-2.9815-9.5654-9.0737-12.601-2.9016-1.4459-5.3087-2.5209-5.3491-2.3888-0.9843 3.2174-3.0766 4.3664-11.66 6.403-11.131 2.6412-14.152 4.1692-19.169 9.6984l-3.7553 4.1387-1.9947-2.3608c-1.0971-1.2984-1.9947-2.9718-1.9947-3.7186 0-0.79612-0.62053-1.1197-1.5-0.78223-0.93062 0.35711-1.5-5e-3 -1.5-0.95466 0-1.9622-4.787-7.6837-6.4288-7.6837-0.68808 0-1.8027 1.6875-2.477 3.75-1.0227 3.1284-0.96636 4.3662 0.33994 7.4679 2.2146 5.2584 1.9492 8.4896-0.93416 11.373-1.375 1.375-2.5 2.9097-2.5 3.4105s-1.2739 3.0711-2.8309 5.7118-2.663 5.305-2.4577 5.9208-0.30467 1.3797-1.1332 1.6976c-1.6212 0.6221-5.5782-4.0477-5.5782-6.583 0-1.6708-3.2997-5.7486-4.6517-5.7486-0.5044 0-1.6834 1.2973-2.62 2.8828-1.4548 2.4627-1.5635 3.9564-0.74648 10.25 0.52603 4.052 0.97031 7.9563 0.98729 8.6762 0.0539 2.2846 2.0309 0.17407 2.0309-2.168 0-1.2325 0.49586-2.7368 1.1019-3.3429 0.77674-0.77674 0.80898-2.4753 0.10926-5.7561-0.955-4.4777-0.92309-4.5913 0.84126-2.9945 1.0086 0.91281 2.7576 4.3949 3.8866 7.738 1.8376 5.4416 1.8986 6.3135 0.58147 8.3237-0.80917 1.2349-2.4948 2.3906-3.7458 2.5681-1.9966 0.28333-2.312 0.97784-2.5807 5.6821-0.22823 3.9966 0.13446 5.8461 1.4264 7.2736 1.1816 1.3057 2.0579 1.5888 2.756 0.89068 1.5952-1.5952 4.3372-1.2053 5.1077 0.72637 0.38395 0.9625 0.91234 3.523 1.1742 5.69s1.3529 5.1713 2.4245 6.6763c2.4945 3.5033 10.024 9.0289 16.978 12.459 2.9917 1.4759 7.8639 4.4865 10.827 6.6902 5.6331 4.1893 9.9043 5.661 16.612 5.7239 6.1296 0.0575 8.772 0.97748 7.435 2.5885-0.60895 0.73373-0.80337 1.8256-0.43205 2.4264 1.0197 1.6499 3.6588-0.91987 3.018-2.9387-0.38835-1.2236 0.54579-2.0417 3.6045-3.157 3.1946-1.1648 4.6626-2.5126 6.4887-5.9572 1.298-2.4485 3.4676-5.3519 4.8214-6.4519 3.0237-2.4568 4.7042-6.4251 7.5222-17.763 3.0586-12.305 2.8326-13.082-3.9282-13.493-3.2226-0.19617-6.2041-0.99704-7.2561-1.9491-2.5392-2.2979-1.6983-2.5326 3.0596-0.8539 5.6112 1.9797 10.442 0.50332 9.5808-2.9281-0.31678-1.2622-0.0895-2.5955 0.50506-2.963 0.64101-0.39617 1.081 0.16998 1.081 1.3909 0 1.1325 0.36 2.059 0.8 2.059 1.5747 0 3.2-2.4422 3.2-4.8084 0-2.0696-0.35167-2.3201-2.5-1.781-2.4285 0.60951-2.5004 0.4767-2.5153-4.6416-0.0178-6.118-0.9469-8.1045-3.3578-7.1794-1.5998 0.6139-1.603 0.77923-0.0479 2.4976 1.5995 1.7674 1.435 1.8374-4.1619 1.7706-4.8596-0.058-6.1253 0.29846-7.6222 2.147-0.98721 1.2192-1.7949 3.5168-1.7949 5.1059 0 2.2226-0.46149 2.8892-2 2.8892-1.1111 0-2 0.66667-2 1.5 0 0.825-0.70156 1.5-1.559 1.5s-1.2946-0.42785-0.9714-0.95079 0.64767-2.5479 0.72105-4.5c0.13304-3.5389 1.1901-4.6708 2.1471-2.2992 0.31056 0.76965 0.53472 0.60019 0.58333-0.44098 0.0434-0.93004-0.37105-1.9691-0.92105-2.309s-1-1.9191-1-3.5093c0-1.6986-0.72187-3.3117-1.75-3.9106-1.6667-0.97075-1.6667-1.0207 0-1.0497 1.9074-0.0331 5.75 3.3274 5.75 5.0286 0 0.58246 0.4683 0.76959 1.0407 0.41584s0.76705-1.5053 0.43261-2.559-0.32242-2.8158 0.0267-3.9158c0.5715-1.8006 1.513-2 9.4449-2 10.444 0 11.198 0.56103 11.85 8.8106 0.24727 3.1292 0.88171 6.2303 1.4099 6.8914 0.99112 1.2406 0.52508 3.6078-1.7321 8.798-1.1882 2.7321-1.8147 5.6272-4.542 20.988-1.2198 6.8703-2.7149 10.324-6.5433 15.113-1.8032 2.256-4.0542 5.7283-5.0022 7.7163-1.0123 2.1227-3.0548 4.2462-4.9489 5.145-3.1752 1.5068-3.2095 1.5964-2.2085 5.7837 0.97074 4.0606 1.1229 11.376 0.26551 12.764-0.22249 0.36 0.47016 4.2174 1.5392 8.572s1.949 9.8517 1.9555 12.216 0.9347 6.1891 2.0627 8.5c1.902 3.8968 4.6352 15.488 5.589 23.702 0.22352 1.925 0.85567 7.1 1.4048 11.5 1.7902 14.345 2.6186 51.308 1.2099 53.99-1.3838 2.6341-0.73448 5.5101 1.244 5.5101 0.70653 0 1.5843-1.1941 1.9506-2.6535s1.8995-4.4969 3.407-6.75c6.1741-9.2272 6.6709-11.542 6.3463-29.572-0.26779-14.876-0.14383-16.372 1.2428-14.996 1.1212 1.1126 1.6291 4.1545 1.8668 11.18 0.35993 10.638 1.5091 13.304 5.3219 12.347 2.0295-0.50936 2.6905 0.27549 5.9633 7.0798 3.7495 7.7954 5.6195 16.364 3.5712 16.364-0.60033 0-1.587-1.8402-2.1926-4.0893-1.3199-4.9017-4.5574-11.318-6.5414-12.965-1.4002-1.162-2.0867 0.0688-0.77182 1.3837 0.3645 0.3645 0.8128 2.0336 0.99622 3.709s1.0412 4.4149 1.9063 6.0877c1.9022 3.6784 2.3969 10.995 0.78208 11.567-0.65079 0.2306-1.8536-1.7017-2.7623-4.4375-1.8697-5.6291-4.1937-9.2684-5.8917-9.2261-0.65632 0.0163-2.9499 3.0538-5.0968 6.75-4.726 8.1364-6.0154 17.125-3.0958 21.581 2.0381 3.1105 8.0385 5.0038 12.943 4.0838 3.0867-0.57906 3.4762-1.0384 4.0642-4.7925 0.89863-5.7368 6.556-17.339 13.178-27.026 3.0551-4.4691 5.8381-8.3507 6.1844-8.6257 2.6682-2.119 7.1086-9.4039 7.6801-12.6 0.38359-2.145 2.3828-6.15 4.4428-8.9s4.6812-7.925 5.825-11.5c2.9393-9.1866 5.0244-14.795 6.7182-18.071 0.80491-1.5565 1.4635-4.8919 1.4635-7.412 0-3.833-0.36777-4.7209-2.25-5.4322-1.2375-0.4677-2.657-0.60867-3.1545-0.31327s-0.58342 0.0176-0.19098-0.61741c0.39244-0.63498 2.23-1.1545 4.0836-1.1545 3.2386 0 3.4346-0.22223 5.0264-5.6977 1.7883-6.1515 6.2749-15.282 9.4846-19.302 1.0979-1.375 2.1505-3.8538 2.3392-5.5085 0.36116-3.1667 2.6139-7.4915 3.9022-7.4915 1.7749 0 0.64309 6.6467-1.5343 9.0102-6.0167 6.5309-12.37 24.605-14.789 42.076-2.0369 14.71-8.1635 39.254-10.415 41.724-0.9668 1.0608-1.5268 0.80194-2.9437-1.3605-0.96237-1.4688-1.5442-3.7458-1.293-5.06s0.085-2.3895-0.36936-2.3895c-1.4267 0-2.8965 3.7268-2.8965 7.3445 0 2.5225-1.0558 4.8116-3.8489 8.3451-6.9623 8.808-17.76 25.692-20.663 32.31-3.532 8.0524-3.7508 14.221-0.68063 19.189 2.789 4.5127 2.7533 5.1516-0.25558 4.5764-1.8228-0.34845-3.2745 0.38491-5.6851 2.872l-3.2372 3.3399 2.1998 2.3415c3.0605 3.2578 10.038 6.5645 15.405 7.3 6.5465 0.89729 11.273-0.96933 13.789-5.4456 2.0097-3.5758 8.0837-7.173 12.112-7.173 2.5656 0 12.174-7.6316 16.098-12.786 3.4081-4.4768 7.8334-15.042 9.9164-23.674 0.52562-2.1784 1.339-4.4284 1.8075-5s1.3226-4.6394 1.8981-9.0394 1.78-11.825 2.6768-16.5c0.89677-4.675 2.8716-15.723 4.3884-24.551 3.4749-20.224 5.0073-23.531 5.0497-10.899 0.0167 4.9775-0.37918 9.4775-0.87979 10-1.0343 1.0796-5.3041 20.569-4.6497 21.223 1.5432 1.5432 3.0365-2.3859 8.5187-22.414 1.8161-6.6348 2.0078-8.5529 1.0362-10.368-0.95454-1.7836-0.88326-2.9512 0.35769-5.8591 1.8038-4.2269 4.6472-17.95 4.6472-22.428 0-1.6956 0.54003-5.6974 1.2001-8.893 1.0546-5.1061 1.487-5.8102 3.5674-5.8102 1.7986 0 2.2344 0.4204 1.8142 1.75-0.3042 0.9625-0.98059 3.775-1.5031 6.25s-1.4182 6.3-1.9904 8.5-1.0195 6.25-0.99384 9l0.0466 5 1.471-4c2.9099-7.9126 4.9116-24.125 5.757-46.629l0.58715-15.629-2.728-0.53766c-1.5004-0.29571-3.9655-0.29752-5.478-4e-3 -2.2154 0.42989-2.75 1.076-2.75 3.3238 0 2.0371-1.0796 3.683-4 6.0985-2.2 1.8196-4 3.8866-4 4.5933s-0.45 1.2849-1 1.2849c-2.0516 0-0.89836-3.9478 2-6.8462 2.9517-2.9517 3.9813-6.1538 1.9786-6.1538-0.56179 0-1.534 1.125-2.1605 2.5-1.2028 2.6398-2.4126 3.0426-4.7309 1.575-0.97357-0.61628-1.9239-0.26329-3.0564 1.1353-1.6334 2.0172-1.6545 2.0129-3.4355-0.70522-1.5302-2.3354-2.2861-2.6547-5.1753-2.1858-4.7647 0.77321-5.1003-0.76937-0.6688-3.074 3.2107-1.6698 3.6993-2.3656 3.4041-4.8474-0.18959-1.5938-0.75209-3.0478-1.25-3.2311-1.2383-0.45599-1.152-5.1667 0.0947-5.1667 0.55 0 1-0.53419 1-1.1871s-1.35 0.10629-3 1.6871c-1.9082 1.8281-3 3.8742-3 5.622 0 3.6682-1.7652 8.1412-2.929 7.4219-0.51298-0.31705-0.7222-1.7373-0.46492-3.1561 0.90322-4.981-0.0946-5.9177-6.3494-5.961-5.7038-0.0394-14.415-3.4425-18.007-7.0344-0.76586-0.76586-1.8-1.3925-2.298-1.3925s-1.6326-1.1097-2.5214-2.4661c-1.5411-2.352-1.4671-2.7261 1.5989-8.0849 2.3808-4.1612 3.3483-7.2829 3.7297-12.034 0.32218-4.0137 0.13478-6.4151-0.50065-6.4151-0.55857 0-1.5506-1.2916-2.2045-2.8703-1.6868-4.0722 0.82194-10.13 4.1952-10.13 1.2931 0 2.891-0.54 3.551-1.2s1.2-0.7725 1.2-0.25-1.575 2.2067-3.5 3.7426c-3.7035 2.955-4.5505 6.0903-1.9182 7.1004 2.5661 0.98472 4.4182 0.69902 4.4182-0.68157 0-0.70871 0.84333-2.9427 1.8741-4.9644 2.6041-5.1078 3.2156-7.934 2.0267-9.3666-0.6729-0.81079-0.68295-1.8406-0.0298-3.052 0.54217-1.0056 1.9324-3.9126 3.0894-6.4601l2.1036-4.6317 2.968 2.6044c3.7844 3.3208 3.7442 4.2294-0.17314 3.9129-2.646-0.2138-3.2918 0.18602-4.0966 2.536-0.81359 2.3757-0.56998 3.1752 1.6412 5.3864 2.9813 2.9813 3.3724 5.3239 0.88875 5.3239-0.93931 0-3.4143 1.6663-5.5 3.703-4.3401 4.238-4.7988 7.2572-1.7922 11.797 3.5768 5.4008 1.8683 10.105-2.7687 7.6238-2.3569-1.2614-4.2313 0.26864-4.2313 3.4538 0 1.1976-0.72188 2.7767-1.6042 3.5089-2.4539 2.0366-3.553 5.7513-2.3608 7.979 0.56943 1.064 1.4959 1.9345 2.0588 1.9345s2.7866 1.4169 4.9416 3.1487c3.3928 2.7265 4.8979 3.2116 11.225 3.6176 6.6727 0.42823 7.5641 0.25399 10.273-2.008 3.9729-3.3173 7.7795-5.097 14.966-6.9978 9.3314-2.4678 15.6-3.3066 20.5-2.7429 4.8621 0.5593 8 0.1776 8-0.97315 1e-5 -1.3479-6.2473-8.0445-7.5048-8.0445-2.8653 0-3.995-2.8969-6.6294-17-0.68785-3.6824-1.8453-6.2436-3.5024-7.75-3.4255-3.1141-4.3884-2.8237-3.2936 0.9934 0.5116 1.7839 0.93019 6.2588 0.93019 9.9442 0 8.698-2.3826 11.942-9.0612 12.338-4.5632 0.27023-6.9388-0.78298-6.9388-3.0763 0-2.0115 2.8838-4.4308 4.5289-3.7995 1.1401 0.43748 1.4711-0.31461 1.4711-3.3425 0-2.1488-0.41537-4.3345-0.92305-4.857s-1.0702-2.3-1.25-3.95c-0.33234-3.0495-1.844-3.7367-2.9192-1.3272-3.3894 7.5949-4.9808 7.6145-4.5528 0.0563 0.2192-3.8703-0.1316-6.5707-1.0095-7.7713-0.73999-1.012-1.3454-3.0774-1.3454-4.5898s-0.48094-3.0471-1.0688-3.4104-0.99783-2.7524-0.91114-5.309c0.233-6.8721 0.24446-6.8456-3.2659-7.5476-2.3674-0.47347-3.5592-0.22048-4.404 0.93484-0.74751 1.0223-1.3905 1.2082-1.8133 0.52415-0.36026-0.58296-1.5126-1.0599-2.5608-1.0599-2.0553 0-3.9762-2.7506-3.9762-5.6937 0-1.0039-0.83751-2.3482-1.8611-2.9875-2.562-1.6-3.3591-9.4364-1.4991-14.737 1.7821-5.0791 8.4422-11.581 11.862-11.581 2.4977 0 3.3447 1.3587 1.5416 2.473-1.7159 1.0605 0.0654 3.6272 2.0748 2.9894 1.0399-0.33005 1.8816-0.11972 1.8816 0.4702s-0.39541 1.0674-0.87868 1.0674c-1.1327 0-3.5831 5.8716-2.7839 6.6708 0.33364 0.33365 1.0315-0.51095 1.5508-1.8769 1.8438-4.8497 7.1117-7.9396 7.1117-4.1714 0 1.305 0.28413 1.3866 1.452 0.41739 0.80336-0.66673 2.3891-0.90764 3.5497-0.53928l2.0977 0.66578-2.0497 3.474c-2.6149 4.4319-2.6268 6.1919-0.0261 3.8383 1.4456-1.3082 2.3313-1.5237 3.1007-0.75433s0.47698 1.2675-1.0236 1.7438c-1.1553 0.3667-2.1006 1.0864-2.1006 1.5993 0 1.4512 0.45529 1.2028 5.6228-3.0674 2.6623-2.2 5.1338-4 5.4922-4 0.9267 0 2.132 4.1295 1.8972 6.5-0.10896 1.1-0.92381 2.8127-1.8108 3.8059-1.2962 1.4515-1.3801 2.1783-0.42753 3.7036 0.68619 1.0988 0.79863 2.1366 0.26707 2.4651-0.50493 0.31207-1.3272-0.16368-1.8272-1.0572-0.78296-1.3991-1.208-1.438-3.0615-0.28049-1.2244 0.76467-2.1523 2.371-2.1523 3.726 0 2.107 0.1931 2.2235 1.6734 1.0094 1.4909-1.2227 1.61-1.1265 1.0925 0.88173-0.4605 1.787-0.082 2.3794 1.8266 2.8584 1.3241 0.33233 2.4075 1.2304 2.4075 1.9958 0 2.4984 2.0236 1.4659 4.1325-2.1084 2.1935-3.7177 3.8675-4.5406 3.8675-1.9012 0 0.87933-1.35 2.8599-3 4.4012-3.3492 3.1286-4.1194 6.3668-1.2527 5.2667 1.635-0.62739 1.6309-0.49286-0.063 2.0924-2.7514 4.1992-1.5214 5.2253 2.1511 1.7947 2.0382-1.904 3.8662-2.8218 4.8604-2.4403 0.94249 0.36167 2.1372-0.1321 2.9244-1.2087 1.1345-1.5516 1.0763-2.0077-0.39461-3.0911-1.6179-1.1917-1.6056-1.3174 0.19809-2.016 2.7353-1.0594 5.5764-4.1183 5.5764-6.0039 0-0.88335 1.35-3.3106 3-5.3939 2.9538-3.7295 3.9115-7 2.0497-7-0.52267 0-1.3102 0.63587-1.75 1.413-0.99503 1.7582-6.2997 0.94318-6.2997-0.96789 0-0.81967-1.0402-1.2502-2.7386-1.1334-1.9719 0.13556-3.0137-0.4314-3.7214-2.0252-0.64093-1.4435-1.6885-2.103-3.0114-1.8958-1.1157 0.17472-1.501 0.13201-0.85605-0.0949s1.6218-1.7015 2.171-3.2767 1.934-3.3648 3.0775-3.9768 2.079-1.8243 2.079-2.6941c0-1.2226-0.62384-1.4278-2.75-0.90422-6.6255 1.6315-8.25 1.7544-8.25 0.62417 0-0.78276-1.1358-0.94574-3.5-0.50221-3.4442 0.64614-4.1975-0.14829-3.6184-3.816 0.0651-0.4125-0.98422-0.75-2.3319-0.75s-2.8692-0.74849-3.3811-1.6633c-0.85432-1.5266-1.283-1.489-5.2155 0.45656-2.3566 1.1659-4.6057 1.9214-4.9982 1.6789-1.8431-1.1391-1.5932-4.7262 0.54929-7.8832l2.3164-3.4134-6.1603-0.72461c-3.3882-0.39854-14.035-0.7203-23.66-0.71503-21.166 0.0116-109.69 1.3565-116 1.7623-2.475 0.15923-23.85 0.31053-47.5 0.33622l-55.883 0.0728c-7.0858 0.0143-13.069 0.21195-13.296 0.43917-0.49658 0.49658-0.32547 192.29 0.19819 222.15 0.50753 28.943 0.53194 185.37 0.0311 199.5-0.62858 17.737-1.1155 172.77-0.54445 173.34 0.27785 0.27789 2.9778 0.73584 6 1.0177s6.6198 0.93861 7.9948 1.4595 3.85 0.79355 5.5 0.60585l8.5-0.96473zm192-285.49c0-0.56727 0.7875-1.3244 1.75-1.6825s2.9906-1.5559 4.5069-2.6618c2.0434-1.4904 3.0482-1.7193 3.8828-0.88475 1.588 1.588 0.30257 4.2604-2.0492 4.2604-1.0848 0-2.2505 0.45-2.5904 1-0.81582 1.32-5.5 1.2933-5.5-0.0314zm11.2-9.1686c-2.3732-2.3732-1.3219-3.8 2.8-3.8 4.255 0 4.2589-3e-3 12.293-8.9254 2.6359-2.9276 5.0594-5.056 5.3855-4.7299 0.64235 0.64235-1.9049 4.9439-4.8294 8.1553-1.0017 1.1-3.1803 3.9125-4.8412 6.25-2.5073 3.5285-3.5791 4.25-6.3136 4.25-1.8116 0-3.8337-0.54-4.4937-1.2zm5.3286-43.155c-2.573-1.8815-1.3351-5.0354 1.6096-4.1007 2.1546 0.68383 9.2494-1.064 11.636-2.8665 2.1745-1.6424 2.6501 0.19435 0.63637 2.4577-1.8543 2.0841-8.8276 5.7985-10.969 5.8429-0.58238 0.0121-1.893-0.58797-2.9125-1.3334zm15.471-9.4954c0-1.7943 2.233-7.1492 2.9812-7.1492 0.43205 0 1.0933-1.0125 1.4695-2.25s0.90428-1.7231 1.1736-1.0791-0.66856 3.4565-2.0841 6.25c-2.4412 4.8174-3.5401 6.13-3.5401 4.2284zm-48.355-11.838c-0.37861-0.3786-0.38892-4.6553-0.0229-9.5038l0.66548-8.8154-3.3938 0.64447c-1.8666 0.35446-3.9504 1.0814-4.6308 1.6154-1.4804 1.162-6.263 0.14603-6.263-1.3304 0-0.57198-0.41891-0.78107-0.9309-0.46464-1.9652 1.2146-2.1335-1.7457-0.4955-8.7156 0.93604-3.983 2.5399-8.1292 3.5641-9.2139 1.9757-2.0924 2.5598-0.7394 0.98761 2.288-0.48106 0.92634-1.1804 4.2071-1.554 7.2906-0.67292 5.5532-0.65043 5.6183 2.3746 6.8713 2.4818 1.028 3.6506 1.0179 6.2381-0.0539 2.4334-1.008 3.2782-1.0366 3.5833-0.12132 0.21956 0.65867 1.5508 1.1976 2.9583 1.1976 2.5204 0 2.55 0.0875 1.9541 5.7882-0.51877 4.9633-3.0327 13.212-4.0267 13.212-0.17596 0-0.62969-0.30977-1.0083-0.68838zm10.855-22.312c0.33992-0.55 1.379-0.99311 2.309-0.98469 1.4573 0.0132 1.4837 0.14929 0.19098 0.98469-1.9584 1.2656-3.2822 1.2656-2.5 0zm6.1-3.8381c-0.31791-0.51439 0.052-1.4581 0.82194-2.0971 0.82791-0.68711 1.6362-0.77971 1.978-0.22662 0.31791 0.51439-0.052 1.4581-0.82194 2.0971-0.82791 0.68711-1.6362 0.77971-1.978 0.22662zm10.4-3.9068c0-0.93152 1.0847-1.1053 3.9946-0.63999 2.5923 0.41452 4.5231 0.20016 5.5-0.61062 0.83736-0.69495 1.5054-0.80562 1.5054-0.24939 0 1.9337-2.5428 3.0276-6.75 2.9038-2.7191-0.08-4.25-0.58568-4.25-1.4038zm-25.708-10.505c0.25208-0.6875 1.0209-1.1187 1.7085-0.95828s2.0492-0.43137 3.0257-1.3151c1.0177-0.92098 2.0277-1.1989 2.3663-0.65111 0.70107 1.1344-3.625 4.1745-5.9403 4.1745-0.89018 0-1.4123-0.5625-1.1602-1.25zm15.708-0.59501c0-0.9727 2.4688-3.0765 5.8099-4.9509 1.95-1.094 2.9238-1.0251 6.25 0.44244 2.167 0.9561 3.9401 2.1018 3.9401 2.5459 0 1.2014-3.7567 0.97645-5.8845-0.35242-1.5079-0.9417-2.4282-0.75353-4.8908 1-3.154 2.2458-5.2247 2.767-5.2247 1.315zm-19.374-4.9508c-0.30638-0.49574 0.27233-1.7916 1.286-2.8797s2.1535-2.9562 2.5328-4.1514 1.3344-2.1731 2.1223-2.1731c2.0958 0 1.7492 2.7602-0.49755 3.9626-1.0616 0.56815-2.0741 2.0112-2.25 3.2069-0.34012 2.3117-2.2646 3.5379-3.1936 2.0348zm36.374-5.6209c0-0.87083 0.7125-1.5833 1.5833-1.5833 1.7659 0 1.4584 2.1528-0.39583 2.7708-0.65313 0.21771-1.1875-0.31666-1.1875-1.1875zm4-4c0-1.6805 0.54853-2.5833 1.5696-2.5833 1.0423 0 1.4622 0.72946 1.25 2.1717-0.47108 3.2015-2.8196 3.5444-2.8196 0.41166zm-30.504-3.5904c-0.34231-0.55389 0.0368-1.26 0.84245-1.5692s1.692-1.431 1.9698-2.4929c0.61886-2.3666 2.5283-2.5215 3.3903-0.27507 0.4065 1.0593-0.18503 2.3201-1.6422 3.5-2.5802 2.0893-3.6636 2.2882-4.5603 0.83718zm35.064-0.89614c-1.0113-1.6364 2.0666-7.8059 4.7818-9.585 1.3798-0.90407 2.971-2.97 3.5361-4.591 0.99434-2.8524 3.59-4.7864 4.8-3.5764 0.9815 0.9815-1.8198 6.6613-3.811 7.727-1.0225 0.5472-2.8732 3.0948-4.1128 5.6614-2.2783 4.7172-4.0538 6.209-5.194 4.364zm-13.2-5.6006c-0.34414-0.89683-0.11596-2.1404 0.50707-2.7634s1.1328-1.9909 1.1328-3.0398c0-1.2756 0.49163-1.7183 1.4848-1.3372 0.89216 0.34236 1.9381-0.27742 2.6208-1.5529 1.038-1.9395 1.2187-1.9749 2.0942-0.41041 1.1777 2.1044-0.68194 4.7435-2.7762 3.9398-0.98959-0.37975-1.623 0.4152-2.056 2.5802-0.73728 3.6864-2.1262 4.8797-3.0073 2.5836zm-13.843-1.549c0.35835-1.129 2.8637-4.2076 5.5674-6.8411s4.9323-5.1973 4.9524-5.6972 2.0777-2.2029 4.5725-3.7845 4.9422-3.9441 5.4387-5.25 1.5889-2.3744 2.4275-2.3744c2.2467 0 1.8641 3.7402-0.58908 5.7598-1.1626 0.95711-6.2869 5.9027-11.387 10.99-9.2378 9.2143-12.248 11.187-10.982 7.1972zm61.081-9.6827c-1.7167-1.7167 0.53385-9.2644 2.7625-9.2644 1.3537 0 0.63504 8.7878-0.76247 9.3241-0.77123 0.29595-1.6712 0.26909-2-0.0597zm9.501-2.8216c-2.3726-4.0212-2.6945-6.4551-0.84878-6.417 1.2362 0.0255 4.75 6.5366 4.75 8.8018 0 2.2551-1.82 1.1426-3.9012-2.3848zm-45.405 0.91768c-0.79893-0.79893 0.10419-2.3605 1.3652-2.3605 0.51754 0 0.94098 0.675 0.94098 1.5 0 1.5464-1.18 1.9867-2.3062 0.86052zm3.8619-5.2703c-0.83268-1.3473 0.46466-4.0902 1.9346-4.0902 1.189 0 2.8875-3.9555 2.0556-4.7874-0.20608-0.20608-1.3518 0.14823-2.546 0.78735s-2.4415 0.8918-2.7718 0.56151c-1.0831-1.0831 1.2885-6.0611 2.8952-6.0772 0.86322-9e-3 2.6899-1.3183 4.0593-2.9102 2.7987-3.2536 5.1546-2.7657 4.24 0.87815-0.60123 2.3955 1.6081 4.9555 2.3517 2.7249 0.21579-0.64738 1.2548-1.177 2.309-1.177 3.2941 0 2.3528 3.8067-1.3333 5.3922-2.9408 1.2649-3.4047 1.2216-4.8759-0.4546-2.2007-2.5075-2.9043-1.4801-1.5154 2.2129 1.0531 2.8001 0.90946 3.2202-1.8587 5.4371-3.2806 2.6272-4.096 2.875-4.9442 1.5027zm26.694-1.7525c-1.9596-0.79072-1.4633-2.3377 0.75-2.3377 1.1111 0 2 0.66667 2 1.5 0 1.541-0.57392 1.7158-2.75 0.83772zm-2.25-6.2307c0-0.92061 2.3673-2.107 4.2042-2.107 0.63011 0 0.54954 0.59177-0.20423 1.5-1.3586 1.637-4 2.0378-4 0.60699zm-6.4572-6.0378c-0.76127-1.2318 1.1255-5.0692 2.4924-5.0692 0.53065 0 0.96482 0.8449 0.96482 1.8776 0 2.3256-2.5421 4.6724-3.4572 3.1917zm-111.04-24.705c-1.1-0.22183-4.6068-0.91021-7.7928-1.5297-3.5329-0.68697-6.1454-1.7853-6.6967-2.8153-0.64309-1.2016-1.7882-1.5591-3.969-1.239-1.6858 0.24743-5.9848 0.13719-9.5533-0.24496-5.4441-0.58302-6.4882-0.99819-6.4882-2.58 0-3.6429 6.3996-5.3597 7.2898-1.9556 0.4017 1.5361 1.364 2 4.1488 2 1.9942 0 5.113 0.62141 6.9307 1.3809s3.9408 1.0369 4.7179 0.61642 3.3836-0.75552 5.7922-0.74455c3.4214 0.0156 4.4859 0.42756 4.8666 1.8836 0.57875 2.2132 1.5891 2.3698 3.1504 0.48859 0.79219-0.95453 2.5294-1.2186 5.6804-0.86342 4.0146 0.4525 4.6037 0.26471 5.0979-1.625 0.30731-1.1751 0.94042-2.1366 1.4069-2.1366 1.5387 0 3.0997 4.1422 2.4845 6.5931-0.67151 2.6755-3.0372 3.2272-3.9244 0.9152-0.77637-2.0232-5.6765-1.6032-7.9305 0.67978-0.98392 0.99653-2.1089 1.7597-2.5 1.6959s-1.611-0.2975-2.711-0.51933zm7.5194-11.844c-2.1036-2.2392-2.445-2.321-3.5244-0.8447-0.77022 1.0533-3.1924 1.8002-6.8114 2.1004-5.2908 0.43876-5.6853 0.31389-6.8104-2.1553-1.0215-2.2419-1.8219-2.621-5.5337-2.621-2.3867 0-4.3395-0.19928-4.3395-0.44284s1.0074-2.1503 2.2388-4.2372c1.6454-2.7887 2.3274-3.3339 2.5733-2.0572 0.36938 1.918 1.7279 2.2906 2.6879 0.73725 1.1446-1.8521 2.1883-1.0211 3.7679 3 1.3957 3.553 1.9434 3.9996 4.9017 3.9963 1.8318-2e-3 4.8463-0.9279 6.6991-2.0574 3.1938-1.9471 3.3341-2.2712 2.7037-6.2463s-0.57758-4.1057 1.0766-2.4616c0.96554 0.95964 2.0334 4.0788 2.3966 7 0.36031 2.898 0.99561 6.0566 1.4118 7.0191 1.0962 2.5351-0.73632 2.1463-3.4379-0.72932zm124.98-3.1659c0-1.0509 8.0148-3.6733 8.8066-2.8815 0.30803 0.30803 0.14006 0.96754-0.37328 1.4656-1.3117 1.2726-8.4333 2.4683-8.4333 1.4159zm-130.59-7.7307c-0.84721-2.2078 0.27991-3.3349 1.8074-1.8074 0.9019 0.9019 0.90574 1.4609 0.0161 2.3506s-1.3233 0.76045-1.8235-0.54313zm-62.409-4.6032c-1.3124-0.8299-1.282-1.1665 0.24286-2.6918 2.025-2.0256 4.4368-0.54257 3.4213 2.1038-0.68875 1.7948-1.5398 1.9314-3.6642 0.58807zm36.271-2.625c0.33229-0.33229 1.1948-0.36781 1.9167-0.0789 0.79773 0.31922 0.56078 0.55618-0.60417 0.60416-1.0542 0.0434-1.6448-0.19293-1.3125-0.52522zm4.7292-0.39583c0.825-0.53316 2.7048-0.97627 4.1774-0.98469 2.9662-0.017 6.8226-4.0585 6.8226-7.1502 0-1.0258 0.45-1.8651 1-1.8651 1.7451 0 1.0784 4.5388-0.99349 6.7626-1.8772 2.015-7.6803 4.2381-11.007 4.2165-1.3333-9e-3 -1.3333-0.11744 0-0.97911zm14.299-10.501c-0.0891-8.1583 0.55556-10.325 2.6806-9.0121 0.62037 0.38341 0.54914 1.2945-0.19427 2.4849-0.89117 1.427-0.89557 2.4902-0.0183 4.4156 0.85241 1.8708 0.86757 3.3986 0.0578 5.8241-1.9216 5.7559-2.4307 5.0077-2.5259-3.7125zm-31.692 5.9188c-1.8072-4.7095 1.7446-12.443 6.3923-13.918 3.2623-1.0354 2.3727-2.8246-1.0628-2.1375-2.8178 0.56355-3.0066 0.4335-2.3545-1.6212 1.3041-4.1089 3.2537-4.7055 13.918-4.2597 12.172 0.50887 14.5 1.1134 14.5 3.7656 0 1.7683-0.45687 1.9401-3.7421 1.407-2.0582-0.334-3.8957-1.0679-4.0833-1.6308-0.64901-1.947-4.1745-1.1224-4.1745 0.97642 0 1.1111 0.66667 2 1.5 2 0.825 0 1.5 0.34939 1.5 0.77643s-1.8582 0.59921-4.1294 0.38263c-5.1228-0.48855-11.118 1.4109-13.942 4.4173-1.6949 1.8041-2.0654 3.232-1.7775 6.8514 0.36196 4.5511-1.2278 6.42-2.5438 2.9905zm25.413-11.894c-0.78875-0.95039-0.86462-1.5242-0.20152-1.5242 1.2086 0 2.6176 1.8972 1.9241 2.5907-0.2517 0.2517-1.0269-0.22824-1.7226-1.0665zm110.03-3.4385c-0.77398-1.4462-0.7892-2.0856-0.0496-2.0856 1.2123 0 2.5326 2.8045 1.7084 3.6288-0.29839 0.29839-1.0448-0.39602-1.6587-1.5431zm-22.046-21.058c0-1.3556 1.7771-2.1973 2.4252-1.1487 0.30984 0.50134-0.10906 1.1696-0.9309 1.4849s-1.4943 0.16408-1.4943-0.3362zm3.6667-12.694c-1.0251-1.0251-0.79006-5.139 0.33333-5.8333 0.59512-0.3678 1 0.82295 1 2.941 0 3.6546-0.1802 4.0455-1.3333 2.8924zm3.3333-11.274c0-0.58246 0.45-1.059 1-1.059s1 0.19844 1 0.44098-0.45 0.7191-1 1.059-1 0.14148-1-0.44098zm33-7.5c0-0.85746 0.45-1.559 1-1.559s1 0.42344 1 0.94098-0.45 1.2191-1 1.559-1-0.0835-1-0.94098zm-130.74 581.81c0.97049-0.2813 1.5471-0.86325 1.2814-1.2932-0.48953-0.79208 3.6677-3.0742 5.6-3.0742 1.6219 0 7.8541-3.1366 7.8541-3.953 0-0.84185-6.0207-0.76743-7.5 0.0927-0.55 0.3198-2.7333 0.36461-4.8517 0.0996-3.1819-0.39808-4.0689-1.026-5.1005-3.6106-0.68683-1.7208-1.0457-5.0209-0.79757-7.3336 0.44112-4.1106 0.5218-4.1915 3.6005-3.6092 1.7321 0.32764 3.8243 0.93323 4.6493 1.3458s5.7478 1.2984 10.94 1.9687c14.528 1.8754 24.3 5.1625 29.866 10.046 2.582 2.2654 4.9195 4.9944 5.1945 6.0643 0.44125 1.7167 1.6592 2.0039 10.365 2.4441 10.236 0.51757 12.635-0.14345 12.635-3.4814 0-0.92476-1.6134-3.2322-3.5853-5.1276s-4.1361-4.5712-4.8094-5.9462c-2.026-4.138-0.80186-18.7 2.0386-24.25 0.81763-1.5976 0.98287-2.75 0.39432-2.75-1.4446-2e-5 -8.0382 13.466-8.0382 16.416 0 1.3563 0.45 2.7441 1 3.084s1 1.2657 1 2.0573c0 2.9027-14.111 0.0369-20.531-4.1697-1.4269-0.93491-2.6766-2.9786-3.055-4.9959-0.79852-4.2565-2.0134-5.1226-2.7984-1.9951-0.798 3.1795-3.1166 3.9127-6.629 2.0963-1.5878-0.8211-3.4718-1.5034-4.1866-1.5161-1.5943-0.0285-8.7997-6.3969-8.7997-7.7776 0-0.54851 1.8422-1.9575 4.0938-3.1311 3.4518-1.7992 6.8009-4.5224 14.294-11.623 0.61199-0.57992 5.1627-4.1355 10.113-7.9012 14.507-11.036 15.071-11.719 18.559-22.466 2.2895-7.0546 3.3234-12.608 3.9244-21.078 0.89869-12.664 5.7662-57.861 6.4169-59.583 0.97646-2.5846 3.7419-25.686 5.6163-46.917 2.117-23.978 2.6969-28.335 3.9933-30 0.42828-0.55 0.0105-4.0284-0.92848-7.7297-1.7545-6.9164-3.0783-9.5713-3.0849-6.187-2e-3 1.0542-0.89195 3.3734-1.9776 5.1539-1.2449 2.0418-1.7874 4.2575-1.4691 6 0.70166 3.841-0.61085 5.3272-5.255 5.9501-3.7317 0.50053-4.1382 0.30181-6.1974-3.0301-2.0165-3.2628-2.4148-3.4696-4.6874-2.4341-1.971 0.89807-2.7847 0.83056-3.9424-0.3271-1.2148-1.2148-1.2509-2.0092-0.21588-4.7514 1.1908-3.1549 1.1017-3.4078-2.1307-6.046-3.0332-2.4755-3.7489-2.6531-7.0941-1.7602-5.2727 1.4074-7.2786 0.43118-6.3013-3.0664 0.42601-1.5246 0.68799-5.2784 0.58217-8.3419l-0.19238-5.57 4.1902-0.93004c6.0162-1.3353 6.3301-4.2001 0.50622-4.6195-5.3776-0.38728-5.8574-2.2319-2.8118-10.81l2.1366-6.0178-3.0682-3.0682c-1.6875-1.6875-3.0682-3.4413-3.0682-3.8972s-1.1215-0.30883-2.4922 0.32693c-2.8852 1.3382-2.9684 2.2426-1.3943 15.156 1.6705 13.704 1.8529 21.181 0.74418 30.5-0.88105 7.4056-0.74775 9.5859 1.0354 16.934 2.2411 9.2354 1.8075 11.066-2.6211 11.066-1.3658 0-3.8205 1.1252-5.4549 2.5006s-4.7112 2.7787-6.8372 3.1187c-3.8446 0.61478-3.8693 0.6484-4.5658 6.2234-0.38519 3.0829-0.086 14.617 0.66476 25.631 1.6979 24.908 1.8956 72.621 0.3092 74.623-0.61166 0.77178-1.4321 2.7532-1.8231 4.4032-1.1527 4.8638-6.4986 14.66-9.1292 16.729-1.3395 1.0537-2.4355 2.4537-2.4355 3.1112s-2.1997 5.4624-4.8881 10.677-5.6426 11.721-6.5647 14.457-2.1362 5.5293-2.698 6.2062c-1.5378 1.8529-0.0956 3.3183 3.2659 3.3183 6.408 0 21.885 9.5445 21.885 13.496 0 3.2392-2.1068 4.5561-8.3143 5.1968l-5.4525 0.56275-0.68864 6.9886-0.68864 6.9886-4.7646 2.013c-3.908 1.6511-4.6907 2.3992-4.3538 4.1615 0.8377 4.3822-4.25 6.0871-24.455 8.1949-5.0361 0.52539-6.5128 1.0997-7.773 3.0232-1.8211 2.7793-2.4895 2.6576 13.99 2.5481 8.658-0.0575 9.5303 0.0808 6.5 1.0306-1.925 0.60339-6.3562 1.208-9.8472 1.3437s-6.866 0.79028-7.5 1.4548c-0.89369 0.93661-0.47853 1.0715 1.8472 0.60008 1.65-0.33443 4.322-0.24445 5.9378 0.19995 3.2914 0.90527 28.085 1.3596 30.827 0.56486zm145.21-0.32772c0.72735-1.1769-5.1342-13.04-6.443-13.04-1.1189 0-5.0324 8.5234-5.0324 10.96 0 0.93842 0.3 2.0062 0.66667 2.3729 1.0333 1.0333 10.142 0.78589 10.809-0.29359zm99.525 0.091c37.729 0.55868 56.246 0.44059 59.16-0.37726l2.6602-0.74653 0.43548-39.253c0.49727-44.825-0.10492-317.4-0.73246-331.54-0.22791-5.1345-0.66328-32.145-0.9675-60.024-1.6038-146.97-1.7839-153.41-4.4918-160.52-0.59319-1.5586-0.84296-3.2151-0.55505-3.6809 1.1086-1.7938-2.3412-2.2722-19.384-2.6878-9.6936-0.2364-18.75-0.48942-20.125-0.56227s-7.225 0.21436-13 0.63825c-19.079 1.4004-22.162 1.4755-65.721 1.6006-23.772 0.0683-43.463 0.51577-43.759 0.99445-0.61942 1.0022 2.1214 4.0316 3.6476 4.0316 0.56331 0 2.2568 0.87772 3.7634 1.9505s3.826 2.1496 5.1544 2.393 4.6652 1.1337 7.4152 1.9785 6.2375 1.8015 7.75 2.126c3.038 0.65183 3.7626 2.5293 1 2.5911-0.98635 0.0221-0.29092 0.67274 1.5937 1.4911 2.819 1.2241 3.6458 1.2403 5.2693 0.10321 1.0591-0.74181 3.0711-1.1298 4.4712-0.86213 2.9633 0.56646 13.416 10.466 13.416 12.707 0 0.83712 0.45 1.522 1 1.522s1.003 1.2375 1.0066 2.75 0.90066 4.1 1.9934 5.75 1.9898 3.7734 1.9934 4.7186c4e-3 1.0602 0.54246 1.513 1.4054 1.1818 2.1855-0.83865 2.4891 0.48799 2.937 12.834 0.23069 6.3584 0.68836 11.996 1.017 12.528s-1.6378 5.4154-4.3699 10.852-4.971 10.442-4.9753 11.122c-0.0112 1.8034-7.2063 8.2047-9.2577 8.2364-0.9625 0.0149-1.75 0.44131-1.75 0.9476s-1.3877 1.2254-3.0838 1.5979c-2.6008 0.57122-2.9938 1.036-2.5091 2.9673 0.48889 1.9479 0.12712 2.3557-2.4218 2.7298-4.034 0.59207-4.6615-0.3174-1.2588-1.8245 2.6018-1.1524 2.632-1.2335 0.48843-1.3097-1.2568-0.0447-3.3847 0.6392-4.7285 1.5197-1.9921 1.3052-2.3488 2.196-1.9313 4.823 0.28163 1.7721-0.19777 7.0142-1.0653 11.649s-1.985 17.877-2.4831 29.427c-0.51353 11.907-1.5256 23.381-2.3375 26.5-0.78752 3.025-1.7374 7.3-2.1109 9.5s-1.0667 5.35-1.5405 7-1.6093 5.7-2.5233 9-3.1674 9.15-5.0076 13c-3.2962 6.8962-11.487 31.064-11.487 33.894 0 1.3505 9.9202 10.606 11.368 10.606 1.325 0 15.619 12.178 19.593 16.693 8.1733 9.2853 15.255 23.14 19.43 38.009 0.64872 2.3108 1.5013 4.5234 1.8946 4.9167s0.71512 1.5026 0.71512 2.4651 0.33792 1.9 0.75094 2.0833c1.5167 0.67325 4.4474 14.588 4.9143 23.333 0.33111 6.2021-0.0367 11.487-1.1832 17-0.91505 4.4-1.888 11.15-2.1622 15s-0.86535 7.45-1.3138 8c-1.3276 1.6282-4.0016 21.899-4.0605 30.78-0.0579 8.731-1.5175 18.686-4.8399 33.009-2.1757 9.38-1.6841 17.254 1.2888 20.641 0.75771 0.86323 2.5615 3.932 4.0085 6.8195s3.0166 5.25 3.488 5.25 2.8264 3.9292 5.2332 8.7316 4.9177 9.4149 5.5798 10.25 2.6871 3.7684 4.5 6.5184l3.2962 5 11.287 0.2831c11.244 0.28201 11.291 0.29357 12.357 3 3.3036 8.3886 5.8553 15.896 5.8553 17.227 0 0.89801 2.7595 2.8046 6.7501 4.6639 12.83 5.9774 14.858 8.8201 13.281 18.613-1.1337 7.0399-3.0932 9.3578-10.178 12.04-2.5558 0.9677-5.6763 2.6522-6.9344 3.7433-2.9782 2.583-6.5023 3.422-9.2323 2.1979-1.9004-0.85208-2.4478-0.51899-4.1863 2.5475-2.5136 4.4337-9.6808 8.5978-13.488 7.8363-4.34-0.868-13.205-5.4163-16.898-8.6697-1.862-1.6405-4.2397-2.9827-5.2837-2.9827s-3.2389-1.3715-4.8775-3.0478c-2.477-2.534-3.0836-2.7761-3.5978-1.4362-0.34013 0.88637-0.0861 2.5954 0.56448 3.7978s1.9742 3.6818 2.9413 5.5097 2.2076 3.6279 2.7565 4c1.9534 1.324 4.3822 5.6558 4.3822 7.8157 0 1.2068 0.5625 2.422 1.25 2.7004s5.975 0.2637 11.75-0.0327 21.525-0.37564 35-0.17611zm-65.968-478.58c-1.1722-1.8966-3.0089-3.7269-4.0816-4.0674-2.2093-0.70121-2.6478-2.4842-0.61098-2.4842 1.529 0 8.6606 7.3752 8.6606 8.9564 0 2.1017-1.8914 0.95543-3.9681-2.4048zm7.2389 1.8442c0.33229-0.33229 1.1948-0.36781 1.9167-0.0789 0.79773 0.31922 0.56078 0.55618-0.60417 0.60416-1.0542 0.0434-1.6448-0.19293-1.3125-0.52522zm-69.271 474.1c0-1.375 0.525-2.5 1.1667-2.5s0.87754-0.28913 0.52416-0.6425-1.3284-0.0733-2.1667 0.62244c-1.7012 1.4119-2.078 5.0201-0.52417 5.0201 0.55 0 1-1.125 1-2.5zm35.5 1.5c-0.33992-0.55-0.81648-1-1.059-1s-0.44098 0.45-0.44098 1 0.47656 1 1.059 1 0.7809-0.45 0.44098-1zm33.5 0c0-0.55-0.45-1-1-1s-1 0.45-1 1 0.45 1 1 1 1-0.45 1-1zm-96-1.441c0-0.79254-0.424-1.703-0.94222-2.0233-1.9533-1.2072-2.3922-9.6113-0.68847-13.184 1.7967-3.7678 2.2503-10.853 0.63069-9.8517-0.55 0.33992-1.0028 1.604-1.0062 2.809s-0.67839 3.4799-1.5 5.0553-1.4938 4.0677-1.4938 5.5386-0.9 4.4395-2 6.5971c-2.4436 4.793-2.4626 4.3785 0.25 5.4688 3.4955 1.405 6.75 1.2074 6.75-0.40982zm99-3.559c0-0.55-0.45-1-1-1s-1 0.45-1 1 0.45 1 1 1 1-0.45 1-1zm-246.52-3.3944c-1.6566-2.5283-5.4772-2.5718-5.4772-0.0623 0 1.2972 1.8457 2.1164 5.273 2.3407 1.6419 0.10742 1.657-0.0611 0.20419-2.2784zm94.523 1.3424c0-1.0965-2.4752-1.6419-10.75-2.3685-5.314-0.46662-6.25-0.30687-6.25 1.0667 0 1.2597 0.71588 1.5042 3.25 1.11 1.7875-0.27805 4.0392-0.22443 5.0037 0.11916 2.838 1.011 8.7463 1.0601 8.7463 0.0727zm75.57-3.314c-1.417-9.3166-1.741-10.634-2.6158-10.634-1.0296 0-1.3319 10.853-0.37193 13.355 1.0896 2.8396 3.4996 0.64466 2.9877-2.7211zm16.709 2.3264c-0.29336-1.1218-0.75683-1.8162-1.0299-1.5431-0.541 0.54099 0.41459 3.5828 1.1255 3.5828 0.24077 0 0.19774-0.91785-0.0956-2.0397zm44.177-4.0965c-0.60337-1.9011-0.39066-2.064 1.9326-1.481 2.545 0.63877 2.6106 0.53356 2.6106-4.189 0-4.7562-0.10247-4.9155-5.6427-8.7691-3.1035-2.1587-7.7626-5.8374-10.354-8.1748s-5.0018-4.25-5.3573-4.25c-1.8463 0-0.21807 3.2564 2.8537 5.7074 1.925 1.536 3.5 3.2638 3.5 3.8397s1.8 2.8047 4 4.953c3.6717 3.5853 4 4.3407 4 9.203 0 4.143 0.34147 5.297 1.5674 5.297 1.1456 0 1.3849-0.57483 0.88939-2.1362zm-50.457-0.80481c0-1.0675-0.40432-2.1909-0.89848-2.4963-2.014-1.2447-6.0984-16.839-6.3152-24.111-0.12221-4.0982-0.59713-7.4514-1.0554-7.4514-0.94795 0-0.274 28.08 0.77271 32.195 0.65901 2.5905 1.9816 3.4396 5.7464 3.6891 1.1054 0.0733 1.75-0.5989 1.75-1.825zm100.32-4.3591c1.8577-3.6004 0.26605-7.4812-3.2427-7.9064-1.3326-0.16147-2.5958-0.82068-2.8071-1.4649-0.24636-0.75106 0.37241-0.97345 1.7246-0.61985 1.8849 0.49292 2.0365 0.24567 1.428-2.3287-0.82187-3.4768-1.2389-3.9482-4.319-4.8816-2.1688-0.65727-2.3261-0.50172-1.6567 1.6376 0.40682 1.3001 0.8132 3.2638 0.90306 4.3638s0.44277 2.45 0.78426 3 1.381 3.6475 2.31 6.8833c1.7413 6.0648 2.3419 6.227 4.8756 1.3166zm-139.43-4.6999-0.0406-3.5-1.3478 3.5c-0.74131 1.925-1.3661 4.625-1.3885 6l-0.0406 2.5 1.4291-2.5c0.78602-1.375 1.4108-4.075 1.3885-6zm-5.5816 0.75c1.7698-6.8972 3.2582-17.572 2.3266-16.687-1.2753 1.2114-6.6335 15.341-6.6335 17.493 0 2.7909 0.95454 5.4442 1.9586 5.4442 0.40952 0 1.4663-2.8125 2.3484-6.25zm70.806 2.9625c-0.81667-0.81667-1.1125-0.70476-1.1125 0.42083 0 1.9879 1.3447 3.3326 1.8417 1.8417 0.21083-0.6325-0.1173-1.6506-0.72917-2.2625zm-18.114 1.5375c-2e-3 -1.2794-4.9754-6.6068-5.592-5.9901-0.68988 0.68988 3.602 6.7401 4.7813 6.7401 0.44657 0 0.81139-0.3375 0.81072-0.75zm14.011-4.3764c4.3946-2.2695 7.9901-4.4795 7.9901-4.9111 0-1.1266-5.9317-5.9608-7.3267-5.9712-0.6453-5e-3 -2.8307-1.5798-4.8565-3.5-3.3266-3.1533-5.8168-4.4104-5.8168-2.9365 0 1.6605 4.1393 9.2612 5.9224 10.875 2.6942 2.4382 2.6309 3.5702-0.19971 3.5702-2.5986 0-6.232-3.7805-10.293-10.71-3.1629-5.397-4.1795-4.3628-2.4771 2.5201 1.1901 4.8116 6.8392 15.19 8.2682 15.19 0.43921 0 4.3941-1.8569 8.7887-4.1264zm20.99 1.5674c0-0.85746-0.45734-1.2764-1.0163-0.9309s-0.75742 1.047-0.44098 1.559c0.85723 1.387 1.4573 1.1284 1.4573-0.62812zm-222.19-5.3431c0.16897-2.9609-0.16853-5.8592-0.75-6.4406s-1.0572-1.8672-1.0572-2.8572c0-2.8286-1.6274-2.1106-3.2864 1.45-1.76 3.7773-1.4718 11.646 0.47244 12.9 2.9592 1.9082 4.3082 0.43349 4.6212-5.0523zm13.863 3.7094c0.89269-0.70159 0.88459-1.9063-0.0341-5.0795-1.0366-3.5805-1.687-4.2642-4.6702-4.9096-1.9062-0.41244-3.9618-0.57993-4.5679-0.3722-1.6114 0.55228-2.6426 9.5544-1.2822 11.194 1.2053 1.4523 8.366 0.88763 10.554-0.83232zm-22.045-2.9322c-0.34375-1.7188-0.625-3.9529-0.625-4.9648s-0.96892-2.3584-2.1532-2.9922c-2.1048-1.1265-2.1395-1.037-1.5443 3.9886 0.70762 5.9748 1.2409 7.0933 3.3815 7.0933 1.2206 0 1.4281-0.68929 0.94098-3.125zm36.177-2.625c0.25201-4.3772 0.0219-5.25-1.384-5.25-3.2748 0-9.4183 2.3329-9.4183 3.5765 0 0.69296-0.25088 1.9137-0.55751 2.7128-0.99991 2.6057 2.433 4.8408 6.9304 4.5122l4.1271-0.30149 0.30226-5.25zm13.634 2.5971c1.6741-0.76278 2.7052-2.201 3.0467-4.25 1.679-10.072 2.2236-9.4012-5.4405-6.7022-4.524 1.5932-5.6096 2.4688-6.8186 5.5-0.79087 1.9829-1.1789 4.2802-0.86236 5.1051 0.69559 1.8127 6.4248 2.01 10.075 0.34702zm86.957-0.42885c0.33385-0.86998 0.60699-2.9108 0.60699-4.5352s0.65226-3.9501 1.4495-5.1682 1.7327-4.2398 2.0789-6.7148l0.62943-4.5-1.9848 2.451c-1.0916 1.348-2.7581 4.948-3.7033 8s-2.1384 6.3718-2.6515 7.3774c-0.6196 1.2142-0.53667 2.3059 0.24688 3.25 1.5348 1.8493 2.5761 1.7992 3.328-0.16015zm-76.335-5.0007c0.65873-3.4431-0.76514-8.4204-2.406-8.4105-1.1786 7e-3 -2.0564 8.3356-1.1411 10.826 0.80179 2.1817 2.947 0.72075 3.5471-2.4157zm114.76-0.74462c0.34258-2.8938-1.2213-3.6661-2.2094-1.0911-0.99905 2.6035-0.68967 4.612 0.64301 4.1744 0.6875-0.22574 1.3924-1.6132 1.5664-3.0833zm67.684 0.46656c-1.65-1.0192-3.895-2.8592-4.9888-4.0889s-2.7814-2.66-3.75-3.1784c-3.0435-1.6288-2.0233 1.0051 1.9888 5.1348 2.6479 2.7255 4.6317 3.8783 6.75 3.9227l3 0.0628-3-1.8531zm10.5-1.1985c0-0.51754-0.66088-0.94098-1.4686-0.94098-0.89208 0-1.2435 0.5866-0.89521 1.4943 0.59029 1.5383 2.3638 1.1232 2.3638-0.55328zm-34.497-0.9356c-0.69168-1.1192-4.5033-3.33-4.5033-2.612 0 0.25506 0.70714 1.1709 1.5714 2.0352 1.7293 1.7293 3.9092 2.1582 2.9319 0.57681zm-121.68-4.3286c0.30572-1.5875 0.10029-1.6463-1.7385-0.49797-2.5332 1.582-2.7321 3.0924-0.34668 2.633 0.95618-0.18414 1.8945-1.1449 2.0852-2.135zm164.91 0.6369c0.39469-1.203-11.238-9.2542-13.426-9.2927-2.5321-0.0446-2.4067 2.2676 0.27472 5.0664 1.9077 1.9912 3.4014 2.7347 4.6794 2.3291 1.3584-0.43113 2.0321-3e-3 2.4377 1.5477 0.4187 1.6011 1.2037 2.0666 3.1027 1.8397 1.3982-0.1671 2.7173-0.83763 2.9314-1.4901zm-249.24-1.5637c0.29283-1.2375 0.97159-8.775 1.5084-16.75s1.3893-17.65 1.8946-21.5c1.0358-7.8931 4.6392-24.37 5.5227-25.253 1.8773-1.8773-0.54528 21.658-2.9082 28.253-2.0768 5.7966-3.0232 36.5-1.1251 36.5 2.2638 0 3.5058-2.336 4.0161-7.5537 0.26606-2.7205 1.0152-7.4213 1.6647-10.446 0.64954-3.025 1.9494-10.225 2.8886-16s2.4083-12.075 3.2648-14c2.1918-4.9264 3.0146-12.668 1.9421-18.273-0.75767-3.9595-0.49424-6.1745 1.5461-13 3.593-12.02 4.1421-13.062 4.2232-8.0148 0.0372 2.3169-0.8723 6.7248-2.0212 9.7954-1.8341 4.9021-1.9469 6.1746-0.92478 10.435 0.87225 3.6359 0.88046 5.8181 0.0328 8.7046-0.62221 2.1187-1.7496 7.2272-2.5053 11.352s-1.8141 9.3-2.352 11.5c-2.989 12.226-3.6656 29.5-1.1555 29.5 1.496 0 2.7824-2.5959 3.4691-7 1.1266-7.2259 3.5011-14.736 5.0711-16.039 1.8381-1.5255 1.8415-0.31282 0.0138 4.8674-1.6497 4.6757-3.7901 21.991-2.897 23.436 0.58413 0.94515 7.98 0.42549 9.0408-0.63523 0.29645-0.29644 0.69603-5.7558 0.88796-12.132s0.59988-11.999 0.90655-12.495c1.5638-2.5302 4.4232-16.432 3.4975-17.005-0.59284-0.36639 0.0304-1.6134 1.4932-2.9876 1.3809-1.2973 2.5107-3.1802 2.5107-4.1844s0.8068-2.6325 1.7929-3.6186c3.3042-3.3042 4.1754-7.6153 4.6897-23.207 0.2812-8.525 0.79371-18.346 1.1389-21.825 1.1091-11.178 2.4491-5.1508 2.4257 10.91-0.0236 16.237-1.5317 26.672-4.5119 31.221-3.1514 4.8097-1.4099 5.9124 2.9706 1.881 7.4065-6.8162 7.426-6.8621 7.948-18.751 0.90633-20.643 1.8167-31.386 2.6177-30.891 0.44111 0.27262 0.86731 4.1992 0.94712 8.7257s0.18467 9.355 0.23303 10.73-0.2243 5.425-0.6059 9l-0.69382 6.5 2.0178-2.5c5.9329-7.3506 6.9574-29.339 4.1123-88.256-0.69874-14.47-1.2352-17.924-2.5752-16.584-1.2181 1.2181-2.4916 11.892-2.5268 21.177-0.1504 39.713-0.48158 48.551-1.7302 46.169-1.5306-2.9192-1.8563-23.246-0.57691-36.006 0.49628-4.95 0.72941-13.388 0.51805-18.75l-0.38428-9.75h-3.3565c-2.9687 0-3.4653 0.39415-4.2986 3.412-0.53133 1.9243-0.73351 13.37-0.46368 26.25 0.26313 12.561 0.0479 25.988-0.4784 29.838l-0.95683 7-0.19705-9.5c-0.10839-5.225-0.29519-19.732-0.41513-32.239-0.12417-12.947-0.63207-23.129-1.1794-23.645-1.182-1.114-10.74-3.171-11.449-2.464-0.28199 0.28131-0.67233 4.5874-0.86742 9.569-0.41631 10.631-2.099 10.064-2.1436-0.72169-0.0437-10.57-0.4034-11.341-4.9065-10.517-6.1431 1.1234-6.3802 1.4983-5.6222 8.8903 0.37376 3.6449 1.2937 9.5521 2.0444 13.127 5.0077 23.85 5.3015 58.478 0.47078 55.493-0.54746-0.33835-0.54103-1.5381 0.0161-3.0035 2.7142-7.1389 1.6264-36.726-1.7644-47.989-0.82792-2.75-1.8686-7.475-2.3127-10.5s-1.3779-7.6-2.0752-10.167c-1.342-4.9398-2.8704-5.8334-9.9768-5.8334-3.4949 0-3.6418 1.3756-0.9647 9.0347 1.0507 3.0059 2.4181 8.3903 3.0388 11.965 0.62068 3.575 1.6011 8.8974 2.1788 11.828 0.94604 4.7989 0.56546 8.5135-0.51899 5.0655-0.24099-0.76622-1.1516-3.6108-2.0235-6.3213s-1.5839-5.8605-1.5822-7c3e-3 -2.2097-3.2135-14.288-5.679-21.322-1.2976-3.7023-1.8696-4.25-4.4383-4.25-4.0834 0-4.5006 1.9847-2.0111 9.5683 1.1688 3.5605 2.1151 7.7017 2.1029 9.2027l-0.0222 2.729-1.9555-2.5-1.9555-2.5-0.0222 3.1849c-0.0122 1.7517 0.37969 4.242 0.87093 5.5341 0.95986 2.5246 6.869 36.999 7.3291 42.758 0.19483 2.439 0.94914 3.8099 2.5265 4.5916 4.1628 2.0629 11.251 8.6227 11.251 10.412 0 2.3112-2.5611 4.4015-4.4873 3.6623-0.83203-0.31927-1.5128-1.3178-1.5128-2.2189 0-1.0324-0.54499-1.4292-1.4736-1.0729-0.81502 0.31275-1.9094-0.19806-2.4487-1.143-0.89133-1.5616-1.2153-1.5766-3.7694-0.1741-2.9437 1.6164-4.666 5.4238-1.9888 4.3965 1.0327-0.39629 1.9706 0.76213 3.1792 3.9267 2.2444 5.877 1.2461 7.447-2.6504 4.1683-1.651-1.3892-3.4014-2.5258-3.8898-2.5258-1.757 0-3.1348-4.2465-2.4911-7.6779 0.49946-2.6623 1.3332-3.7053 3.5915-4.4925 3.2284-1.1254 3.7595-2.9054 1.4411-4.8296-1.0437-0.86621-1.5-3.1669-1.5-7.5634 0-3.4752-0.45-6.5966-1-6.9366-0.55608-0.34368-1.0017 0.40698-1.0037 1.691-2e-3 1.27-0.85299 3.7017-1.891 5.4039-1.1534 1.8915-1.6899 4.1273-1.3797 5.75 0.37358 1.9543 0.0964 2.6551-1.05 2.6551-0.85665 0-1.8357-0.45-2.1756-1-0.95485-1.545-3.5-1.1814-3.5 0.5 0 0.825-0.4116 1.5-0.91467 1.5s-1.0971 2.8125-1.3201 6.25c-0.41069 6.3318-3.0304 20.7-4.799 26.321-0.53145 1.689-0.96628 4.0811-0.96628 5.3157s-0.43462 3.0568-0.96582 4.0494c-1.3252 2.4761-2.4065 16.064-1.2784 16.064 0.80112 0 2.8928-8.3768 4.8067-19.25 0.36304-2.0625 1.06-3.75 1.5488-3.75 1.1586 0 1.1555 6.316-4e-3 7.55-0.49083 0.5225-1.2091 5.7875-1.5962 11.7l-0.7038 10.75h2.9827c2.7938 0 3.0269-0.30088 3.68-4.75 0.38354-2.6125 1.7846-8.9618 3.1135-14.109 1.3907-5.3859 2.4165-12.222 2.4165-16.101 0-7.2597 1.4872-13.04 3.3552-13.04 0.80977 0 1.0699 2.4888 0.86234 8.25-0.28892 8.0191-0.88511 12.612-3.7972 29.25-0.77009 4.4-1.6894 11.42-2.0429 15.6-0.71908 8.5027 0.29054 20.9 1.7021 20.9 0.50623 0 0.9241-3.4875 0.92861-7.75 7e-3 -6.7184 1.1871-20.272 2.4596-28.25 0.2193-1.375 0.70883-5.1132 1.0878-8.3071 0.91467-7.7078 2.9122-14.363 3.8538-12.84 0.40503 0.65535 0.0681 3.3189-0.74879 5.9191-2.2592 7.1911-3.9144 24.766-4.1888 44.478l-0.24713 17.75h2.3686c1.6319 0 2.5342-0.6998 2.901-2.25zm27.506-39.75c0-0.55 0.42344-1 0.94098-1s1.2191 0.45 1.559 1-0.0835 1-0.94098 1-1.559-0.45-1.559-1zm1-4.941c0-1.1325 0.45-2.059 1-2.059s1 0.64844 1 1.441-0.45 1.7191-1 2.059-1-0.30852-1-1.441zm3.146-13.059c-0.0623-1.606 1.2999-12.395 2.9039-23 0.54073-3.575 1.2496-9.2 1.5753-12.5s1.0346-6.45 1.5754-7c1.127-1.1464 0.48534 12.393-1.0427 22-1.4009 8.8077-4.9089 23.156-5.0119 20.5zm-48.131-12.691c8e-3 -0.44496 0.45153-1.484 0.98469-2.309 0.8354-1.2927 0.97149-1.2663 0.98469 0.19098 8e-3 0.93004-0.43469 1.9691-0.98469 2.309s-0.99311 0.25398-0.98469-0.19098zm27.064-7.7257c-0.0434-1.0542 0.19292-1.6448 0.52522-1.3125s0.36781 1.1948 0.0789 1.9167c-0.31922 0.79773-0.55618 0.56078-0.60416-0.60417zm-23.369-9.5833c0.28766-1.1 0.69553-2 0.90638-2s0.38337 0.9 0.38337 2-0.40787 2-0.90638 2-0.67103-0.9-0.38337-2zm28.253-13.583c-0.0202-0.50417-0.23266-5.3816-0.4721-10.839-0.25659-5.8478-0.0679-9.5435 0.45943-9 1.0764 1.1093 1.7478 19.057 0.75018 20.055-0.38541 0.38541-0.71729 0.28824-0.73751-0.21592zm-9.0398-5.6667c-1.1551-3.7744-2.0343-22.355-0.97678-20.643 1.1346 1.8367 2.686 20.893 1.7009 20.893-0.35618 0-0.68203-0.1125-0.72411-0.25zm28.958-8.3c-0.0651-1.6225-0.10373-3.175-0.0858-3.45s-0.5554-5.296-1.2741-11.158-0.98853-12.162-0.59953-14l0.70727-3.3422 1.1043 3.5c2.472 7.8344 3.414 28.252 1.3965 30.27-0.84036 0.84036-1.1606 0.3736-1.2487-1.8197zm-21.192-9.818c-0.43255-1.5774-0.53956-3.1149-0.23779-3.4167 1.0431-1.0431 1.6979 0.6125 1.3617 3.4432l-0.33745 2.8414-0.78646-2.868zm-14.689-21.132c-0.65963-1.9987-0.97433-3.859-0.69933-4.134s1.0397 1.1353 1.6993 3.134 0.97433 3.859 0.69933 4.134-1.0397-1.1353-1.6993-3.134zm172.48 136.66c-0.48567-6.3247-1.0115-8.9719-1.522-7.6628-0.93877 2.4072-0.50164 15.211 0.61279 17.949 1.3784 3.3865 1.6891-0.12967 0.90918-10.287zm-66.483 8.2191c0-0.825-0.45-1.2219-1-0.88197s-1 1.293-1 2.118 0.45 1.2219 1 0.88197 1-1.293 1-2.118zm155.54 0.67745c-0.36495-0.5905-2.0975-1.8082-3.8501-2.7061s-3.5483-2.1321-3.9904-2.7429c-0.48503-0.67012-0.67875-0.32194-0.48851 0.87805 0.17338 1.0937 1.1384 2.147 2.1446 2.3408s2.726 1.2489 3.8218 2.3448c1.9916 1.9916 3.6156 1.9127 2.3626-0.11473zm18.463-0.16641c0-0.49115-1.1801-0.89301-2.6224-0.89301-2.1696 0-2.416 0.24876-1.4269 1.4406 1.2153 1.4643 4.0493 1.0811 4.0493-0.54755zm-50 0.10699c0-0.55-0.47656-1-1.059-1s-0.7809 0.45-0.44098 1 0.81648 1 1.059 1 0.44098-0.45 0.44098-1zm64.486-2.2074c2.4829-0.66408 4.5108-1.4516 4.5066-1.75-0.011-0.76174-5.1014-3.0426-6.7904-3.0426-1.3269 0-3.4059-0.81385-12.702-4.9724-2.2-0.98417-6.1375-2.5791-8.75-3.5444s-4.75-2.1438-4.75-2.6191-0.66824-0.86414-1.485-0.86414-3.679-1.35-6.3606-3-5.2758-3.0076-5.765-3.0169c-1.5911-0.0303-10.389-8.8848-10.389-10.456 0-1.2666-1.2602-2.0274-2.25-1.3583-0.78336 0.52949-4.75-2.455-4.75-3.5739 0-0.734-0.94232-4.2057-2.094-7.7148s-2.9362-9.5303-3.9655-13.38c-1.5905-5.9491-1.7946-6.3022-1.36-2.3518 0.28131 2.5565 1.609 8.1815 2.9505 12.5s2.4457 9.0228 2.454 10.454c0.0418 7.2482 13.917 18.213 41.371 32.694 4.4795 2.3627 8.8034 4.9502 9.6088 5.75 1.7828 1.7704 4.5792 1.836 10.521 0.24671zm-307.5-1.5426c-8e-3 -0.9625-0.28251-2.753-0.61111-3.9789-0.55014-2.0524-0.76468-2.1118-2.7088-0.75-1.1613 0.81338-2.8847 1.4789-3.8299 1.4789s-2.0118 0.47469-2.3704 1.0549c-0.42494 0.68757 0.68614 0.94872 3.191 0.75 3.1957-0.25353 3.7934-0.0101 3.5491 1.4451-0.17426 1.0379 0.33441 1.75 1.25 1.75 0.84911 0 1.5377-0.7875 1.5302-1.75zm230.01 0.25c0-0.825-0.45-1.5-1-1.5s-1 0.675-1 1.5 0.45 1.5 1 1.5 1-0.675 1-1.5zm53 0.54804c0-1.1468-8.3819-7.048-10.011-7.048-1.4201 0-11.989-6.9377-11.989-7.8698 0-0.37145-1.4676-1.4657-3.2613-2.4317s-4.1194-3.033-5.1682-4.5935-3.0054-3.2349-4.3481-3.7211c-2.676-0.9689-5.094-6.1208-8.2546-17.587-1.0162-3.6869-2.3248-7.5948-2.9078-8.6843s-1.0601-3.1088-1.0601-4.4876-0.50918-2.8214-1.1315-3.206c-1.7186-1.0621-0.23507 10.195 2.9694 22.532 2.7058 10.417 2.7305 10.462 7.7619 14 2.7761 1.9522 6.1117 4.562 7.4124 5.7995s2.6484 2.25 2.9948 2.25 2.399 1.5746 4.5614 3.4992 4.439 3.4996 5.0592 3.5 1.6878 0.67578 2.3724 1.5008 2.0674 1.5 3.0728 1.5 2.1877 0.56335 2.6276 1.2519c0.75005 1.1742 6.8998 4.5435 8.5497 4.6842 0.4125 0.0352 0.75-0.36443 0.75-0.88801zm-92.482-3.9651c-0.36965-1.683-1.0823-3.3136-1.5837-3.6234s-0.72935 0.0225-0.50659 0.73853 0.68951 2.5925 1.0372 4.1699 0.87811 2.6221 1.1787 2.3215 0.24405-1.9235-0.12561-3.6065zm-14.518 0.0662c0-1.5679 0.41529-4.1554 0.92286-5.75s1.1982-4.5614 1.5347-6.5929c0.40279-2.4314 1.2728-3.9034 2.546-4.3075 2.7609-0.87627 5.5289-11.499 2.9964-11.499-0.55 0-1 0.6608-1 1.4684s-1.9 5.1861-4.2222 9.7299c-3.4102 6.6726-4.2467 9.3712-4.3495 14.032-0.07 3.1736 0.25503 5.7701 0.72224 5.7701s0.84946-1.2828 0.84946-2.8508zm143.54 0.91731c-0.36254-0.58659-1.1377-1.0665-1.7226-1.0665-0.6631 0-0.58723 0.57378 0.20152 1.5242 1.3715 1.6526 2.5973 1.2838 1.5211-0.45764zm-182.57-3.9389c-0.0336-2.9017-1.0979-1.6787-2.4929 2.8646-0.68505 2.2311-0.59296 2.3492 0.87903 1.1276 0.90434-0.75053 1.6306-2.547 1.6138-3.9922zm87.727 1.1149c-1.5322-1.5322-2.697-2.1282-2.697-1.38 0 1.4153 4.2051 5.2585 4.947 4.5212 0.24583-0.24433-0.76667-1.6579-2.25-3.1412zm-18.407-1.2424c-0.28766-1.1-0.92053-2-1.4064-2-1.0455 0-1.0819 0.319-0.27638 2.4182 0.88109 2.2961 2.3003 1.9434 1.6828-0.41821zm-61.928-0.5c0.31658-0.825 0.13972-1.5-0.39301-1.5s-0.96862 0.675-0.96862 1.5 0.17686 1.5 0.39301 1.5 0.65203-0.675 0.96862-1.5zm94.45-0.56602c-0.19544-0.58631-2.1454-2.0488-4.3333-3.25s-4.5037-2.8583-5.1462-3.6824-1.5023-1.1644-1.9105-0.75613c-0.82201 0.822 2.3426 4.7546 3.826 4.7546 0.5155 0 2.0814 0.9 3.4799 2 2.7774 2.1847 4.6433 2.6114 4.0842 0.93398zm-185.36-2.0194c-0.32197-0.52097-1.0116-0.68378-1.5326-0.3618s-0.68378 1.0116-0.3618 1.5326 1.0116 0.68378 1.5326 0.3618 0.68378-1.0116 0.3618-1.5326zm158.11-6.4344c-0.85588-2.0484-1.5562-6.1444-1.5562-9.1023 0-3.9172-0.37647-5.3779-1.3861-5.3779-1.4985 0-4.6139 5.7373-4.6139 8.4968 0 2.1087 2.7051 6.849 6 10.514 2.1483 2.3896 2.5431 2.5285 2.8062 0.98729 0.16838-0.98644-0.39412-3.4695-1.25-5.5179zm-47.626 1.2108c0.0387-0.44496-0.37971-0.5309-0.92971-0.19098s-0.96837 1.604-0.92971 2.809c0.0678 2.1124 0.10112 2.1192 0.92971 0.19098 0.47269-1.1 0.89106-2.3641 0.92971-2.809zm-174.23-1.691c0.33251-5.9729-0.47038-8-3.1686-8-2.0018 0-2.5552 0.63709-3.1066 3.5765-0.90539 4.8261 0.88183 8.662 3.84 8.2418 1.7865-0.2538 2.2798-1.0273 2.4352-3.8183zm258.77 0.49171c-4.2697-3.4894-5.5797-2.9957-1.6154 0.60881 1.84 1.673 3.6224 2.7649 3.9609 2.4264s-0.71696-1.7044-2.3455-3.0352zm-251.4 1.4731c1.4473-0.77457 1.9304-2.0963 1.919-5.25-0.0206-5.6708-1.0851-7.2666-3.8575-5.7829-1.1699 0.62613-2.1616 1.9101-2.2037 2.8532s-0.20857 2.3898-0.36996 3.2148c-0.33489 1.7118 1.0802 6 1.98 6 0.32888 0 1.4684-0.46583 2.5322-1.0352zm241.18-1.8625c-3.5889-3.1646-4.0713-4.8499-1.6538-5.7776 1.9432-0.74567 1.4363-4.0538-1.7595-11.483-3.0635-7.1213-3.7665-4.2-1.9578 8.1356 1.2016 8.1953 1.7986 10.033 3.5335 10.874 4.1526 2.0144 5.092 1.12 1.8376-1.7496zm-89.416-9.1023c0.81546 0 1.1442 0.61337 0.80398 1.5-0.79418 2.0696 1.3455 1.8895 2.9696-0.25 1.9969-2.6306 1.6667-4.1951-1.108-5.25-1.891-0.71897-2.5-1.6729-2.5-3.9162 0-5.2653-1.589-4.1363-2.8636 2.0346-0.68202 3.302-2.115 7.4387-3.1845 9.1927s-1.9461 4.0881-1.9482 5.1871c-2e-3 1.3229 1.087 0.22452 3.2237-3.25 1.7751-2.8865 3.8482-5.2481 4.607-5.2481zm21.894 0c1.3493-3.8032 1.6838-10.255 0.5885-11.35-0.99781-0.9978-3.3141 5.0606-3.332 8.7148-8e-3 1.7244-0.44066 3.808-0.96052 4.6303-0.81082 1.2826-1.1596 1.2115-2.4529-0.5-0.83147-1.1003-1.522-1.4345-1.5395-0.74513s-0.65866 1.25-1.4248 1.25c-1.3278 0-2.607 2.0358-2.607 4.1492 0 0.54208 0.90222 0.69924 2.0049 0.34926 1.2934-0.4105 2.2036-0.1186 2.5647 0.82244 0.79896 2.082 5.5443-2.7709 7.1585-7.3209zm17.671-0.5c0.5714-5.7722 0.53886-5.8861-0.85736-3-0.79822 1.65-1.4579 5.025-1.466 7.5-0.0204 6.2453 1.5633 3.1778 2.3234-4.5zm40.601 5.5c0-0.55-0.45-1-1-1s-1 0.45-1 1 0.45 1 1 1 1-0.45 1-1zm-95.389-7.8673c0.61124-1.2152 1.8459-2.7546 2.7436-3.421 0.96451-0.71594 1.8491-3.2572 2.1623-6.2116 0.45623-4.3039 0.37082-4.652-0.61349-2.5-0.62892 1.375-1.6211 3.5228-2.2049 4.7729-1.1066 2.3696-3.4393 2.4774-2.8758 0.13284 0.1777-0.73934 0.58622-3.566 0.90783-6.2816 0.76165-6.4309-1.0837-5.4905-2.7353 1.394-0.94606 3.9436-0.94228 5.3412 0.0175 6.4978 1.1836 1.4262 1.0627 2.9116-0.55909 6.8706-1.1155 2.7229 1.7242 1.5953 3.1572-1.2538zm83.345-13.097c0.0417-5.1647-0.05-5.3701-1.6734-3.7468-1.8566 1.8566-3.1208 14.171-1.7913 17.448 1.038 2.5583 3.409-6.818 3.4646-13.701zm-160.96 7.6187c3e-3 -0.4651 0.84593-2.0401 1.8738-3.5s2.2046-3.7344 2.615-5.0543l0.74618-2.4-3.0194 2.15c-1.6606 1.1825-3.4632 2.15-4.0056 2.15s-1.2391 1.4625-1.5482 3.25l-1.1654 6.75-0.60347 3.5 2.551-3c1.4031-1.65 2.5533-3.3805 2.556-3.8456zm105.39-13.154 0.46847-9-1.4312 5c-0.78714 2.75-1.6434 9.275-1.9029 14.5l-0.47172 9.5 1.4344-5.5c0.78893-3.025 1.6452-9.55 1.9029-14.5zm-18.388 13.809c0-0.71988-0.40186-1.3089-0.89301-1.3089-1.0554 0-2.12 2.4789-2.0752 4.8318 0.0274 1.439 0.2335 1.4016 1.5-0.27292 0.80751-1.0676 1.4682-2.5301 1.4682-3.25zm34.604-0.038c-0.33229-0.33229-0.56864 0.25834-0.52522 1.3125 0.048 1.165 0.28494 1.4019 0.60416 0.60417 0.28887-0.72187 0.25335-1.5844-0.0789-1.9167zm83.396 1.3516c0-2.4037-2.5645-3.8521-3.9228-2.2155-0.94365 1.137-0.81663 1.6477 0.61732 2.4819 2.4587 1.4304 3.3054 1.3621 3.3054-0.26643zm-71.396-3.3516c-0.33229-0.33229-0.56864 0.25834-0.52522 1.3125 0.048 1.165 0.28494 1.4019 0.60416 0.60417 0.28887-0.72187 0.25335-1.5844-0.0789-1.9167zm-12-3c-0.33229-0.33229-0.56864 0.25834-0.52522 1.3125 0.048 1.165 0.28494 1.4019 0.60416 0.60417 0.28887-0.72187 0.25335-1.5844-0.0789-1.9167zm-23.226-1.5208c0.39164-1.6325 0.24563-2.75-0.35933-2.75-0.56048 0-1.019 1.425-1.019 3.1667 0 3.6413 0.43653 3.5093 1.3784-0.41667zm-4.3784-2.309c0-0.85746-0.45-1.2809-1-0.94098s-1 1.0415-1 1.559 0.45 0.94098 1 0.94098 1-0.70156 1-1.559zm47.014-0.69098c8e-3 -0.6875 0.29373-2.375 0.63605-3.75 0.43483-1.7466 0.30137-2.1986-0.44289-1.5-1.6222 1.5228-2.6293 6.5-1.3152 6.5 0.60963 0 1.1146-0.5625 1.1221-1.25zm-17.621-1.3318c0.33385-0.86998 0.59331-3.4575 0.57658-5.75-0.0366-5.0177-1.3865-3.2457-2.3476 3.0818-0.6261 4.1217 0.53945 5.8777 1.7711 2.6682zm-26.901-13.995c0.7915-6.558 2.1535-15.974 3.0266-20.924 4.5498-25.793 6.3266-41.685 4.4557-39.851-0.64482 0.63197-1.5622 4.457-2.0387 8.5s-1.5859 11.401-2.4655 16.351-1.9858 12.6-2.4582 17-1.5359 10.925-2.3633 14.5c-2.2601 9.7648-2.6036 19.355-0.62224 17.374 0.56455-0.56455 1.674-6.392 2.4656-12.95zm32.925 9.3265c0.27893-1.7875 0.69104-4.825 0.91581-6.75 1.0178-8.7166 5.9832-34.618 6.8394-35.677 1.1748-1.4525 3.4414-17.423 4.3747-30.823 0.38306-5.5 1.1099-12.475 1.6152-15.5 0.50529-3.025 1.3094-7.975 1.787-11s1.3771-7.7707 1.999-10.546 1.5461-8.1753 2.0538-12 1.5973-10.329 2.4212-14.454 1.5159-9.6007 1.5377-12.168c0.0485-5.7071 0.79142-7.8318 2.7384-7.8318 1.2677 0 1.414-2.1558 1.001-14.75-0.45362-13.832-1.877-32.381-3.2195-41.957-0.57731-4.1178-3.7227-9.3758-4.9048-8.1991-0.32821 0.32671 0.12399 2.5767 1.0049 5s1.8014 6.431 2.0456 8.906c0.81941 8.3061 0.32682 53.434-0.64947 59.5-1.8638 11.58-2.0733 12.5-2.8461 12.5-0.42846 0-0.35875-2.9228 0.15492-6.4952 1.0175-7.0763 0.26381-12.995-1.3311-10.453-0.49965 0.79632-0.66881 2.2184-0.37589 3.1601s0.11941 2.5167-0.38555 3.5-1.1731 6.0628-1.4847 11.288l-0.56661 9.5 1.9028-4 1.9028-4-0.55141 4c-0.7532 5.464-1.2267 6.7224-2.2837 6.0691-1.465-0.90543-2.0704 1.9448-3.1399 14.784-0.55656 6.681-1.2346 13.272-1.5067 14.647s-1.1566 8.8-1.9656 16.5c-1.874 17.838-4.0269 33.697-6.0408 44.5-2.1856 11.724-5.4302 32.13-5.4459 34.25-0.0227 3.0645 1.8762 1.8794 2.4036-1.5zm-27.312-6.4927c0.98248-4.2665 2.25-9.5573 2.8168-11.757s1.0088-6.925 0.98221-10.5l-0.0483-6.5-1.3595 5.5c-0.74774 3.025-2.1055 10.225-3.0172 16s-1.9072 11.85-2.212 13.5c-1.1439 6.1914 1.123 1.2049 2.838-6.2427zm52.859 6.3101c0.71602-1.3379 0.98342-3.2504 0.59423-4.25-0.59427-1.5263-0.93593-1.2784-2.1329 1.5474-0.78389 1.8506-1.4252 3.7632-1.4252 4.25 0 1.7274 1.681 0.84983 2.9639-1.5474zm-6.57-1.3622c0.79489-1.5371 1.9359-5.9246 2.5355-9.75s1.3632-8.5302 1.6968-10.455c0.41469-2.3931 0.28053-3.1837-0.42424-2.5-0.9842 0.95484-5.8579 16.972-6.9223 22.75-0.66389 3.6038 1.2417 3.5764 3.1143-0.0448zm17.606 0.23577c0-0.79254-0.45-1.441-1-1.441s-1 0.92656-1 2.059 0.45 1.7809 1 1.441 1-1.2665 1-2.059zm-4-6.0634c0-5.7732-0.19235-6.4628-1.5-5.3776-2.3341 1.9371-1.8251 12 0.60699 12 0.49115 0 0.89301-2.9801 0.89301-6.6224zm-48.276-8.7189c0.41137-6.4245 0.26141-7.9132-0.70554-7.0039-0.71224 0.66976-1.4184 4.8695-1.6815 10-0.35718 6.9662-0.2073 8.4541 0.70554 7.0039 0.63749-1.0128 1.3942-5.5128 1.6815-10zm54.633 0.6452c0.35781-4.2329 0.24963-8.0971-0.24039-8.5871-1.4507-1.4507-1.9594 0.42641-2.1185 7.818-0.18399 8.5466-0.19219 8.4654 0.85506 8.4654 0.4693 0 1.146-3.4633 1.5038-7.6962zm-49.041 3.1386c0.31753-1.9567 0.17993-4.5442-0.30577-5.75-0.76789-1.9064-0.89314-1.7358-0.96013 1.3076-0.0424 1.925-0.34838 4.5125-0.68002 5.75s-0.15937 2.25 0.38282 2.25 1.2456-1.6009 1.5631-3.5576zm15.684-1.0014c0-0.85746-0.45-1.2809-1-0.94098s-1 1.0415-1 1.559 0.45 0.94098 1 0.94098 1-0.70156 1-1.559zm38.872-3.191c2.7086-10.666 3.9417-22.25 2.3686-22.25-2.2942 0-4.9656 12.679-5.2148 24.75-0.0573 2.775 1.9556 1.0069 2.8462-2.5zm-65.49-0.80194c0.34149-0.88992 0.17385-1.2913-0.39301-0.94098-0.5437 0.33602-0.98855 1.0344-0.98855 1.5519 0 1.4384 0.71677 1.1215 1.3816-0.61096zm49.508-5.9481-0.0803-5-1.5493 4.6512c-0.8521 2.5582-1.2349 5.4706-0.85059 6.472 1.1696 3.0479 2.5719-0.41408 2.4802-6.1232zm-46.392-9.2664c0.36944-4.5304 0.24676-6.0564-0.37493-4.6639-0.50822 1.1384-1.199 5.1884-1.535 9-0.43786 4.9669-0.33165 6.2882 0.37493 4.6639 0.54223-1.2465 1.233-5.2965 1.535-9zm77.003 6.7664c-0.37544-1.1829-0.90761-1.9257-1.1826-1.6507s-0.19283 1.4678 0.18261 2.6507 0.90761 1.9257 1.1826 1.6507 0.19283-1.4678-0.18261-2.6507zm-47.5 0.12244c0-1.0326 0.675-2.4378 1.5-3.1224s1.5-1.8944 1.5-2.6882 0.54295-2.4262 1.2066-3.6276 1.2536-3.5343 1.3111-5.1843c0.25711-7.3773 1.7447-22.762 2.9974-31 0.75274-4.95 1.8871-13.725 2.5208-19.5s1.9995-15.9 3.0351-22.5 2.0058-13.35 2.1559-15c0.45101-4.9551 2.251-3.3824 2.5753 2.25 0.16624 2.8875 0.69842 5.25 1.1826 5.25 0.94513 0 1.1484-0.57975 3.1552-9 0.72094-3.025 1.952-5.9934 2.7356-6.5964 0.90625-0.69738 1.6959-4.155 2.1696-9.5 0.40965-4.622 1.0292-9.7536 1.3769-11.404 0.68247-3.2392-0.5703-6.1445-2.212-5.1299-1.07 0.6613-2.2422 8.7607-2.6105 18.037-0.23532 5.9279-0.99476 7.5984-2.6857 5.9075-0.73679-0.73679-0.55657-4.48 0.60065-12.476 1.9386-13.395 1.5668-42.847-0.68595-54.338-2.0654-10.535-7.6087-18.549-6.398-9.25 1.9612 15.065 3.0064 30.108 2.9354 42.25-0.16511 28.231-0.15285 28.09-2.716 31.173-1.61 1.9367-2.5626 4.7159-3.0255 8.8267-0.37154 3.3-1.1177 8.475-1.6582 11.5-2.7646 15.473-4.3342 27.714-5.001 39-0.40616 6.875-1.4148 16.775-2.2414 22s-1.4359 12.762-1.354 16.75-0.13055 7.25-0.4721 7.25-1.2806 2.7-2.0868 6-1.0935 6-0.63843 6 0.82736-0.8449 0.82736-1.8776zm-12.076-13.072c0.1185-6.9314-1.6672-3.5283-2.335 4.45-0.56703 6.7737-0.53999 6.8869 0.83649 3.5 0.78235-1.925 1.4567-5.5025 1.4985-7.95zm41.133-1.6186c0.90496-6.0122 2.1428-13.856 2.7508-17.431 2.6463-15.561 4.4088-27.817 6.1117-42.5 0.51031-4.4 1.3818-10.25 1.9366-13s1.2829-8.4875 1.6179-12.75c0.49776-6.3333 0.34804-7.75-0.81905-7.75-1.7008 0-2.5349 4.6927-3.7324 21-1.231 16.763-5.9364 50.434-9.9917 71.5-2.2612 11.746-2.3234 12.797-0.72522 12.265 0.69714-0.23238 1.9001-5.014 2.8513-11.333zm11.428 5.8186c0.82822-3.2464 4.4835-26.114 4.5022-28.167 0.0519-5.6726-3.7901 8.1156-4.9924 17.917-0.43856 3.575-1.123 7.9625-1.521 9.75-0.89248 4.0084 0.99628 4.478 2.0112 0.5zm-59.795-3c-0.25153-0.9625-0.45733-0.175-0.45733 1.75s0.2058 2.7125 0.45733 1.75 0.25152-2.5375 0-3.5zm-14.689-1.1682c0-1.605 0.27314-3.63 0.60699-4.5s0.15415-1.5818-0.39931-1.5818-1.1674 2.025-1.3642 4.5-0.0172 4.5 0.3993 4.5 0.75721-1.3132 0.75721-2.9182zm7.4558-4.3318c0.21619-0.6875 0.6313-6.65 0.92248-13.25l0.52941-12-1.9226 8c-2.0974 8.727-2.6012 18.5-0.95369 18.5 0.56727 0 1.2083-0.5625 1.4244-1.25zm8.2001-4.019c-0.27393-0.67703-0.48137 0.11903-0.46099 1.769s0.2445 2.2039 0.49804 1.231 0.23687-2.323-0.0371-3zm10.13-24.404c0.84902-7.6734 0.14151-12.842-1.1324-8.2732-1.2142 4.355-3.5876 32.958-2.8817 34.729 0.62361 1.5645 1.6954-5.4994 4.0141-26.456zm18.941 24.97c1.001-1.5259 2.0783-5.7713 2.474-9.75 0.38553-3.876 1.3673-11.772 2.1816-17.547 0.81437-5.775 2.165-15.9 3.0015-22.5s1.739-13.462 2.0055-15.25c0.35874-2.4056 0.10484-3.25-0.97721-3.25-2.2646 0-3.2373 3.8546-4.4104 17.477-0.5953 6.9128-1.2903 13.121-1.5444 13.796s-0.89922 6.177-1.4335 12.227-1.6494 14.6-2.478 19c-1.7748 9.424-1.6586 8.5-1.069 8.5 0.26232 0 1.2748-1.2162 2.25-2.7028zm-56.065-6.5472c-0.27741-0.6875-0.50439-0.125-0.50439 1.25s0.22698 1.9375 0.50439 1.25 0.27741-1.8125 0-2.5zm-147.86-2.0121c0.57612-0.69418 2.0163-3.8514 3.2003-7.0161 1.78-4.7574 2.0317-6.8848 1.4536-12.283-0.76306-7.1253-1.8841-7.7212-2.0797-1.1053-0.36882 12.48-0.78129 14.984-3.0088 18.266-2.1734 3.2026-1.8341 4.8721 0.43458 2.1385zm178.03-10.488c1.4078-9.2487 1.4351-10.25 0.27995-10.25-0.48755 0-1.1623 2.0217-1.4995 4.4926l-1.2271 9c-0.35193 2.5835-0.21256 4.5074 0.32652 4.5074 0.51729 0 1.4714-3.4875 2.1202-7.75zm36.073-0.5c1.481-4.533 5.0933-26.193 5.0933-30.541 0-1.9755 0.96005-9.0859 2.1334-15.801 2.243-12.836 2.0008-18.983-0.64288-16.315-0.79982 0.80733-1.8465 5.4514-2.458 10.906-0.58576 5.225-1.5031 12.2-2.0385 15.5s-1.4572 10.725-2.0484 16.5-1.4849 12.3-1.9859 14.5c-1.1807 5.1847-1.1952 8.5-0.0373 8.5 0.50734 0 1.4003-1.4625 1.9843-3.25zm-44.046-12.014c0.62679-2.6204 1.0835-7.7954 1.0149-11.5l-0.12476-6.7356-1.3024 10c-0.71633 5.5-1.5643 11.8-1.8843 14-0.69169 4.7547 0.48986 1.7892 2.2966-5.7644zm-12.36 4.2644c-0.33992-0.55-0.81648-1-1.059-1s-0.44098 0.45-0.44098 1 0.47656 1 1.059 1 0.7809-0.45 0.44098-1zm-15.586-7c0.041-2.6124-0.19085-3.1196-0.9144-2-0.53316 0.825-0.94464 3.3-0.9144 5.5 0.0432 3.1427 0.23917 3.5713 0.9144 2 0.47269-1.1 0.88417-3.575 0.9144-5.5zm101.69 4.2708c-0.33229-0.33229-0.56864 0.25834-0.52522 1.3125 0.048 1.165 0.28494 1.4019 0.60416 0.60417 0.28887-0.72188 0.25335-1.5844-0.0789-1.9167zm-19.611-17.442c1.7377-12.745 3.3814-31.975 2.4642-28.828-0.80631 2.7659-5.4578 37.026-5.4578 40.199 0 6.2805 1.2178 1.6553 2.9936-11.37zm-35.418-9.402c1.4274-10.41 2.9595-19.376 3.4046-19.926 1.3666-1.6887 2.4196-32.135 1.1388-32.926-1.6047-0.99178-2.8337 2.7007-4.1358 12.426-0.6259 4.675-2.2599 11.2-3.6312 14.5s-2.9796 7.575-3.5742 9.5l-1.081 3.5-0.91249-3.3861c-0.52606-1.9522-1.2839-3.0109-1.7896-2.5-1.0164 1.0268-3.2323 28.193-2.4084 29.526 1.1901 1.9256 2.3516-0.47315 2.9987-6.1932 0.37285-3.2956 1.0686-6.2334 1.5462-6.5286s0.8683-1.6616 0.8683-3.0366 0.38495-2.2621 0.85545-1.9713 0.48367 2.8805 0.0293 5.755-0.64714 5.4053-0.42834 5.6241c0.47472 0.47472 2.5303-6.6455 2.5375-8.7897 0.0111-3.2807 3.5435-17 4.377-17 0.97237 0 0.58594 3.7963-1.7813 17.5-1.4473 8.378-2.2041 24.448-1.0994 23.343 0.26964-0.26964 1.6582-9.0071 3.0856-19.417zm-29.606 14.324c-0.0258-2.7617-0.18865-2.978-1.0837-1.4393-0.5793 0.9959-0.80474 2.4584-0.50098 3.25 0.92433 2.4088 1.6167 1.6176 1.5847-1.8107zm6.945-12.317c1.7149-21.583 2.2568-36.657 1.2965-36.064-0.5066 0.3131-1.1964 4.0705-1.533 8.3499s-1.071 13.363-1.6321 20.185c-0.8758 10.649-0.57892 20.962 0.57034 19.812 0.19252-0.19253 0.77672-5.7201 1.2982-12.284zm-12.252 4.3165c-0.27741-0.6875-0.50439-0.125-0.50439 1.25s0.22698 1.9375 0.50439 1.25 0.27741-1.8125 0-2.5zm-9.6623-2.75c0-0.55-0.47656-1-1.059-1s-0.7809 0.45-0.44098 1 0.81648 1 1.059 1 0.44098-0.45 0.44098-1zm28.757-17c-7e-3 -6.3429-0.0262-6.3912-0.80756-2-0.44039 2.475-0.78083 6.75-0.75652 9.5 0.038 4.2971 0.15151 4.5782 0.80756 2 0.41985-1.65 0.76029-5.925 0.75652-9.5zm-171.3-1.3143c-0.35941-1.432-1.2843-3.1272-2.0554-3.7671-1.1253-0.93388-1.4019-0.75749-1.4019 0.89389 0 1.1315 0.46672 3.2849 1.0372 4.7853 1.3138 3.4556 3.3613 1.838 2.4201-1.9121zm143.21-0.93566c-0.27741-0.6875-0.50439-0.125-0.50439 1.25s0.22698 1.9375 0.50439 1.25 0.27741-1.8125 0-2.5zm5.9419-3.4792c-0.33229-0.33229-0.56864 0.25834-0.52522 1.3125 0.048 1.165 0.28494 1.4019 0.60416 0.60417 0.28887-0.72188 0.25335-1.5844-0.0789-1.9167zm6.0829-6.0325c-0.25029-0.95609-0.446 0.0617-0.4349 2.2617s0.21589 2.9822 0.45508 1.7383 0.23011-3.0439-0.0202-4zm5.0186-2.4883c-0.23835-1.2375-0.43337-0.225-0.43337 2.25s0.19502 3.4875 0.43337 2.25 0.23836-3.2625 0-4.5zm11.981-1.5117c-0.25029-0.95609-0.446 0.0617-0.4349 2.2617s0.21589 2.9822 0.45508 1.7383 0.23011-3.0439-0.0202-4zm-26.239-4.3868c0.40012-3.8615 0.29656-6.891-0.24705-7.227-1.0318-0.63766-2.2186 6.3405-2.1711 12.765 0.0446 6.0362 1.5842 2.5103 2.4181-5.5381zm80.983-0.10149c-0.43251-4.5375-0.65126-10.275-0.48612-12.75 1.1984-17.96-0.8768-57.306-3.1381-59.5-0.70722-0.68607-0.76024 1.1975-0.16888 6 1.0294 8.3598 1.141 39.145 0.17765 49-0.37636 3.85-1.2078 9.3936-1.8477 12.319-1.2529 5.7282-0.86001 7.1662 1.437 5.2598 1.2239-1.0157 1.5614-0.48567 2.1377 3.3575 0.3764 2.51 1.1322 4.5637 1.6796 4.5637 0.64344 0 0.71727-2.9162 0.20885-8.25zm-47.446-1.5c8e-3 -3.4375-0.40231-6.25-0.91273-6.25-1.2393 0-2.4634 10.191-1.5644 13.024 1.1832 3.728 2.4599 0.23669 2.4771-6.774zm-152.92 3.5c0.0344-2.3375 0.15537-7.5418 0.26878-11.565 0.22142-7.8554-0.84799-11.753-1.6782-6.1157-1.0427 7.0796-2.1667 19.89-1.8329 20.892 0.19054 0.57162 0.98394 1.0393 1.7631 1.0393 0.99019 0 1.4355-1.2794 1.4793-4.25zm6.9056-6c-0.0286-9.2309-0.17778-10.057-1.5-8.3089-2.1237 2.8078-2.0967 18.559 0.0318 18.559 1.2378 0 1.4944-1.7914 1.4682-10.25zm7.6594 9c0.47984-0.6875 0.64352-6.2 0.36374-12.25s-0.79121-10.325-1.1365-9.5-1.3684 5.9644-2.2737 11.421c-1.3285 8.0078-1.3986 10.078-0.36351 10.735 1.7658 1.1205 2.3972 1.0454 3.4099-0.40567zm14.667-0.66213 4.4608-1.9121 0.60841-6.8379c1.7792-19.997 2.3097-30.035 1.6777-31.748-1.2468-3.3798-1.8866 0.41312-2.5455 15.09-0.61863 13.782-2.0268 23.32-3.4426 23.32-1.5586 0-7.216-3.2696-7.544-4.36-0.1886-0.62703-0.6304-2.4426-0.98178-4.0347-0.96938-4.3921-2.3482-1.8826-2.6456 4.8148-0.22516 5.0711 0.0154 6.0292 1.6773 6.6797 2.9682 1.162 3.9209 1.0516 8.7352-1.0121zm-35.508-14.337c0.52858-7.5622 0.65383-15.212 0.27833-17-0.6293-2.9962-0.76749-3.0941-1.7656-1.2506-1.3171 2.4328-2.809 28.319-1.813 31.457 1.3727 4.3251 2.3474 0.42475 3.3002-13.207zm219.21 13.19c0-1.1325-0.45-1.7809-1-1.441s-1 1.2665-1 2.059 0.45 1.441 1 1.441 1-0.92656 1-2.059zm7.8789-9.941c-0.48191-0.88366-0.77268 1.3763-0.70765 5.5l0.11039 7 0.70765-5.5c0.3892-3.025 0.33953-6.175-0.11039-7zm-233.65 9.7988c0.22022-0.66065-7e-3 -3.6982-0.50555-6.75s-0.67427-8.5012-0.39111-12.11c0.47236-6.0195-0.38993-10.22-1.8071-8.8025-1.3107 1.3107-2.733 24.122-1.6519 26.495 1.1417 2.5056 3.6826 3.1865 4.3557 1.1672zm54.14-2.5938c0.27024-0.43726 0.2202-2.7998-0.11122-5.25l-0.60257-4.455-1.2847 3c-1.7416 4.067-1.7113 7.5 0.0661 7.5 0.79254 0 1.6621-0.35776 1.9323-0.79503zm10.611-1.455c-0.0124-1.8194-0.20082-1.963-0.98469-0.75-1.2529 1.9388-1.2529 3 0 3 0.55 0 0.99311-1.0125 0.98469-2.25zm157.99-7.6676c0.60875-2.4297 0.83234-5.1297 0.49688-6-1.1276-2.9254-2.5656 1.4529-3.0168 9.1854-0.4363 7.4772-0.0196 6.9504 2.5199-3.1854zm-80.316 2.6676c-0.27741-0.6875-0.50439-0.125-0.50439 1.25s0.22698 1.9375 0.50439 1.25 0.27741-1.8125 0-2.5zm-4.6776-2c-0.0112-3.1125-0.27478-3.8485-0.98469-2.75-1.276 1.9745-1.276 7 0 7 0.55 0 0.99311-1.9125 0.98469-4.25zm11.505-5.0889c0.2332-3.2025-8.4e-4 -5.6611-0.5389-5.6611-0.52313 0-0.9561 1.2375-0.96216 2.75s-0.28966 4.55-0.63023 6.75c-0.46865 3.0273-0.33493 3.7352 0.5499 2.9111 0.64303-0.5989 1.3546-3.6364 1.5814-6.75zm22.495 0.0889c8e-3 -2.0625-0.43469-3.75-0.98469-3.75s-0.99311 2.3625-0.98469 5.25c0.011 3.7584 0.29072 4.8238 0.98469 3.75 0.53316-0.825 0.97627-3.1875 0.98469-5.25zm-131.38 0.52083c-1.0165-1.0165-1.8552 0.51389-1.0212 1.8634 0.63003 1.0194 0.86558 1.0202 1.2043 4e-3 0.2316-0.69479 0.14921-1.5351-0.18308-1.8674zm24.058-0.52083c-0.27741-0.6875-0.50439-0.125-0.50439 1.25s0.22698 1.9375 0.50439 1.25 0.27741-1.8125 0-2.5zm170.34 1.75c0-0.825-0.45-1.5-1-1.5s-1 0.675-1 1.5 0.45 1.5 1 1.5 1-0.675 1-1.5zm-81.1-3.75c-0.0847-3.6104-0.22017-3.8738-0.90032-1.75-1.1525 3.5987-1.1525 6 0 6 0.55 0 0.95514-1.9125 0.90032-4.25zm74.704 0.52083c-0.33229-0.33229-0.56864 0.25834-0.52522 1.3125 0.048 1.165 0.28494 1.4019 0.60416 0.60417 0.28887-0.72188 0.25335-1.5844-0.0789-1.9167zm-8.8539-18.267c-0.33144-8.0134-1.0684-13.761-2.0522-16.004l-1.535-3.5-0.17773 5.5c-0.74972 23.201-0.85011 32.41-0.36196 33.2 0.31151 0.50403 1.4838-0.79537 2.6052-2.8876 1.8359-3.4254 1.9873-5.0484 1.5216-16.308zm-159.02 14.996c0.1617-4.0549-1.1124-5.487-1.9686-2.2127-0.41891 1.6019 0.68646 6.2127 1.4894 6.2127 0.17585 0 0.39151-1.8 0.47924-4zm-39.775-1.3192c0.91904-4.0749-0.34445-7.1173-1.9439-4.6808-1.1192 1.7049-1.3544 7.3276-0.34864 8.3333 0.96536 0.96536 1.4113 0.2549 2.2926-3.6526zm118.15 0.0317c-0.81667-0.81665-1.1125-0.70474-1.1125 0.42085 0 1.9879 1.3447 3.3326 1.8417 1.8417 0.21083-0.6325-0.1173-1.6506-0.72917-2.2625zm85.872-3.5215c-0.0238-7.2946-1.6693-8.5636-2.4985-1.9268-0.38376 3.0715-0.39405 6.0759-0.0229 6.6765 1.3256 2.1449 2.5364-0.136 2.5214-4.7497zm5.0153 3.309c0-1.375-0.45-2.5-1-2.5s-1 1.125-1 2.5 0.45 2.5 1 2.5 1-1.125 1-2.5zm-175-1c0-1.375-0.45-2.5-1-2.5-1.1172 0-1.3707 3.296-0.33333 4.3333 1.1023 1.1023 1.3333 0.78473 1.3333-1.8333zm106.35-30.926c0.2782-1.6905 0.12002-3.9737-0.3515-5.0737-0.66569-1.553-0.87303-1.0632-0.9276 2.191-0.0387 2.305-0.52029 4.4691-1.0703 4.809-1.1765 0.72714-1.3047 11.925-0.2644 23.099 0.72824 7.8217 0.74249 7.7513 1.4218-7.0255 0.3774-8.2095 0.9138-16.309 1.192-18zm5.5565 13.463c0.12618-10.591-0.16854-18.036-0.71398-18.036-0.51088 0-1.1386 3.268-1.3949 7.2623-0.59471 9.2668 0.23234 29.838 1.1762 29.254 0.39482-0.24401 0.81455-8.5601 0.93274-18.48zm19.094 3.9635c0-12.794-0.89263-17.343-2.3269-11.858-0.81828 3.1291 0.48225 25.858 1.4796 25.858 0.46603 0 0.84733-6.3 0.84733-14zm-115.31 7.2383c-0.25029-0.95609-0.446 0.0617-0.4349 2.2617s0.21589 2.9822 0.45508 1.7383 0.23011-3.0439-0.0202-4zm109.07-19.23c8e-3 -12.118-0.32703-22.244-0.74367-22.501-1.976-1.2212-3.6207 38.067-1.8128 43.303 1.8682 5.4108 2.5435-0.0837 2.5565-20.802zm-193.76 19.932c0-0.51754-0.45-0.94098-1-0.94098s-1 0.70156-1 1.559 0.45 1.2809 1 0.94098 1-1.0415 1-1.559zm185.88-1.691c-0.1629-2.0625 0.30029-7.7256 1.0293-12.585 1.0036-6.6888 1.0445-9.1157 0.16856-9.9916-1.9211-1.9211-3.029 1.1469-3.1873 8.8263-0.0793 3.85-0.25532 8.35-0.39107 10-0.32505 3.9511 0.47894 7.5 1.6991 7.5 0.53767 0 0.84429-1.6875 0.68138-3.75zm-51.121 1.5c-0.63336-1.9232-4.755-2.2002-4.755-0.31955 0 1.021 0.90283 1.5696 2.5833 1.5696 1.6196 0 2.4298-0.46635 2.1717-1.25zm-55.763-4.4686c-1.0832-1.6885-1.1128-1.6858-0.56728 0.0504 0.31653 1.0075 0.62771 2.5825 0.69151 3.5 0.10451 1.5029 0.16073 1.4979 0.56727-0.0504 0.2482-0.94522-0.063-2.5202-0.6915-3.5zm48.369 0.39869c5.9616-5.5517 6.058-7.9391 0.38884-9.6347-2.3375-0.69915-5.4756-2.1426-6.9736-3.2076-3.0972-2.202-4.7444-1.6938-8.7764 2.7076-1.704 1.8601-2.102 2.871-1.25 3.1752 0.6875 0.24539 1.25 1.023 1.25 1.728 0 2.7299 6.5219 8.8225 10.111 9.4454 0.33614 0.0583 2.6986-1.8379 5.25-4.2138zm116.24 1.5907c-0.33229-0.33229-0.56864 0.25834-0.52522 1.3125 0.048 1.165 0.28494 1.4019 0.60416 0.60417 0.28887-0.72188 0.25335-1.5844-0.0789-1.9167zm-215.45-0.0208c0.39787-4.5743 0.23915-5.6195-0.91154-6.0031-0.85253-0.28417-1.2407 0.86392-1.2407 3.6698 0 3.9275 1.84 5.9224 2.1522 2.3333zm7.8725-0.8151c1.4752-3.8799 1.2349-9.4349-0.40812-9.4349-1.6287 0-2.584 3.0278-2.603 8.25-0.0157 4.3135 1.5825 4.9424 3.0111 1.1849zm8.3502-2.5599c0.34375-1.7188 0.61003-4.3062 0.59173-5.75l-0.0333-2.625-1.9667 2.3608c-2.2973 2.7576-2.7105 9.1392-0.5917 9.1392 0.75625 0 1.6562-1.4062 2-3.125zm7 0c1.0086-5.0428 0.75929-8.0859-0.625-7.6297-0.72872 0.24015-1.376 2.5685-1.5523 5.5833-0.33 5.646 1.1745 7.0601 2.1773 2.0464zm38.625 0.125c0-1.65-0.45-3-1-3s-1 1.35-1 3 0.45 3 1 3 1-1.35 1-3zm-6.8167-1.2167c-0.71756-0.71756-1.1833-0.7766-1.1833-0.15 0 1.3348 1.1826 2.5174 1.85 1.85 0.28417-0.28416-0.0158-1.0492-0.66667-1.7zm165.82 0.65762c0-0.85746-0.45734-1.2764-1.0163-0.9309s-0.75742 1.047-0.44098 1.559c0.85723 1.387 1.4573 1.1284 1.4573-0.62812zm-241.59-8.0579c0.84469-9.3215 0.59325-41.708-0.35124-45.239-0.39806-1.4884-0.97157-2.1008-1.3675-1.4603-0.93098 1.5064-1.9974 47.666-1.1866 51.358 1.1043 5.0279 2.1845 3.296 2.9053-4.6583zm161.12-11.182c-2.1264-2.1264-3.3333 7.8406-1.8071 14.924 0.60354 2.8013 0.8736 1.8743 1.5886-5.453 0.47381-4.8554 0.57212-9.1174 0.21847-9.471zm-85.605 12.049c-0.0463-3.1286-0.32211-4.1089-0.80801-2.8719-0.70174 1.7865-0.32521 7.6219 0.4918 7.6219 0.21257 0 0.35487-2.1375 0.31621-4.75zm-81.496 0.25c0.75018-3.9988-0.24494-10.735-1.4737-9.9755-1.0934 0.67576-2.3522 11.032-1.5071 12.4 1.2285 1.9877 2.3195 1.1003 2.9808-2.4244zm11.147-1.0316c-0.30093-1.199 0.13552-4.8008 0.96987-8.0041 1.1299-4.338 1.4317-9.8028 1.1827-21.416-0.34013-15.862-0.73861-18.048-3.2903-18.048-1.2006 0-1.4479 3.2645-1.4964 19.75-0.032 10.862-0.025 20.875 0.0154 22.25s0.0495 4.2558 0.0201 6.4018c-0.0474 3.4654 0.1255 3.7533 1.5462 2.5742 0.9787-0.81224 1.3872-2.1737 1.0525-3.5075zm209.24 1.12c0.17852-1.5166 0.0177-3.5068-0.35733-4.4229-0.60341-1.4738-0.77658-1.4353-1.5043 0.33447-0.45231 1.1-0.85401 3.275-0.89266 4.8333-0.0916 3.6923 2.3084 3.0432 2.7543-0.74492zm-148.5-4e-3c0.29866-0.77832 0.13086-4.2658-0.37291-7.75-1.244-8.6035-1.1831-27.477 0.1035-32.11 1.2453-4.4842 3.198-4.002 2.3764 0.58677-0.31401 1.7539-0.26246 6.3005 0.11455 10.104 0.52757 5.3219 0.91376 6.5068 1.6765 5.144 1.0211-1.8246 1.2085-36.045 0.20626-37.667-1.4957-2.4196-2.4333-0.2588-2.4333 5.6083 0 3.575-0.39375 6.5-0.875 6.5-1.1088 0-2.125-5.0011-2.125-10.458 0-4.7352-0.73043-6.0103-2.569-4.4844-0.83868 0.69605-1.4594 0.7059-1.8772 0.0298-0.79163-1.2809-2.4639-23.893-2.5949-35.087-0.0667-5.7008-0.38248-7.8414-0.95888-6.5-0.47269 1.1-0.89106 8.6641-0.92971 16.809-0.0392 8.2515-0.45993 14.568-0.95023 14.265-0.48397-0.29911-1.1944-4.9382-1.5788-10.309-0.82609-11.543-1.4618-14.745-2.6844-13.522-0.48929 0.48929-1.1005 7.6097-1.3582 15.823s-0.75572 19.937-1.1066 26.052c-0.39351 6.8575-0.25145 11.81 0.37068 12.921 1.8347 3.2784 4.2357-3.3572 4.2484-11.741 0.0125-8.268 0.89196-14.8 1.9928-14.8 0.40817 0 0.80875 7.4833 0.89018 16.63s0.39468 17.029 0.69612 17.516c1.4029 2.2699 2.4099-0.91557 2.4099-7.623 0-7.4591 0.58042-10.523 1.9936-10.523 1.3316 0 2.3141 20.169 2.0069 41.196-0.10201 6.9827 0.1077 13.17 0.46602 13.75 0.91278 1.4769 2.2206 1.312 2.8625-0.36097zm4.2117-17.377c-1.3225-1.3225-2.0109 1.431-1.8456 7.3817 0.29732 10.7 1.765 12.126 2.0956 2.0349 0.15992-4.8817 0.0474-9.1192-0.25-9.4167zm-54.137 12.609c3.7921-3.3573 4.2353-5.3172 2.9545-13.066-0.9464-5.7257-2.2282-4.4742-2.5604 2.5-0.54227 11.384-2.2783 6.7799-2.7977-7.4194-0.275-7.5182-0.8375-14.006-1.25-14.417-1.4116-1.4065-2.2054 0.70864-2.2129 5.897-0.0242 16.568 0.57975 29.689 1.3666 29.689 0.49699 0 2.522-1.4328 4.5-3.184zm130.15-1.3716c-0.37649-2.0068-0.90953-3.4238-1.1845-3.1488s-0.19196 2.142 0.18453 4.1488 0.90952 3.4238 1.1845 3.1488 0.19196-2.142-0.18452-4.1488zm84.38-6.6944c-0.0302-6.1875-0.30183-12.262-0.60357-13.5-1.157-4.745-1.8726-1.887-1.7527 7 0.11876 8.8062 1.1285 17.75 2.004 17.75 0.22399 0 0.38252-5.0625 0.3523-11.25zm-195.48 7.3191c1.0181-1.6472-0.90898-1.9343-3.4698-0.5168l-2.4874 1.3768 2.691 0.0354c1.48 0.0195 2.9499-0.38347 3.2663-0.89546zm17.817-2.0082c0.52635-2.0127-0.9406-18.427-1.8822-21.061-0.4088-1.1436-0.85459-0.90895-1.8762 0.98745-0.73697 1.3681-1.1883 2.7328-1.003 3.0326s0.61829 4.3223 0.96218 8.9388 0.85434 8.7643 1.1344 9.2174c0.8808 1.4252 2.1381 0.89893 2.6649-1.1154zm5.1736-16.061c-0.63326-4.1924-0.74585-4.3291-1.6473-2-0.97131 2.5096-0.30919 14.759 1 18.5 0.96969 2.7712 1.5034-10.833 0.6473-16.5zm-13.165 10.479c-0.64063-14.672-6e-3 -49.909 1.1602-64.397 0.73395-9.12 1.1802-16.843 0.99172-17.162s-0.64476-5.7191-1.0139-12-0.84729-11.615-1.0626-11.853-0.87134 0.0466-1.458 0.63323c-0.62008 0.62008-1.0515 5.3017-1.0306 11.183 0.0198 5.5642-0.33653 10.117-0.79176 10.117-1.2343 0-1.9077-4.4634-2.6609-17.637-0.37303-6.5244-1.0557-12.538-1.5171-13.363-0.87744-1.569-1.092 0.94637-1.45 17-0.10425 4.675-0.76985 13.675-1.4791 20-1.4533 12.96-1.6106 51.76-0.21548 53.155 1.7668 1.7668 3.2078-9.7487 3.7221-29.745 0.33008-12.833 0.99736-21.478 1.8473-23.933 1.9195-5.5443 2.4368-3.2599 1.5904 7.0236-1.2179 14.797-1.0782 56.937 0.19301 58.208 0.78306 0.78306 0.80944 2.0879 0.09 4.45-1.9309 6.3394-1.0092 14.149 1.6091 13.634 1.3562-0.26687 1.6497-1.3236 1.4756-5.3123zm147.7-8.08c0.0143-7.5734-1.1778-13.705-3.0722-15.8-0.90502-1.0011-0.26424 21.718 0.69805 24.749 1.1911 3.7529 2.3584-0.64718 2.3741-8.9492zm-168.38 6.8716c-1.0165-1.0165-1.8552 0.51389-1.0212 1.8634 0.63003 1.0194 0.86558 1.0202 1.2043 4e-3 0.2316-0.69479 0.14921-1.5351-0.18308-1.8674zm13.283-2.5984c-0.23026-5.6914-1.3133-9.6724-2.6314-9.6724-0.80493 0-0.65214 5.5582 0.32299 11.75 0.83444 5.2985 2.5446 3.7593 2.3084-2.0776zm176.14-4.3082c-1.4565-10.017-2.988-15.047-4.0556-13.32-0.81423 1.3174-0.55954 4.3466 1.1734 13.955 1.4731 8.1685 1.9086 9.3455 3.0392 8.2149 0.64856-0.64856 0.59478-3.68-0.15702-8.8507zm-229.81-10.106c-0.25784-9.0525-0.81257-15.008-1.3661-14.666-0.54145 0.33463-0.74828 6.9307-0.4936 15.742 0.50381 17.43 0.39859 16.347 1.4685 15.116 0.45393-0.5225 0.62997-7.8088 0.39121-16.192zm10.783 7.2418c0-5.225-0.41418-9.5-0.92041-9.5-1.245 0-2.4574 12.004-1.6045 15.887 1.3259 6.0368 2.5249 3.0039 2.5249-6.3866zm34.488 7.5378c0.6747-2.1258-0.96012-6.0378-2.5232-6.0378-1.09 0-1.2301 2.4083-0.33453 5.75 0.74298 2.7724 2.028 2.9018 2.8577 0.28777zm195.44-7.5378c0.0477-4.4944-0.45303-6.7528-1.9955-9l-2.0592-3 0.51849 6.5c0.88183 11.055 1.8198 15.728 2.7035 13.467 0.42291-1.0819 0.79759-4.667 0.83263-7.967zm-119.02 6.4177c3.6795-2.2432 7.0101-5.7729 7.0634-7.4857 0.0206-0.66154-2.5354-1.0421-6.7167-1l-6.75 0.0679-0.60787 4.5c-0.33433 2.475-0.42027 4.8375-0.19098 5.25 0.74457 1.3395 3.7234 0.78849 7.2021-1.3323zm-116.82-10.649-0.65375-5.7687-0.71091 6.3467c-0.39099 3.4907-0.40263 7.5407-0.0259 9l0.68505 2.6533 0.67961-3.2313c0.37378-1.7772 0.38542-5.8272 0.0259-9zm33.57 7.4623c-0.27393-0.67703-0.48137 0.11903-0.46099 1.769s0.2445 2.2039 0.49804 1.231 0.23687-2.323-0.0371-3zm-5.4511-16.926c-1.1333-1.1333-1.5491 9.6544-0.48421 12.565 0.53392 1.4594 0.87355-0.043 1.0785-4.7707 0.16452-3.7955-0.1029-7.3029-0.59427-7.7943zm-37.854-7.3049c0.64574-23.44 1.3285-39.407 2.2342-52.25 0.44056-6.2473 0.30899-9.25-0.40533-9.25-2.1136 0-3.7171 22.375-4.0667 56.746-0.20516 20.168 0.13889 26.387 1.3868 25.071 0.16503-0.17409 0.54799-9.3165 0.85103-20.317zm96.715 6.5c-0.7989-2.5032-1.8087 4.4448-1.1796 8.1165 0.54909 3.2049 0.60815 3.1196 1.119-1.6165 0.29664-2.75 0.32391-5.675 0.0606-6.5zm6.9335 5.4924c0-1.2445-0.62088-3.7394-1.3797-5.5442-1.3173-3.1329-1.4123-3.1789-2.0987-1.016-0.39545 1.246-0.4177 4.2746-0.0494 6.7303 0.55821 3.7224 0.90722 4.2677 2.0987 3.2788 0.78601-0.65236 1.4291-2.2043 1.4291-3.4488zm-25.338 0.25763c-0.27741-0.6875-0.50439-0.125-0.50439 1.25s0.22698 1.9375 0.50439 1.25 0.27741-1.8125 0-2.5zm-27.489-9.3454c0.19944-11.943-0.0322-15.879-0.88438-15.026s-1.4248 22.592-0.63492 23.87c1.0676 1.7274 1.3724-0.0471 1.5193-8.8438zm-40.778-6.4099c0.303-6.8721 0.79299-19.47 1.0889-27.995 0.29587-8.525 0.80824-20.9 1.1386-27.5s0.33242-11.744 5e-3 -11.432-1.539 7.9453-2.6916 16.962c-1.7051 13.34-1.9958 19.661-1.5599 33.932 0.29463 9.6459 0.5557 20.201 0.58017 23.455 0.0741 9.8634 0.85452 5.8391 1.4392-7.4219zm5.6838 10.755c0.0432-0.6875 0.28358-7.4734 0.5341-15.08 0.42379-12.867 0.3313-13.806-1.3286-13.492-1.2199 0.23116-1.8926 1.4424-2.1272 3.8299-0.55691 5.667 0.96152 25.992 1.9418 25.992 0.49574 0 0.93672-0.5625 0.97994-1.25zm219.92-0.75c0-0.55-0.47656-1-1.059-1s-0.7809 0.45-0.44098 1 0.81648 1 1.059 1 0.44098-0.45 0.44098-1zm-164.4-2.7292c-0.3323-0.33229-0.56864 0.25834-0.52522 1.3125 0.048 1.165 0.28494 1.4019 0.60416 0.60417 0.28887-0.72188 0.25335-1.5844-0.0789-1.9167zm-24.732-18.771c-0.0132-13.519-0.73896-18.092-2.4496-15.434-1.5719 2.4429-1.8074 29.592-0.28839 33.247l1.3243 3.1867 0.71314-4c0.39224-2.2 0.70746-9.85 0.7005-17zm60.128 17.441c0-1.1325-0.45-1.7809-1-1.441s-1 1.2665-1 2.059 0.45 1.441 1 1.441 1-0.92656 1-2.059zm-9.8246-22.605c0.28563-11.585-0.17106-15.678-1.5904-14.253-0.42377 0.42555-0.92639 28.79-0.57443 32.417 0.50327 5.1861 1.8723-6.3012 2.1648-18.164zm9.8246 12.105c0-0.85746-0.45-1.2809-1-0.94098s-1 1.0415-1 1.559 0.45 0.94098 1 0.94098 1-0.70156 1-1.559zm-85.015-13.191c8e-3 -4.5375-0.38221-8.25-0.86806-8.25-1.4776 0-1.8626 3.278-1.3405 11.413 0.64664 10.076 2.1881 7.8681 2.2086-3.1635zm6.0153 2.7617c0-3.6021-1.9548-6.7235-3.342-5.3363-0.36189 0.3619-0.64302 3.6205-0.62472 7.2413l0.0333 6.5833 1.9667-2.3608c1.1897-1.4281 1.9667-3.8489 1.9667-6.1276zm23.433-5.6904-0.81565-4.8212-0.68537 5.5c-0.37696 3.025-0.42956 6.625-0.11691 8 0.55835 2.4555 0.58509 2.4434 1.501-0.67876 0.53153-1.8118 0.5818-5.252 0.1169-8zm-10.448 5.3697c-0.0116-2.4281-0.24708-2.8324-0.98469-1.691-1.2817 1.9833-1.2817 6.2921 0 5.5 0.55-0.33992 0.99311-2.054 0.98469-3.809zm-35.084-6.441c0.0548-2.3375-0.30867-4.25-0.80777-4.25-0.99098 0-2.0325 10.886-1.1949 12.49 0.74421 1.425 1.8862-3.2736 2.0027-8.2399zm85.901-5.9774c0.34444-10.335-0.25168-14.73-1.8627-13.734-0.60861 0.37614-0.89198 5.4796-0.72069 12.979 0.33818 14.807 2.0979 15.321 2.5834 0.7552zm-83.417-39.273c0.55486-9.9269 0.50774-10.293-0.86343-6.6997-0.91588 2.3999-1.6535 9.4014-2.0017 19-0.30323 8.3598-0.81526 17.08-1.1378 19.379s-0.20609 4.7734 0.25886 5.5c0.83799 1.3095 2.5343-15.535 3.7441-37.179zm9.2585 25.99c0.22382-12.843 3.0654-46.943 4.3902-52.683 1.0254-4.443 1.3557-19.029 0.40955-18.082-0.30696 0.30696-0.76885 3.8335-1.0264 7.8368s-1.1188 10.465-1.9139 14.359-1.6744 11.355-1.9541 16.58-1.1699 16.25-1.9782 24.5c-1.9005 19.397-1.9065 18.712 0.16046 18.314 1.4941-0.28774 1.7545-1.7617 1.9125-10.823zm4.9953-1.0594c0.77825-17.363 3.4101-40.788 5.8065-51.681 0.39323-1.7875 0.39049-4.7125-6e-3 -6.5l-0.72108-3.25-1.4417 4c-1.6804 4.6622-3.8569 24.944-5.2357 48.79-0.53397 9.2345-1.2378 17.222-1.5641 17.75s-0.29093 1.4492 0.0786 2.0471c1.5575 2.5201 2.6473-1.4229 3.0836-11.156zm79.456 7.763c-0.79171-0.79171-1.0938-0.53223-1.0938 0.93955 0 2.6438 1.3984 4.047 1.8438 1.8502 0.18908-0.93276-0.14842-2.1881-0.75-2.7897zm-73.512-5.107c-1.0574-5.6363-3.5822-3.9952-3.5822 2.3284 0 3.5402 1.0086 4.5049 2.818 2.6954 1.0102-1.0102 1.2372-2.5024 0.76421-5.0238zm18.418-1.1458c0-2.9925-0.41045-5.441-0.9121-5.441-1.2285 0-2.4133 7.3995-1.5967 9.9724 1.1381 3.5859 2.5088 1.1102 2.5088-4.5314zm6.121-4.1795c0.21818-4.8551-0.42693-7.2889-1.6167-6.0992-0.9213 0.9213-1.7659 9.7136-1.0998 11.449 1.1136 2.902 2.4653 0.23992 2.7165-5.3501zm32.879-2.3205c0-5.1218-1.3174-6.6178-2.3697-2.691-0.7964 2.9717-0.79151 7.2554 9e-3 8.0562 1.427 1.4268 2.3607-0.69529 2.3607-5.3652zm12 4.059c0-1.1-0.45-2-1-2s-1 0.9-1 2 0.45 2 1 2 1-0.9 1-2zm-63-7.2899c0-4.0094 0.61893-9.747 1.3754-12.75s1.6715-6.7232 2.0333-8.2669c0.53961-2.3022 1.0381-2.6862 2.7725-2.1357 1.9357 0.61437 2.0592 0.39455 1.4606-2.5988-0.35969-1.7985-0.94262-7.0249-1.2954-11.614s-0.94837-8.3444-1.3236-8.3444c-1.1106 0-3.9133 14.664-5.065 26.5-2.0619 21.189-2.2795 26.5-1.0862 26.5 0.73478 0 1.1285-2.5433 1.1285-7.2899zm-37.115-1.7101c0.0628-2.6057-0.16333-3.1167-0.88501-2-0.53316 0.825-0.93141 3.525-0.88501 6 0.0699 3.7306 0.22126 4.0726 0.88501 2 0.44035-1.375 0.83861-4.075 0.88501-6zm176.11 6.5c0-0.825-0.45-1.5-1-1.5s-1 0.675-1 1.5 0.45 1.5 1 1.5 1-0.675 1-1.5zm-181.41-4.2449c-1.0755-1.0755-1.6464 0.43075-0.89148 2.3518 0.7082 1.8021 0.76169 1.8052 1.1119 0.0649 0.20237-1.0056 0.10317-2.093-0.22045-2.4167zm35.852-4.4442c-0.33286-1.0487-0.13855-2.4691 0.43179-3.1563 1.1001-1.3256 3.1872-12.708 2.53-13.798-0.21347-0.35394 0.235-2.4096 0.99659-4.5682 1.6561-4.6938 3.687-19.804 3.6006-26.788-0.034-2.75 0.18949-7.925 0.49669-11.5 0.34425-4.0062 0.21639-5.9245-0.33328-5-1.0388 1.7472-2.1641 9.0271-2.6832 17.358-0.20842 3.3448-1.0111 6.5721-1.8708 7.5221-1.051 1.1614-1.9725 6.6397-3.0515 18.142-0.85019 9.0629-1.7989 18.692-2.1082 21.398-0.50331 4.4025-0.39639 4.7819 1.0171 3.6088 0.94598-0.78509 1.3368-2.0757 0.97434-3.2177zm20.026-15.907c0.29616-7.3721 0.79239-18.286 1.1027-24.254 0.34719-6.6762 0.20218-10.626-0.37697-10.268-1.5898 0.98258-3.3275 15.655-2.8928 24.426 0.22643 4.5693 0.0464 10.194-0.40017 12.5-0.96889 5.0031-0.0299 14.678 1.2096 12.464 0.45053-0.80506 1.0615-7.4955 1.3576-14.868zm44.798 14.846c0.48393-1.4056-1.0796-6.7471-2.4002-8.2-0.49741-0.54723-0.86352 0.97201-0.86352 3.5833 0 2.4933 0.3 4.8333 0.66667 5.2 1.0348 1.0348 2.1242 0.79009 2.597-0.58333zm-20.25-17.137c-1.9017-1.9017-3.0001 1.4757-2.4024 7.3868 0.88318 8.734 1.6582 9.0618 2.6122 1.1049 0.61587-5.1363 0.55177-7.73-0.20983-8.4916zm-19.013 4.8277c0-6.6032-0.30747-8.441-1.4122-8.441-1.1066 0-1.4003 1.7854-1.3573 8.25 0.0581 8.7266 0.33914 10.134 1.8386 9.2073 0.51199-0.31643 0.9309-4.3738 0.9309-9.0163zm-51.311 3.809c-0.25153-0.9625-0.45733-0.175-0.45733 1.75s0.2058 2.7125 0.45733 1.75 0.25152-2.5375 0-3.5zm84.102-3.2868c-0.61532-10.629-2.3646-12.465-3.3257-3.4903-0.51007 4.763-0.34363 7.3872 0.57774 9.1088 2.3697 4.4278 3.228 2.6729 2.748-5.6185zm10.438 1.0368c-0.432-2.475-1.223-4.275-1.7578-4-1.2058 0.62006-0.87164 4.895 0.67726 8.6644 1.5319 3.728 2.1099 1.2329 1.0805-4.6644zm-97.245-0.75c8e-3 -0.6875-0.43469-1.25-0.98469-1.25s-0.99311 1.2375-0.98469 2.75c0.0119 2.1429 0.22931 2.4189 0.98469 1.25 0.53316-0.825 0.97627-2.0625 0.98469-2.75zm80.922-10.661c0.0791-4.6417-0.27678-8.6994-0.79078-9.017-1.5671-0.96854-3.5267 13.232-2.2213 16.097 1.8691 4.1022 2.8613 1.7699 3.012-7.0799zm-14.084-0.71169c-0.34376-3.596-2.06-4.5995-2.6477-1.5481-0.19374 1.006-0.0625 2.9836 0.29166 4.3946 0.91635 3.651 2.7638 1.4189 2.356-2.8466zm-52.743-1.6272c-0.83156-1.4277-1.0193-1.1054-1.0193 1.75s0.18772 3.1777 1.0193 1.75c0.69237-1.1887 0.69237-2.3113 0-3.5zm79.344-5.6145c-0.44519-12.411-4.9641-40.44-5.3217-33.008-0.0563 1.1702-0.78062 2.6904-1.6096 3.3784-1.27 1.054-1.6789 0.7584-2.5978-1.8776-1.4634-4.1978-2.5095-3.9403-3.2682 0.80451-0.43314 2.7087-1.2483 4.1296-2.6189 4.5646-3.2381 1.0277-4.0146-0.23712-2.4477-3.9872 1.8491-4.4254 1.9876-3.9896-2.0192-6.3536l-3.459-2.0409 1.4959-4.3903c1.133-3.3252 2.3361-4.7909 4.959-6.0417 5.3018-2.5283 4.476-4.4179-2.2869-5.2326-5.4829-0.66054-9.3475-1.9981-13.75-4.7589-7.7952-4.8884-13.275-8.716-14.374-10.041-0.70816-0.85329-3.3887-2.5592-5.9566-3.791-4.359-2.0908-10.117-7.3047-10.153-9.1938-0.0409-2.1318-2.377 0.30904-3.7024 3.8683-2.6808 7.1993-2.6998 8.1879-0.18386 9.5344 1.281 0.68555 2.8675 1.7379 3.5256 2.3385s5.1024 3.5487 9.8761 6.5512l8.6796 5.4592-0.682 6.0408c-0.37509 3.3225-0.94281 7.3483-1.2616 8.9463-0.78459 3.933 1.356 2.5854 2.2326-1.4055 1.0707-4.875 2.4976-4.4855 2.5318 0.69098 0.0294 4.4459 0.14267 4.6624 1.5 2.8679 1.9109-2.5264 1.8952-7.4578-0.0261-8.195-0.82184-0.31537-1.2402-0.98439-0.92979-1.4867 1.354-2.1909 12.234 7.8695 15.559 14.387 1.0654 2.0882 2.7084 4.6953 3.6511 5.7934 2.4398 2.8417 5.3878 8.0456 10.731 18.943 8.4229 17.177 8.9077 18 10.61 18 1.475 0 1.6256-1.2038 1.297-10.364zm-18.491-2.07c1.2513-8.4105 0.84061-13.969-1.1216-15.182-1.8815-1.1628-2.8348 2.0231-2.728 9.1166 0.12699 8.4344 0.91492 14.5 1.8836 14.5 0.39115 0 1.2759-3.7955 1.966-8.4345zm-14.684 2.9107c0.47948-2.5082-0.38677-4.0053-1.6098-2.7823-0.96605 0.96606-0.76652 5.3062 0.24394 5.3062 0.48589 0 1.1005-1.1357 1.3659-2.5239zm-7.6451-3.2053c-0.3323-0.33229-0.56864 0.25834-0.52522 1.3125 0.048 1.165 0.28494 1.4019 0.60416 0.60417 0.28887-0.72188 0.25335-1.5844-0.0789-1.9167zm15.214-3.8118c-0.41676-4.9826-2.8182-5.9405-2.8182-1.1242 0 1.9258 0.28475 4.2436 0.63278 5.1506 1.0664 2.779 2.5292 0.0839 2.1854-4.0264zm-51.419 0.20713c0.44651-1.8587 0.32286-2.6126-0.35933-2.191-0.57204 0.35354-1.0401 1.8162-1.0401 3.2504 0 3.1346 0.47899 2.7719 1.3994-1.0595zm29.015-11.624c0.36681-4.6516 0.37669-8.1671 0.022-7.8124-1.0857 1.0857-3.3869 14.735-2.7598 16.369 1.1108 2.8948 2.0715-0.10773 2.7378-8.557zm15.586 7.3983c0-0.85746-0.45-1.2809-1-0.94098s-1 1.0415-1 1.559 0.45 0.94098 1 0.94098 1-0.70156 1-1.559zm7.9682-9.691c-0.0175-2.8875-0.63482-6.0446-1.3718-7.0158-1.2251-1.6144-1.3939-1.4965-1.9682 1.375-0.82206 4.1103-0.80221 9.3835 0.0385 10.224 0.36666 0.36667 1.2667 0.66667 2 0.66667 0.94583 0 1.3241-1.5258 1.3015-5.25zm-48.984-2.5c8e-3 -1.2375-0.43469-2.25-0.98469-2.25s-0.99311 1.6875-0.98469 3.75c0.0114 2.7894 0.26364 3.3658 0.98469 2.25 0.53316-0.825 0.97627-2.5125 0.98469-3.75zm7.409-5.75c0.45371-6.1924 0.34396-8.5321-0.35182-7.5-0.90536 1.343-1.5669 17.929-0.67473 16.917 0.20192-0.22917 0.66386-4.4667 1.0266-9.4167zm4.4077-6c-6.1e-4 -3.919-0.17387-4.4595-0.80142-2.5-0.44035 1.375-0.78214 6.1-0.75952 10.5 0.0405 7.8756 0.0529 7.9145 0.80142 2.5 0.41817-3.025 0.75995-7.75 0.75952-10.5zm30.439 10.351c0.58426-6.0806-0.0643-9.7358-1.3637-7.6858-1.1195 1.7661-1.1228 12.835-4e-3 12.835 0.48002 0 1.0954-2.3169 1.3675-5.1487zm-7.6361-0.58047c-0.3323-0.33229-0.56864 0.25834-0.52522 1.3125 0.048 1.165 0.28494 1.4019 0.60416 0.60417 0.28887-0.72188 0.25335-1.5844-0.0789-1.9167zm4.3198-13.104c0.047-1.4424-0.40124-2.176-1.1739-1.9214-0.75894 0.25011-1.3309 2.5417-1.456 5.8333l-0.20596 5.4214 1.3799-3.5c0.75893-1.925 1.4141-4.55 1.456-5.8333zm-39.32 5.1042c-0.3323-0.33229-0.56864 0.25834-0.52522 1.3125 0.048 1.165 0.28494 1.4019 0.60416 0.60417 0.28887-0.72188 0.25335-1.5844-0.0789-1.9167zm24.843-15.521c0.46714-3.8571 0.3435-5.75-0.37556-5.75-0.58958 0-1.1085 0.3375-1.1532 0.75l-0.35161 3.25c-0.14871 1.375-0.56403 4.975-0.92294 8-0.62076 5.2319-0.58531 5.3538 0.72717 2.5 0.75886-1.65 1.6931-5.5875 2.0761-8.75zm-6.7852 3c-0.27741-0.6875-0.50439-0.125-0.50439 1.25s0.22698 1.9375 0.50439 1.25 0.27741-1.8125 0-2.5zm-3.2873-4.875c0.90609-4.5304 0.76625-9.875-0.25837-9.875-1.2092 0-2.0866 3.6507-2.103 8.75-0.0159 4.9565 1.4549 5.6572 2.3614 1.125zm-5.008-0.625c1.4261-7.4568 1.727-11.25 0.89263-11.25-0.93659 0-3.2596 8.6064-3.2596 12.076 0 2.9173 1.7692 2.2997 2.367-0.82629zm-3.4526-8.75c0.0403-2.9341-0.20333-3.6003-0.9144-2.5-0.53316 0.825-0.94464 3.525-0.9144 6 0.0418 3.4246 0.26035 4.0221 0.9144 2.5 0.47269-1.1 0.88417-3.8 0.9144-6zm14.921 3.8022c-1.3675-1.6477-2.8358-0.73366-2.8358 1.7653 0 1.6822 0.26724 1.7826 1.9492 0.73219 1.4382-0.89815 1.6706-1.5529 0.88669-2.4975zm173.94-17.052c-0.0719-3.1625 0.19336-6.7266 0.58951-7.9203 0.65407-1.9708 0.40835-2.1456-2.6728-1.9011-1.8662 0.14808-3.9102 0.58878-4.5421 0.97935-1.6624 1.0274-1.4118 3.5921 0.351 3.5921 0.83333 0 1.5 0.88889 1.5 2 0 1.1-0.45 2-1 2-1.861 0-1.0145 2.1834 1.0566 2.725 1.1318 0.29598 1.8373 1.1092 1.5689 1.8086-0.57595 1.5009 0.2045 2.4663 1.9938 2.4663 0.91396 0 1.2481-1.6632 1.1551-5.75zm15.535-0.78468c-0.18279-3.0441-0.43965-6.0816-0.57079-6.75s0.5113-1.1591 1.4276-1.0904 1.8757-0.67651 2.1318-1.656c0.56373-2.1557-1.6523-2.6954-8.9-2.1675-4.855 0.35365-5.0972 0.50649-5 3.1556 0.0652 1.7773 0.55104 2.6124 1.3437 2.3097 2.4173-0.92322 2.696 2.9605 0.34893 4.8611-1.5328 1.2412-2.0456 2.4383-1.6195 3.7809 0.63384 1.997 2.5902 2.7108 8.0998 2.9551l3.0708 0.13618-0.33235-5.5347zm6.4983 0.70696c0.1813-2.4599-0.12651-4.1723-0.75-4.1723-0.58163 0-1.0575 0.61875-1.0575 1.375s-0.2933 2.8415-0.65179 4.6339c-0.50785 2.5393-0.34222 3.157 0.75 2.7973 0.83029-0.27344 1.5272-2.1627 1.7093-4.6339zm-3.6242-6.389c-0.71756-0.71756-1.1833-0.7766-1.1833-0.15 0 1.3348 1.1826 2.5174 1.85 1.85 0.28417-0.28416-0.0158-1.0492-0.66667-1.7zm4.8167-4.7833c0-0.55-0.47656-1-1.059-1s-0.7809 0.45-0.44098 1 0.81648 1 1.059 1 0.44098-0.45 0.44098-1zm-60.575-17.879c0.78328-1.2674-2.4061-7.2511-3.5034-6.573-1.3176 0.81429-1.1385 4.8345 0.27849 6.2515s2.4795 1.5277 3.2249 0.32146zm80.432-2.264c0.96962-1.5526 0.98749-2.3399 0.078-3.4358-1.6723-2.015-2.6269-1.7672-3.1898 0.82836-0.26839 1.2375-0.80639 3.0047-1.1956 3.927-1.0254 2.4304 2.6731 1.2973 4.3074-1.3196zm-43.189-9.347c0.26287-2.1943 0.28076-3.7693 0.0398-3.5-1.0059 1.1239-4.4342 11.93-3.9413 12.423 0.92256 0.92256 3.4012-4.7458 3.9015-8.9226zm40.065-3.4685c-0.27533-2.0527 0.11884-5.1613 0.88572-6.9852 1.8435-4.3844 1.7641-4.8634-0.86817-5.2372-1.7998-0.25561-2.3507-1.12-2.7532-4.3196-0.37377-2.971-0.69351-3.5335-1.2429-2.1866-1.0242 2.5108-2.7538 1.1464-2.7538-2.1724 0-1.5075-0.46836-3.2093-1.0408-3.7818-0.71506-0.71506-0.72271-2.4207-0.0244-5.45 1.315-5.7049 1.3175-7.9092 9e-3 -7.9092-1.4424 0-5.2345 8.7999-4.5551 10.57 0.58186 1.5163-3.0283 8.4295-4.402 8.4295-0.44865 0-1.9475 2.025-3.3308 4.5s-2.1271 4.5-1.6529 4.5 1.125-0.82795 1.4462-1.8399 1.814-2.4744 3.3174-3.25 3.1953-1.9971 3.7598-2.7145 1.7826-1.0142 2.7069-0.65954c2.3157 0.8886 1.2092 6.2499-1.8916 9.1662-1.2879 1.2112-2.3416 2.4066-2.3416 2.6564 0 0.6633 4.3097-0.49967 5.6181-1.516 0.80961-0.62891 0.90647 0.28874 0.35107 3.326-0.95974 5.2484-0.2746 7.6314 1.4974 5.208 1.2907-1.7651 3.5334-1.1415 3.5334 0.98241 0 1.7438 2.1312 3.6779 3.2744 2.9714 0.52481-0.32435 0.73095-2.2542 0.45809-4.2885zm4.2676 3.958c0-0.55-0.45-1-1-1s-1 0.45-1 1 0.45 1 1 1 1-0.45 1-1zm-45.982-6.4889c0.80893 0.49995 1.0804 0.28326 0.77894-0.62188-0.25443-0.76406-1.2128-1.5347-2.1297-1.7125-1.1736-0.22762-1.6626 0.36442-1.6518 2 0.0113 1.7119 0.24502 1.9607 0.8882 0.9452 0.49772-0.78581 1.4065-1.0483 2.1144-0.6108zm46.824-3.5111c1.5721-2.1264 1.8192-3 0.84857-3-0.75318 0-1.8916 1.1462-2.5299 2.547-2.0456 4.4895-1.4263 4.6563 1.6814 0.45295zm-22.422-21.19c0.84353-1.2043 1.3566-2.3668 1.14-2.5833-0.42553-0.42554-4.5603 3.4487-4.5603 4.273 0 1.2864 2.0425 0.27743 3.4203-1.6897zm-31.943-11.882c-0.4204-1.3246-0.0262-2.7693 1.0932-4.0061 0.96287-1.064 1.4147-2.2692 1.0041-2.6783s-1.5675 0.26863-2.5708 1.5061-2.3146 2.25-2.9139 2.25-1.0897 0.72314-1.0897 1.607c0 1.0176 0.55016 1.3959 1.5 1.0314 0.91371-0.35062 1.5-2e-3 1.5 0.89301 0 0.80774 0.48032 1.4686 1.0674 1.4686 0.62462 0 0.79464-0.85936 0.40986-2.0717zm-20.493-11.043c8e-3 -0.88833 0.92323-2.7694 2.0329-4.1801 1.1201-1.424 1.5957-2.8257 1.0691-3.1512-0.96697-0.59762-1.6089 0.12464-3.8314 4.3107-1.5358 2.8927-1.7681 8.4766-0.25527 6.1357 0.53316-0.825 0.97627-2.2268 0.98469-3.1151zm-142.54-0.97027c-0.32197-0.52097-1.0116-0.68378-1.5326-0.3618s-0.68378 1.0116-0.3618 1.5326 1.0116 0.68378 1.5326 0.3618 0.68378-1.0116 0.3618-1.5326zm2.5528-1.9736c0-0.58246-0.45-0.7809-1-0.44098s-1 0.81648-1 1.059 0.45 0.44098 1 0.44098 1-0.47656 1-1.059zm46.604-3.6702c-1.0165-1.0165-1.8552 0.51389-1.0212 1.8634 0.63003 1.0194 0.86558 1.0202 1.2043 4e-3 0.2316-0.69478 0.14921-1.5351-0.18308-1.8674zm-2.0665-7.0208c-1.0342-4.1874-2.5376-5.1452-2.5376-1.6167 0 3.1308 0.64393 4.3667 2.2751 4.3667 0.52534 0 0.64144-1.216 0.26258-2.75zm143.46-0.35699c0-0.49116-0.675-0.89301-1.5-0.89301s-1.5 0.66088-1.5 1.4686c0 0.8946 0.58629 1.2436 1.5 0.89302 0.825-0.31659 1.5-0.97746 1.5-1.4686zm-36-5.452c0-0.24254-0.45-0.44098-1-0.44098s-1 0.47656-1 1.059 0.45 0.7809 1 0.44098 1-0.81648 1-1.059z"/>
</svg>
