<?xml version="1.0" encoding="UTF-8"?>
<svg viewBox="0 0 744.09 1052.4" xmlns="http://www.w3.org/2000/svg">
 <path d="m-350.49 2470.6c-25.606-3.7351-34.912-7.1524-43.447-15.954-5.9737-6.1604-14.688-10.858-19.364-10.44-12.877 1.1524-39.201-9.2485-39.201-15.489 0-3.2083-8.3327-6.7546-19.969-8.4985-21.291-3.1907-40.128-12.074-49.59-23.385-6.791-8.1187-37.755-12.561-49.712-7.1318-16.305 7.4037-55.743-7.3645-79.035-29.596-16.711-15.95-25.635-20.981-41.401-23.341-25.395-3.8014-34.75-14.423-28.975-32.895 2.2968-7.3459 10.53-42.576 18.295-78.29 20.112-92.496 25.934-115.6 50.294-199.61 11.927-41.132 24.444-87.038 27.815-102.02 16.464-73.147 98.627-266.44 141.75-333.47 25.176-39.135 78.912-114.92 83.117-117.23 9.7921-5.3681 18.257-33.963 18.34-61.952 0.07302-24.718-3.9544-40.682-23.387-92.699-28.277-75.692-40.384-124.66-36.348-147.01 7.3111-40.486 8.6365-81.503 3.833-118.62-2.8605-22.102-6.4324-54.741-7.9376-72.531-3.0549-36.108-6.1916-32.737 36.039-38.727 16.288-2.3104 17.535-1.6354 24.714 13.374 30.472 63.711 69.429 107.42 105.09 117.89 52.442 15.409 154.12 8.5731 197.81-13.298 21.737-10.883 61.478-55.978 80.59-91.446 14.541-26.987 23.508-31.119 54.238-24.995 10.669 2.1263 20.085 4.5048 20.924 5.2854 0.83956 0.78064-1.4054 15.093-4.9888 31.805-6.1161 28.524-9.9699 61.044-20.89 176.28-5.4863 57.895-15.56 102.7-30.159 134.13-27.64 59.505-36.956 92.862-35.169 125.92 1.8017 33.33 6.6183 44.546 49.773 115.9 17.039 28.171 27.64 48.727 49.534 96.051 5.33 11.52 18.655 37.913 29.611 58.65 31.021 58.714 111.17 247.66 130.16 306.86 6.0992 19.009 12.696 34.562 14.66 34.562 1.9639 0 2.7288 3.8778 1.6999 8.6174-1.029 4.7395 0.36818 13.694 3.1049 19.899 2.7367 6.2049 5.9408 16.937 7.1201 23.849 1.1794 6.9123 4.0231 18.223 6.3194 25.136 2.2963 6.9123 8.6807 46.501 14.188 87.974 5.5069 41.474 12.386 82.947 15.288 92.164 2.9015 9.2163 4.7348 19.403 4.0742 22.638-2.008 9.831-20.398 20.934-45.989 27.765l-24.283 6.4825 0.6693 23.562 0.6693 23.562-44.866 9.0484c-32.048 6.4634-45.285 10.976-46.333 15.794-0.80673 3.7101-7.1825 7.7143-14.168 8.8984-15.792 2.6768-99.121 8.949-111.73 8.4099-5.1133-0.2186-12.428 2.3795-16.254 5.7735-5.0106 4.4446-13.64 5.5973-30.846 4.1206-28.99-2.4879-35.697-0.6672-35.697 9.6915 0 10.861-16.044 13.92-74.376 14.178-32.176 0.1428-48.404 1.774-48.408 4.8662-0.0093 6.2402-123.49 5.8604-167.19-0.514z"/>
</svg>
