<?xml version="1.0" encoding="UTF-8"?>
<svg viewBox="0 0 312.5 187.5" xmlns="http://www.w3.org/2000/svg" xmlns:xlink="http://www.w3.org/1999/xlink">
 <defs>
  <linearGradient id="a">
   <stop stop-color="#ad6e44" offset="0"/>
   <stop stop-color="#ad6e44" stop-opacity="0" offset="1"/>
  </linearGradient>
  <linearGradient id="l" x1="171.23" x2="150.48" y1="193.84" y2="202.56" gradientTransform="scale(1.071 .93369)" gradientUnits="userSpaceOnUse">
   <stop stop-color="#a46941" offset="0"/>
   <stop stop-color="#a46941" stop-opacity="0" offset="1"/>
  </linearGradient>
  <linearGradient id="k" x1="318.08" x2="396.69" y1="192.33" y2="160.2" gradientTransform="scale(.63398 1.5773)" gradientUnits="userSpaceOnUse">
   <stop stop-color="#a86b42" offset="0"/>
   <stop stop-color="#a86b42" stop-opacity="0" offset="1"/>
  </linearGradient>
  <linearGradient id="j" x1="286.48" x2="327.09" y1="184.5" y2="169.04" gradientTransform="scale(.76209 1.3122)" gradientUnits="userSpaceOnUse">
   <stop stop-color="#a56941" offset="0"/>
   <stop stop-color="#a56941" stop-opacity="0" offset="1"/>
  </linearGradient>
  <linearGradient id="h" x1="253.99" x2="347.17" y1="117.97" y2="116.78" gradientTransform="scale(.49943 2.0023)" gradientUnits="userSpaceOnUse">
   <stop stop-color="#ab6d43" offset="0"/>
   <stop stop-color="#ab6d43" stop-opacity="0" offset="1"/>
  </linearGradient>
  <linearGradient id="g" x1="221.35" x2="212.18" y1="253.42" y2="208.25" gradientTransform="scale(.83473 1.198)" gradientUnits="userSpaceOnUse">
   <stop stop-color="#9d643e" offset="0"/>
   <stop stop-color="#9d643e" stop-opacity="0" offset="1"/>
  </linearGradient>
  <linearGradient id="f" x1="212.69" x2="232.7" y1="126.3" y2="113.77" gradientTransform="scale(.46029 2.1726)" gradientUnits="userSpaceOnUse">
   <stop stop-color="#9d643d" offset="0"/>
   <stop stop-color="#9d643d" stop-opacity="0" offset="1"/>
  </linearGradient>
  <linearGradient id="e" x1="162.2" x2="130.16" y1="227.16" y2="221.29" gradientTransform="scale(.76249 1.3115)" gradientUnits="userSpaceOnUse">
   <stop stop-color="#9e643e" offset="0"/>
   <stop stop-color="#9e643e" stop-opacity="0" offset="1"/>
  </linearGradient>
  <linearGradient id="d" x1="397.81" x2="527.36" y1="183.25" y2="126.41" gradientTransform="scale(.62332 1.6043)" gradientUnits="userSpaceOnUse">
   <stop stop-color="#b07045" offset="0"/>
   <stop stop-color="#b07045" stop-opacity="0" offset="1"/>
  </linearGradient>
  <linearGradient id="c" x1="667.4" x2="519.91" y1="110.22" y2="87.552" gradientTransform="scale(.47485 2.1059)" gradientUnits="userSpaceOnUse">
   <stop stop-color="#a36840" offset="0"/>
   <stop stop-color="#a36840" stop-opacity="0" offset="1"/>
  </linearGradient>
  <linearGradient id="b" x1="378.69" x2="350.74" y1="132.21" y2="145.82" gradientTransform="scale(.85478 1.1699)" gradientUnits="userSpaceOnUse">
   <stop stop-color="#9b623d" offset="0"/>
   <stop stop-color="#9b623d" stop-opacity="0" offset="1"/>
  </linearGradient>
  <linearGradient id="m" x1="116.98" x2="103.45" y1="203.72" y2="210.82" gradientUnits="userSpaceOnUse" xlink:href="#a"/>
  <linearGradient id="i" x1="219.26" x2="198.73" y1="200.11" y2="213.23" gradientTransform="scale(1.1517 .86827)" gradientUnits="userSpaceOnUse" xlink:href="#a"/>
 </defs>
 <g transform="matrix(.95067 0 0 .95067 -13.307 -128.93)" fill-rule="evenodd">
  <path d="m31.541 310.84-9.1614-4.0717v-5.0896l8.6524-10.179-5.0896-8.1434 3.5628-9.1613 11.197-4.0717 13.233-6.1076 11.197-7.6345 8.1434 4.5807 0.50897 5.5986-2.5448 6.6165-4.5807-1.5269 1.0179 17.814 6.6165 23.412h-7.1255l-4.0717-14.76-2.5448-7.1255-1.0179-10.179-3.0538 10.179 4.5807 5.5986 1.5269 7.1255-6.1076 5.0896-2.5448-2.0358 1.0179-8.1434-5.0896-10.179-6.6165 3.0538v16.796l7.1255 6.1076v2.0359h-12.724l-2.0358-3.5628v-11.197l-1.0179-3.0538h-2.5448l-3.5628 6.6165 4.5807 1.5269-1.5269 4.0717z" fill="#774c2f"/>
  <path d="m60.675 270.63-1.1414 10.179-3.0538 10.179 4.5807 5.5986 1.5269 7.1255-6.1076 5.0896-2.5448-2.0358 1.0179-8.1434-5.0896-10.688 1.5525-12.932c2.0068-6.4961 5.813-8.6736 9.2593-4.373z" fill="#8b5836"/>
  <path d="m31.032 291.5-4.7222-8.6524 3.1954-8.6524c9.2593 0.36988 7.7218 13.696 13.742 17.305v16.796l7.1255 6.1076v2.0359h-12.724l-2.0358-3.5628v-11.197l-1.0179-3.0538-3.5628-7.1255z" fill="#8b5836"/>
  <path d="m65.132 256.38c4.7503-1.5269 7.2103 1.7814 8.1434 4.5807 3.3931 6.6165 0.16966 8.9069-2.0358 12.215l-4.5807-1.5269-3.6426-7.6345-3.0139-3.8172 5.1296-3.8172z" fill="#8b5836"/>
 </g>
 <g transform="matrix(.95067 0 0 .95067 -13.307 -128.93)" fill-rule="evenodd">
  <path d="m83.979 315.38 7.1255 4.0717h11.197l-2.0358-4.5807-4.5807 0.50897-3.5628-3.5628v-8.1434l6.6165-6.1076 3.5627-14.251h4.0717v12.724l1.0179 4.5807 2.0359 6.1076-1.5269 11.706h16.796l5.0896-2.5448-10.688-4.5807-2.5448-34.61-5.0896-15.778 2.0359-4.5807v-37.663l6.871-1.0179 1.2724-3.5628c-1.7814-7.9738-3.5628-10.858-10.688-14.76h-8.1434c-1.3572 1.5269-1.951 4.3262-1.0179 8.3979l-2.0358 6.871-7.1255 6.6165-2.0358 40.208 2.5448 5.0896-0.50897 17.305-6.6165 11.197-2.0358 20.359z" fill="#774c2f"/>
  <path d="m105.36 277.21-4.5807-10.179v-9.6703c-3.0538-14.421 3.0538-26.296-2.0358-40.208l-6.1076 4.0717 0.50897 36.136 3.5628 9.1614-0.50897 10.179 9.1614 0.50897z" fill="url(#f)"/>
  <path d="m105.36 283.32 1.0179 12.724 1.0179 4.5807 2.0359 6.1076-1.5269 11.706h16.796l5.0896-2.5448-10.688-4.5807-2.5448-34.61-10.179-18.832-6.6165-5.0896-8.1434 5.0896 1.5269 8.6524 12.215 16.796z" fill="url(#e)"/>
  <path d="m113.5 218.68 6.871-1.0179 1.2724-3.5628c-1.7814-7.9738-3.5628-10.858-10.688-14.76h-8.1434c-1.3572 1.5269-1.951 4.3262-1.0179 8.3979 1.7427 5.0871 5.2849 9.4545 11.706 10.943z" fill="url(#m)"/>
 </g>
 <g transform="matrix(.95067 0 0 .95067 -13.307 -128.93)" fill-rule="evenodd">
  <path d="m174.07 255.83 1.5269-19.85 4.0717-9.6703-2.0359-18.323-4.0717-6.6165 2.5448-5.0896 7.1255 0.50896 3.0538-4.0717-2.5192-6.7912-2.0614-3.9226-3.5627-6.082-12.215 1.5269-5.2643 6.344-0.9306 13.207-4.4934 5.8968-7.1255 21.885 0.50897 16.287 2.5448 18.832-0.59629 11.943 8.7397 3.3264-1.5269 8.1434-11.197 21.885-5.5986 11.197 14.76 6.6165 8.1434 0.50897-0.50896-4.0717-8.6524-7.1255 13.742-23.412 1.0179-10.179 6.6165 2.5448v17.814l12.215 20.359-1.0179 2.5448 19.341-1.0179-1.5269-2.0359-12.215-5.5986-8.6524-36.645-10.179-20.868z" fill="#774c2f"/>
  <path d="m174.07 259.07c-3.6756-7.0402-9.5106-9.4019-16.425-8.1646-1.6042 5.9294-1.0491 16.177 5.6242 21.387l6.2205 6.4419 6.6165 2.5448v17.814l12.215 20.359-1.0179 2.5448 19.341-1.0179-1.5269-2.0359-12.215-5.5986-8.6524-36.645-10.179-17.628z" fill="url(#g)"/>
  <path d="m155.71 254.75c1.1088-11.655 4.017-18.631 2.2467-29.567l9.1102-16.868c-0.64744-6.2907-3.4542-9.7024-7.3407-11.314l-4.4934 5.8968-7.1255 21.885 0.50897 16.287 2.5448 18.832-0.59629 11.943 8.3798 1.167 1.1776-6.0327-4.4122-12.228z" fill="url(#h)"/>
  <path d="m176.1 196.29c3.3931 1.3317 7.8659-0.57571 10.179-3.5628 0.88444-8.8376-2.9097-12.277-8.1434-16.796l-12.215 1.5269-5.2643 6.344-0.9306 13.207c4.7383 2.6392 10.916 3.1191 16.374-0.71978z" fill="url(#l)"/>
 </g>
 <g transform="matrix(.95067 0 0 .95067 -12.281 -128.93)" fill-rule="evenodd">
  <path d="m225.39 315.86c-1.9286-2.5288-2.7774-6.4972-1.8268-10.825l6.0073-7.336 6.0073-1.2178 2.4084 15.697-2.99 5.2602 0.9688 4.1806 16.084-0.13816 6.6162-0.27631-1.1851-3.8353-10.626-1.5269 3.5628-42.244 1.0179-10.688h7.6344v-8.6524l-7.1255-6.6165-1.5269-2.5448 0.50896-8.1434c-1.0179-12.385 5.8818-22.25-0.53454-35.355l-4.0461-4.8532v-6.1076l7.8708 0.71978 3.6245-5.5986c0.05675-7.4186-6.7244-12.678-13.506-16.498l-10.205 3.5628-4.0717 3.5627-1.5269 12.724-8.1434 15.778 3.0538 15.269 4.5807 8.1434-1.5269 9.1614c-5.2493 6.0458-3.3008 14.251 1.5269 21.376l3.0538 16.796 0.38547 6.4419-10.092 4.7915-3.9226 11.768-6.7294 7.5365 5.573 13.742c7.3519 2.9675 13.984 1.2564 9.0996-4.0536z" fill="#774c2f"/>
  <path d="m225.39 315.86c-1.9286-2.5288-2.7774-6.4972-1.8268-10.825l6.0073-7.336 6.0073-3.0173 9.4404-8.847c-3.1752-18.044 0.12763-47.964-19.243-49.812-4.2896 7.9652-3.1808 16.29 2.2467 22.816l3.0538 16.796 0.38547 6.4419-10.092 4.7915-3.9226 11.768-6.7294 7.5365 5.573 13.742c7.3519 2.9675 13.984 1.2564 9.0996-4.0536z" fill="url(#k)"/>
  <path d="m248.26 255.97 3.1773 6.9464h7.6344v-8.6524l-7.1255-6.6165-1.5269-2.5448-11.367-11.742c-3.1461-15.828-5.9323-30.935-11.598-37.046l-7.0637 8.58 3.0538 15.269 4.5807 8.1434 4.9512 13.48 15.284 14.183z" fill="url(#j)"/>
  <path d="m246.35 190.64 7.8708 0.71978 3.6245-5.5986c0.05675-7.4186-6.7244-12.678-13.506-16.498l-10.205 3.5628-4.0717 3.5627-1.5269 12.724 17.814 1.5269z" fill="url(#i)"/>
 </g>
 <path transform="matrix(.95067 0 0 .95067 -13.307 -128.93)" d="m300.98 291.82c0.16965 7.4648 1.9588 19.068-0.03088 28.693-0.84827 2.0359 17.495 1.83 27.335 1.4907-0.50896-1.3572-1.0179-4.154-1.5269-5.5113-4.7503-2.5448-9.5007-2.2105-14.251-4.7553-0.67862-2.0358-1.3572-5.5113-2.0358-7.5471 0-5.429 3.5875-13.369 3.5875-18.798 3.2234-2.3752 2.8593-2.2391 6.0828-4.6142 0.16965-15.778 0.33589-31.196-2.7232-46.974 2.5448 6.7862 6.0159 2.9041 10.638 12.601 0.56821 3.7605 1.4526 6.8404 4.5551 8.416 4.4534 1.3997 6.0409-1.7357 5.7059-2.9584-0.93248-3.4037-4.2189-6.712-5.3641-8.4933-5.5961-5.326-6.8735-13.488-11.285-18.068-0.33931-28.248-2.1418-34.788-9.1614-44.789l1.0179-6.1076 6.6165-0.50896c0.63745-4.3237 2.4987-9.8244-1.5269-15.269-0.50896-2.7145-3.7168-13.439-11.11-9.2487-6.4213 0.89443-6.3645 4.668-10.267 7.7218l-0.50896 11.706 4.0717 3.0538 0.50896 3.0538-7.1255 11.197-1.0179 8.6524 2.5448 27.484-1.5269 10.179-0.50896 8.1434 1.5269 3.0538c2.2055 9.84 4.0511 21.659 6.2566 31.499-7.4648 6.6165-14.57 11.254-22.035 17.87-6.0227 3.9869-10.349 3.4779-7.8889 11.197 0.50896 5.7683 1.2724 11.028 1.7814 16.796 3.0538 1.5269 4.8352 0.50896 6.1076-1.7814 0.50896-4.0717 0-9.1614 0.50896-13.233 2.2055-3.3931 3.3931-3.2234 5.5986-6.6165 4.411-1.5269 11.038-6.0074 15.449-7.5343z" fill="#774c2f" fill-rule="evenodd"/>
 <path transform="matrix(.95067 0 0 .95067 -13.307 -128.93)" d="m300.8 292.72c3.7686-3.5119 6.7912-1.5475 9.6703-4.8171l9.6703-7.1255c0.16965-15.778-3.8752-43.566-14.008-52.591-3.3881-0.74566-11.44 0.84684-11.949 4.2399l-0.50896 8.1434 1.5269 3.0538c2.2055 9.84 5.4907 22.559 10.575 29.34-9.0843 3.5574-18.888 13.413-26.353 20.03-6.0227 3.9869-10.349 3.4779-7.8889 11.197 0.50896 5.7683 1.2724 11.028 1.7814 16.796 3.0538 1.5269 4.8352 0.50896 6.1076-1.7814 0.50896-4.0717 0-9.1614 0.50896-13.233 2.2055-3.3931 3.3931-3.2234 5.5986-6.6165 4.411-1.5269 10.858-5.1077 15.269-6.6346z" fill="url(#d)" fill-rule="evenodd"/>
 <path transform="matrix(.95067 0 0 .95067 -13.307 -128.93)" d="m305.38 203.41c0.33931-10.01-0.84828-19.51-3.5628-23.412 0.33931-2.0359-5.2593 2.3752-7.6344 6.1076l-1.0179 8.6524c0.84827 9.1614 0.67862 22.394 1.5269 31.556-0.25448 1.6966 3.4638 8.2184 5.2278 16.895 1.1612 5.7117 2.7254 10.702 8.6633 14.604 3.9021-0.76345 2.3364-11.446-1.7923-18.931-5.2329-9.4866-3.0223-28.94-1.4106-35.472z" fill="url(#c)" fill-rule="evenodd"/>
 <path transform="matrix(.95067 0 0 .95067 -13.307 -128.93)" d="m312.5 180.51 1.0179-6.1076 6.6165-0.50896c0.63745-4.3237 2.4987-9.8244-1.5269-15.269-0.50896-2.7145-3.7168-13.439-11.11-9.2487-6.4213 0.89443-6.3645 4.668-10.267 7.7218l-0.50896 11.706 4.0717 3.0538 0.50896 3.0538c-2.3752 3.7324 13.912 9.5007 11.197 5.5986z" fill="url(#b)" fill-rule="evenodd"/>
</svg>
