<?xml version="1.0" encoding="UTF-8"?>
<svg viewBox="0 0 266.32 384" xmlns="http://www.w3.org/2000/svg">
 <path d="m112.46 123.29c-4.1412 0-7.935 2.0344-10.925 5.5003-5.1053-3.5142-10.798-4.5912-15.597-2.4111-8.7531 3.9764-11.203 17.359-5.5003 29.912 5.7028 12.553 17.392 19.498 26.145 15.521 0.02002 0.010223 0.055267-0.010132 0.075317 0 1.8116 0.91632 3.7724 1.4316 5.8017 1.4316 2.704 0 5.2506-0.90726 7.5346-2.4864 0.15079 0.076202 0.2973 0.15573 0.45206 0.22604 8.7531 3.9764 20.518-2.9679 26.22-15.521 5.7028-12.553 3.1775-26.011-5.5756-29.988-5.3508-2.4308-11.81-0.75525-17.33 3.7673-3.044-3.734-6.9853-5.9524-11.302-5.9524z" fill="#c00" stroke-dasharray="2,2" stroke-linecap="round" stroke-linejoin="round" stroke-width="2"/>
 <path d="m137.1 199.77c7.9947 6.5411 119.92 79.947 105.38 119.19-22.755 12.608-45.061 7.268-45.061 7.268l-8.3582 10.538-6.1777 6.1777-47.968-45.061 2.1804-98.117z" fill="#d3d7cf" fill-rule="evenodd"/>
 <path d="m127.38 221.52c-2.1592-0.001343-4.4568 0.029907-6.8137 0.070862-90.668 1.5658-47.514 19.336-47.514 43.182l-11.853 76.909 140.13-0.4011c2.9658-28.731-26.319-61.638-25.892-78.21 0-23.101 18.875-41.51-48.059-41.551z" fill="#a40000" stroke="#850000" stroke-linecap="round" stroke-linejoin="round" stroke-width="2.907"/>
 <g fill-rule="evenodd">
  <g fill="#d60000" stroke="#a40000" stroke-width="2.261">
   <path d="m172.21 228.93c4.877 20.854 49.178 94.587 38.996 94.383-67.483-1.346-97.251 35.96-98.904 3.1085-0.3974-7.8973 5.728-11.409-4.2387-24.867 14.733-14.652 38.341 6.4492 63.581-4.5213-5.2001-12.029-19.44-31.951-16.955-46.626 1.3884-8.1981 15.627-29.573 17.52-21.476z"/>
   <path d="m67.19 227.24c-4.877 20.854-49.178 94.587-38.996 94.383 67.483-1.346 97.251 35.96 98.904 3.1084 0.3974-7.8972-5.728-11.409 4.2387-24.867-14.733-14.652-38.341 6.4492-63.581-4.5213 5.2001-12.029 19.44-31.951 16.955-46.626-1.3884-8.1982-15.627-29.573-17.52-21.476z"/>
  </g>
  <path d="m103.52 301.09l11.306-4.6253s-10.792 33.919-7.1949 35.974c3.5974 2.0557-20.043-3.0835-20.043-5.6531s17.987-24.668 15.932-25.696z" fill="#a40000"/>
  <path d="m91.844 208.72c-31.134 5.6331-63.344 68.471-58.35 104.22 22.998 10.743 71.123 21.359 73.426 0.20264 2.6929-13.346 3.161-83.452-5.0137-89.719-4.0556-3.798-9.531-7.3597-10.062-14.7z" fill="#204a87" stroke="#000" stroke-width="1.978"/>
 </g>
 <g transform="matrix(2.9072 0 0 2.9072 -1231.2 -617.51)">
  <path d="m465.43 294.45c6.71e-4 1.0989-0.99084 1.99-2.2142 1.99-1.2233 0-2.2148-0.89114-2.2142-1.99-6.41e-4 -1.0989 0.99088-1.99 2.2142-1.99s2.2148 0.89114 2.2142 1.99z" fill="#f7d917" stroke="#c4a000" stroke-linecap="round" stroke-linejoin="round" stroke-width=".599"/>
  <path d="m461.29 294.23s1.0064-3.2203 3.6229-0.40253c-1.4089 0.30191-3.8242 0.40253-3.6229 0.40253z" fill="#fff" fill-rule="evenodd"/>
 </g>
 <g fill-rule="evenodd" stroke="#000">
  <path d="m94.584 198.24c-14.696 2.0406-26.414 18.951-34.243 34.376-1.3394 15.104 9.4708 33.842 17.772 43.219 28.611-44.767 32.698-18.857 35.001-40.014 2.6928-13.346-0.29295-16.614-8.4677-22.881-4.0557-3.7979-9.5309-7.3596-10.062-14.7z" fill="#fff" stroke-width="1.978"/>
  <g stroke-width="2.353">
   <path d="m149.33 210.01c44.18 5.6164 89.886 68.269 82.801 103.91-32.635 10.711-100.93 21.296-104.19 0.20203-3.8212-13.307-4.4856-83.206 7.1146-89.454 5.7551-3.7867 13.525-7.3379 14.278-14.656z" fill="#204a87"/>
   <path d="m145.04 199.84c20.854 2.0346 37.482 18.895 48.592 34.274 1.9007 15.06-13.439 33.742-25.219 43.091-40.599-44.634-46.4-18.801-49.667-39.896-3.8212-13.307 0.41559-16.565 12.016-22.813 5.7551-3.7868 13.525-7.3379 14.278-14.656z" fill="#fff"/>
  </g>
 </g>
 <g fill="#2e3436" stroke-linecap="round" stroke-linejoin="round">
  <path d="m88.423 250.53c0 1.0924-0.7591 1.9781-1.6955 1.9781s-1.6955-0.88562-1.6955-1.9781c0-1.0924 0.75909-1.9781 1.6955-1.9781 0.93639 0 1.6955 0.88564 1.6955 1.9781z"/>
  <path d="m169.81 258.44c0 1.0924-0.75909 1.9781-1.6955 1.9781-0.9364 0-1.6955-0.88565-1.6955-1.9781 0-1.0925 0.75909-1.9781 1.6955-1.9781 0.9364 0 1.6955 0.88562 1.6955 1.9781z"/>
 </g>
 <g fill-rule="evenodd">
  <path d="m123.42 300.99c10.368 3.624 21.86 7.2972 32.873 5.1385 22.3 2.4986 14.676 11.351 3.4437 10.802 17.83 9.6506 3.0445 11.232-5.3937 6.0368 11.593 8.2006 1.7764 15.811-7.1482 5.1611-10.514-0.074524-11.074 3.0657-22.355 3.6485-1.1747-4.6256-7.573-28.471-1.4196-30.787z" fill="#f7e3d6" stroke="#000" stroke-width="2.261"/>
  <path d="m57.153 241.2s3.8327 8.2034 3.9974 11.992c-3.5671 14.257-14.238 33.558-14.172 59.234-2.7944 1.5721-8.6819-0.4331-10.175-3.2706 1.3549-14.472 14.172-68.318 20.35-67.955z" fill="#729fcf"/>
 </g>
 <path d="m147.41 328.73l4.7053 5.0833-6.3177 18.346-6.6213-2.6199 8.2338-20.81z" fill="#d7d31e" stroke-linecap="round" stroke-linejoin="round"/>
 <path d="m103.92 249.63c-1.817 8.694-2.2846 42.306-8.7366 62.698-4.1995 4.4766-19.734-2.0189-20.043 4.1113-0.2598 5.1624 11.297 5.6028 16.445 5.1392 3.6402-0.32782 9.2506-1.0278 10.792-5.6531 5.5391-11.166 1.5418-67.216 1.5418-66.296z" fill="#182b48" fill-rule="evenodd"/>
 <g stroke-linecap="round" stroke-linejoin="round">
  <path d="m127.22 221.75c0 1.0924-0.7591 1.9781-1.6955 1.9781s-1.6955-0.88562-1.6955-1.9781c0-1.0924 0.7591-1.9781 1.6955-1.9781s1.6955 0.88564 1.6955 1.9781z" fill="#2e3436"/>
  <path d="m81.798 160.27c-0.50674 2.0014-1.7471 5.5478-1.3245 7.6288 1.6353 8.0521 1.7913 10.583 1.9299 20.61 3.2633 16.123 16.713 23.794 27.02 23.794 20.613 0 36.85-11.402 36.85-28.233 0-2.1235 4.4515-20.163 3.9448-22.165 0 0-22.529-7.034-34.937-5.996-21.155 1.7696-33.483 4.3608-33.483 4.3608z" fill="#f7e3d6"/>
  <g fill="#ebb999" stroke-dasharray="2,2" stroke-width="2">
   <path d="m96.411 177.88c0 2.4278-2.7733 4.396-6.1943 4.396s-6.1943-1.9682-6.1943-4.396 2.7732-4.396 6.1943-4.396c3.421 0 6.1943 1.9682 6.1943 4.396z"/>
   <path d="m125.98 177.34c0 2.9796-3.9363 5.395-8.7919 5.395-4.8557 0-8.7919-2.4154-8.7919-5.395s3.9362-5.395 8.7919-5.395c4.8556 0 8.7919 2.4154 8.7919 5.395z"/>
  </g>
 </g>
 <g fill="none" stroke="#000" stroke-width="2.261">
  <path d="m105.6 184.87c1.2155 1.2154-2.2285 2.6587-2.9972 4.1962"/>
  <path d="m111.6 173.88c-0.30759 0 3.0625-0.39966 5.9945-0.39966 2.4431 0 6.975 0.38113 8.5921 1.9982 0.52701 0.52698 2.1167-0.029663 0.39963 0.39963"/>
  <path d="m115.91 174.67c0.05545 0.05545-0.25986 1.8781 0 2.3978 0.21683 0.43368 0.91382 0.3996 1.3987 0.3996 0.69876 0 2.4308-0.45779 2.9972-0.59943 1.0856-0.27139 1.273-0.81378 0.79929-1.9982-0.20142-0.50354-1.1332-0.21625-1.9982 0"/>
  <path d="m85.203 176.96c-0.24771-0.61929 6.1771-2.162 7.2477-2.162 1.3988 0 3.1608 0.81766 4.5595 0.81766h-0.39964"/>
  <path d="m89.018 176.02c0.89362 0 0.48397 1.8617 1.1989 2.3978 1.5243 1.1432 2.4516-0.25354 3.3969-1.1989 0.55692-0.55692 0.29315-0.41284 0-0.99912"/>
 </g>
 <path d="m132.92 161.85c-0.25934 0.013214-0.573 0.053864-0.84775 0.14127h1.8368c-0.32312-0.10751-0.63882-0.15915-0.98904-0.14127zm-0.1011-4.2195c9.2018 1.8525 8.6911 33.256 8.7906 36.646-3.4187 3.8349-7.3197 7.3652-11.445 10.244-3.2274-6.1544-14.112-10.102-23.101-10.102-7.1392 3.1e-5 -13.285 2.5316-16.602 6.6407-4.1233-5.5926-6.9627-12.647-8.6188-19.569-0.37283 1.7199-0.6358 3.4871-0.6358 5.2984-4.6e-5 16.831 8.4928 42.176 29.106 42.176 20.613-3.1e-5 45.637-25.344 45.637-42.176 0-0.18951-3.3369-0.37622-0.070618-0.56519 4.1838-2.9266 3.0491-0.4017 4.7322-2.3907 4.396-5.1952-9.8101-22.144-9.8101-22.144l-17.983-4.0579zm-28.864 45.053c1.0234-0.048187 2.0351 0 3.1084 0 6.4402 0 14.746 0.64288 19.569 4.0974-5.4628 3.206-11.182 5.2278-16.672 5.2278-6.4416 0-11.745-2.7534-16.037-6.9939 2.7098-1.5138 6.1739-2.1498 10.032-2.3313z" fill="#8f5902" stroke-dasharray="2,2" stroke-linecap="round" stroke-linejoin="round" stroke-width="2"/>
 <g fill="none" stroke="#000" stroke-width="2.261">
  <path d="m82.823 174.88c4.8545-3.8798 8.9506-2.6606 13.82-2.7365 2.0829 5.9511 0.7692 14.478-1.9292 20.681 3.2659 3.9461 10.504 3.5586 13.948-0.43756 1.6574-0.15311 3.3393 0.76996 4.904 1.7457"/>
  <path d="m98.892 204.88c2.2918 1.067 13.383 0.73062 20.911-1.4129"/>
  <path d="m104.26 208.84c0.53494 0.13373 7.9979 0 9.4272 0"/>
 </g>
 <g fill="#2e3436" stroke="#2e3436" stroke-linecap="round" stroke-linejoin="round" stroke-width="3.09">
  <path d="m82.773 211.21c-0.40149 0.001251-0.29831-0.015747-0.4613 0.2923-0.12073 0.332-0.040627 0.66031 0.031677 0.99121 0.10608 0.35251 0.31076 0.65793 0.44305 0.99988 0.16343 0.3555 0.38953 0.67795 0.65492 0.96393l-0.1956 0.141c-0.26614-0.28857-0.4966-0.61288-0.66296-0.96954-0.13284-0.34296-0.33893-0.64899-0.44568-1.0025-0.074463-0.33511-0.15665-0.66733-0.041115-1.0054 0.16621-0.33371 0.4755-0.62534 0.87192-0.56912l-0.1949 0.1583z"/>
  <path d="m74.525 220.93c-0.18134 0.41003 0.02005 0.84274 0.19079 1.2208 0.22566 0.56894 0.54248 1.0783 0.90406 1.5685 0.05896 0.083466 0.11795 0.16693 0.17694 0.25043l-0.1944 0.1362c-0.05899-0.083221-0.11798-0.1665-0.17697-0.24976-0.3659-0.48944-0.67584-1.0047-0.90646-1.5728-0.18015-0.38669-0.37561-0.81238-0.21757-1.2395l0.2236-0.1139z"/>
  <path d="m71.473 232.1c-0.35407 0.21606-0.65171 0.52197-0.94788 0.81912-0.34387 0.33328-0.51923 0.75571-0.63742 1.2097-0.084717 0.34015-0.088226 0.68012 0.050377 1.0031l-0.204 0.1367c-0.14065-0.32806-0.14074-0.67246-0.055923-1.0186 0.11605-0.45724 0.28796-0.88474 0.63235-1.2216 0.41162-0.41147 0.83679-0.8057 1.3453-1.0999l-0.1828 0.1714z"/>
  <path d="m81.192 238.76c-0.71127 0.056427-1.407 0.16068-2.0935 0.35858-0.59118 0.22574-0.65765 0.2084-0.77406 0.78613-0.019646 0.12762 0.05191 0.1564 0.16483 0.15045l-0.1916 0.1635c-0.12387-0.007324-0.21008-0.048065-0.18829-0.18842 0.023949-0.10147 0.018188-0.20978 0.051765-0.30853 0.14629-0.43094 0.74026-0.5899 1.1092-0.75842 0.69206-0.19528 1.3934-0.29691 2.1077-0.36758l-0.1861 0.1643z"/>
  <path d="m93.002 234.85c-0.51706 0.63687-0.90036 1.3392-1.2082 2.0962-0.21967 0.65952-0.38731 1.3406-0.43912 2.0358-0.073845 0.99075 0.043396-0.055206-0.038574 0.6318-0.005524 0.047058-0.011017 0.094116-0.016571 0.1412l-0.2129 0.1266c0.007271-0.048157 0.014618-0.096313 0.021942-0.14447 0.087128-0.55209-0.010254 0.1301 0.050659-0.63849 0.055237-0.69705 0.22504-1.3796 0.43948-2.0429 0.30354-0.75238 0.67773-1.4526 1.1837-2.0907l0.2196-0.115z"/>
  <path d="m84.531 229.48c-0.69382 0.13245-1.393 0.23556-2.092 0.3364 0.007813-0.084991-0.58414 0.16132-0.57138 0.12268 0.067902-0.20584 0.46481 0.063416 0.53369 0.091461l-0.1872 0.148c-0.21288-0.083282-0.45166-0.16446-0.43324-0.21692 0.092949-0.26495 0.63609-0.25738 0.83523-0.30084 0.70359-0.099121 1.4069-0.20273 2.1038-0.3421l-0.1889 0.1613z"/>
  <path d="m107.18 234.31c-0.48684 0.69696-0.9819 1.3783-1.3916 2.1249-0.22244 0.47772-0.45694 0.92297-0.7962 1.3246l-0.2044 0.1061c0.34964-0.39923 0.58737-0.84421 0.81107-1.3272 0.39996-0.74017 0.88438-1.4167 1.3617-2.1076l0.2195-0.1208z"/>
  <path d="m90.998 223.32c-0.25296 0.051422-0.49828 0.17792-0.71558 0.31644-0.080719 0.051453-0.10467 0.16034-0.16092 0.23782l-0.2108 0.112c0.28619-0.41834 0.77902-0.72443 1.2784-0.82944l-0.191 0.1632z"/>
  <path d="m78.483 248.95c0.34387 0.63544 0.49963 1.3415 0.76242 2.0095 0.15527 0.41608 0.36368 0.80905 0.56094 1.206l-0.1891 0.1283c-0.19702-0.39783-0.40723-0.79062-0.56232-1.2075-0.26468-0.66446-0.4166-1.3722-0.77924-1.9957l0.2073-0.1407z"/>
  <path d="m151.14 242.02c-0.13187 0.64597-0.32675 1.2775-0.4664 1.9228-0.020721 0.11063-0.041443 0.22128-0.062164 0.33188l-0.2029 0.1192c0.020874-0.11096 0.041779-0.22195 0.062683-0.33295 0.13907-0.64142 0.33829-1.2698 0.45157-1.9151l0.2172-0.1259z"/>
  <path d="m165.25 227.37c-0.33524 0.56485-0.71719 1.0997-1.1131 1.6233-0.19559 0.27905-0.41422 0.54028-0.62296 0.80933l-0.2097 0.1102c0.20993-0.27002 0.43127-0.53101 0.62753-0.8114 0.3938-0.51749 0.77106-1.0483 1.0988-1.6105l0.2195-0.1209z"/>
  <path d="m163.9 252.56c-0.70447 0.56152-1.4548 1.0658-2.1905 1.5861-0.4978 0.34638-0.95898 0.74002-1.4522 1.0927l-0.213 0.1041c0.49972-0.35181 0.96417-0.74866 1.4651-1.0991 0.72928-0.51492 1.4739-1.0134 2.1686-1.5737l0.222-0.1101z"/>
  <path d="m135.53 235.87c0.16611 0.64999 0.29718 1.3039 0.52298 1.939 0.12207 0.19693 0.28644 0.83887 0.63232 0.78067 0.083618-0.014069 0.15161-0.076019 0.22739-0.11401l-0.1758 0.1639c-0.080536 0.034607-0.15442 0.094696-0.24161 0.10385-0.35544 0.037415-0.50848-0.59711-0.63626-0.80627-0.22321-0.63312-0.35678-1.2853-0.53641-1.9289l0.2074-0.1382z"/>
  <path d="m138.89 222.46c0.84357 0.64114 1.609 1.3761 2.4058 2.0727 0.18329 0.15985 0.36655 0.31976 0.5498 0.47961l-0.1693 0.1248c-0.18326-0.15994-0.36649-0.31986-0.54968-0.47977-0.79916-0.69919-1.5735-1.4324-2.4397-2.0498l0.203-0.1475z"/>
  <path d="m151.28 211.38c0.46985 0.14017 0.92133 0.33975 1.341 0.5928l-0.1922 0.1469c-0.41907-0.25284-0.87012-0.4541-1.3424-0.58481l0.1936-0.1549z"/>
  <path d="m161.27 211.78c0.57361 1.1328 0.78101 2.4043 0.99326 3.6438 0.080566 0.59497 0.24298 1.1661 0.43405 1.7326l-0.1856 0.1222c-0.19003-0.56976-0.34775-1.1442-0.42532-1.7423-0.2088-1.2338-0.41397-2.5068-1.0184-3.6193l0.2021-0.1371z"/>
  <path d="m152.74 226.41c0.1424 0.62167 0.25284 1.2503 0.39652 1.8721l-0.1915 0.1234c-0.14331-0.61902-0.25595-1.2452-0.41159-1.8609l0.2066-0.1346z"/>
  <path d="m159.17 237.71c0.32953 0.84946 0.763 1.6594 1.2678 2.417 0.34711 0.436 0.1524 0.23801 0.58466 0.59348l-0.1847 0.137c-0.43567-0.35992-0.24054-0.15939-0.58636-0.60068-0.50107-0.7619-0.9299-1.5734-1.2879-2.4121l0.2065-0.1346z"/>
  <path d="m184.65 235.3c0.54089 0.70435 0.72641 1.5781 0.99558 2.4056 0.17114 0.45581 0.29211 0.92386 0.38803 1.3999l-0.1943 0.1243c-0.089844-0.47766-0.20526-0.94724-0.37799-1.4032-0.26932-0.82056-0.45325-1.6916-1.0114-2.377l0.2-0.1497z"/>
  <path d="m177.9 242.08c0.068054 0.85648 0.11279 1.7144 0.16126 2.5721 0.031464 0.26132-0.095581 0.94656-0.52972 0.7637l0.1967-0.1562c0.029694 0.009399 0.38144 0.10156-0.032745 0.1347-0.046875 0.003754 0.069366-0.066162 0.09082-0.10803 0.097809-0.19089 0.070618-0.28925 0.077118-0.5115-0.039185-0.85522-0.079712-1.7114-0.17209-2.5628l0.2087-0.132z"/>
 </g>
 <g fill-rule="evenodd">
  <g fill="#729fcf">
   <path d="m94.266 248.42s-19.015 24.668-27.238-2.3126c-2.0557 10.792 9.5075 24.668 9.5075 24.668s18.758-16.702 17.73-22.356z"/>
   <path d="m186.26 251.24s-21.328 21.328-33.148 1.5418c-3.1e-5 10.792 15.418 20.814 15.418 20.814s18.758-16.702 17.73-22.356z"/>
  </g>
  <path d="m195.92 240.38c2.2943 10.236-12.049 63.377 0.51392 77.088 22.888-5.7023 19.425-5.9284 30.321-7.7088 1.9417-36.862-30.835-70.299-30.835-69.379z" fill="#182b48"/>
 </g>
 <g stroke-linecap="round" stroke-linejoin="round">
  <path d="m191.02 238.67c-7.6517-2.5171-16.151 1.2026-19.499 8.718-3.1001 6.9586-0.77661 14.965 5.1299 19.293l-17.57 38.321 6.981 2.2399 17.098-37.76c7.0552 1.3008 14.358-2.3132 17.405-9.1535 3.5714-8.0164-0.036102-17.421-8.0526-20.992-0.50098-0.22324-0.98361-0.49765-1.4937-0.66547z" fill="#f7d917"/>
  <g stroke="#c4a000">
   <path d="m65.957 121.4c1.8976 3.1152 10.824 18.867 10.88 40.834 38.202-3.3059 46.99-2.9645 76.425 0-5.3368-14.561 7.9025-27.08 10.88-40.834-15.865 6.7731-16.85 22.128-27.529 26.152-1.9751-4.6216-4.4302-14.199-10.225-22.875-15.713 28.683-14.65 31.441-27.201-0.45882-3.4116 0.042969-8.016 19.878-9.1108 20.974-10.154-7.1702-6.158-13.611-24.12-23.793z" fill="#f7d917" stroke-width="1.454"/>
   <g fill="#fff" stroke-width=".5">
    <path d="m103.85 153.76c0.001251 2.0817-1.8735 3.7699-4.1865 3.7699s-4.1878-1.6882-4.1865-3.7699c-0.001259-2.0817 1.8735-3.7699 4.1865-3.7699s4.1878 1.6882 4.1865 3.7699z"/>
    <path d="m116.18 153.76c0.001259 2.0817-1.8735 3.7699-4.1865 3.7699s-4.1878-1.6882-4.1865-3.7699c-0.001251-2.0817 1.8735-3.7699 4.1865-3.7699s4.1878 1.6882 4.1865 3.7699z"/>
    <path d="m129.54 153.76c0.001251 2.0817-1.8735 3.7699-4.1865 3.7699s-4.1878-1.6882-4.1865-3.7699c-0.001251-2.0817 1.8735-3.7699 4.1865-3.7699s4.1878 1.6882 4.1865 3.7699z"/>
    <path d="m142.91 154.27c0.001251 2.0817-1.8735 3.7699-4.1865 3.7699s-4.1878-1.6881-4.1865-3.7699c-0.001251-2.0818 1.8735-3.7699 4.1865-3.7699s4.1878 1.6881 4.1865 3.7699z"/>
    <path d="m152.2 154.79c9.46e-4 2.1078-1.4346 3.8171-3.2058 3.8171s-3.2068-1.7093-3.2058-3.8171c-9.61e-4 -2.1078 1.4346-3.8171 3.2058-3.8171s3.2068 1.7093 3.2058 3.8171z"/>
    <path d="m91.515 154.79c0.001259 2.0818-1.8735 3.7699-4.1865 3.7699s-4.1878-1.6881-4.1865-3.7699c-0.001251-2.0817 1.8735-3.7699 4.1865-3.7699s4.1878 1.6881 4.1865 3.7699z"/>
    <path d="m79.755 155.3c8.93e-4 2.1149-1.3254 3.83-2.9618 3.83s-2.9627-1.7151-2.9618-3.83c-8.93e-4 -2.1149 1.3254-3.83 2.9618-3.83s2.9627 1.7151 2.9618 3.83z"/>
   </g>
  </g>
 </g>
 <g fill-rule="evenodd">
  <g fill="none" stroke="#000">
   <path d="m138.46 162.08c3.1327 8.7037 3.0608 22.288 13.124 25.194 2.6213-1.126 4.8783-4.8073 3.723-7.6243-2.3682-3.3288-7.902 1.8273-3.4853 3.7576" stroke-width="1.454"/>
   <g stroke-width="1.28">
    <path d="m131.7 203.1c1.6631 4.3253 1.625 11.076 6.9675 12.52 1.3916-0.55957 2.5898-2.389 1.9765-3.7888-1.2572-1.6543-4.195 0.90805-1.8502 1.8673"/>
    <path d="m137.09 197.97c1.6631 4.3253 1.6249 11.076 6.9675 12.52 1.3916-0.5596 2.5898-2.389 1.9765-3.7889-1.2572-1.6543-4.1951 0.90808-1.8503 1.8673"/>
    <path d="m141.97 192.31c1.6631 4.3253 1.625 11.076 6.9675 12.52 1.3916-0.55957 2.5898-2.389 1.9765-3.7888-1.2572-1.6543-4.195 0.90808-1.8502 1.8673"/>
    <path d="m145.06 183.83c1.6631 4.3253 1.625 11.076 6.9675 12.52 1.3916-0.55957 2.5898-2.389 1.9765-3.7888-1.2572-1.6543-4.195 0.90805-1.8502 1.8673"/>
    <path d="m126.3 207.47c1.6631 4.3253 1.625 11.076 6.9675 12.52 1.3916-0.5596 2.5898-2.389 1.9765-3.7889-1.2572-1.6543-4.195 0.90808-1.8503 1.8673"/>
    <path d="m119.36 210.81c1.6631 4.3253 1.625 11.076 6.9675 12.52 1.3916-0.55957 2.5898-2.389 1.9764-3.7889-1.2572-1.6543-4.195 0.90808-1.8503 1.8673"/>
    <path d="m112.48 212.49c0.60138 4.5948-1.0202 11.148 3.834 13.806 1.4841-0.21732 3.0782-1.7144 2.8106-3.2191-0.8338-1.9031-4.291-0.10193-2.2369 1.3809"/>
    <path d="m106.65 212.33c-0.75323 4.5724-4.2008 10.376-0.32281 14.325 1.4835 0.22119 3.4425-0.75082 3.6215-2.2686-0.24773-2.063-4.0781-1.3386-2.5407 0.6749"/>
    <path d="m99.912 210.81c-1.3959 4.4188-5.6339 9.6733-2.3569 14.133 1.437 0.42993 3.5143-0.25357 3.9074-1.7305 0.04818-2.0772-3.8463-1.9051-2.6108 0.30667"/>
    <path d="m94.002 207.22c-1.3959 3.7818-5.6339 8.2789-2.3569 12.096 1.437 0.36795 3.5143-0.21704 3.9074-1.4811 0.048187-1.7778-3.8462-1.6304-2.6108 0.26245"/>
    <path d="m89.478 202.08c-1.536 3.304-6.1991 7.2331-2.5934 10.568 1.5811 0.32147 3.8669-0.18961 4.2994-1.294 0.053009-1.5532-4.2321-1.4245-2.8727 0.22934"/>
    <path d="m85.421 193.86c-1.2559 3.304-5.0687 7.2331-2.1205 10.568 1.2928 0.32147 3.1617-0.18961 3.5153-1.294 0.043365-1.5532-3.4603-1.4245-2.3489 0.22931"/>
   </g>
  </g>
  <path d="m177.52 248.67s5.1392-16.445 18.501-2.0557c-7.1948 1.5418-19.529 2.0557-18.501 2.0557z" fill="#fff"/>
  <g fill="none">
   <path d="m146.17 162.85c2.7574 7.3721 2.6941 18.878 11.552 21.34 2.3072-0.95374 4.2938-4.0718 3.2769-6.4578-2.0845-2.8196-6.9552 1.5477-3.0677 3.1827" stroke="#000" stroke-width="1.454"/>
   <g stroke="#6f4501" stroke-linecap="round" stroke-width="2.907">
    <path d="m144.89 191.63c-0.58441 2.4306 2.0685 4.683 3.3405 6.424"/>
    <path d="m143.6 166.19c0.42148 3.3912 2.0232 6.2666 3.5974 9.2506 0.034027 0.034027 0.50357 1.0071 0.51388 1.0278"/>
    <path d="m151.31 165.93c1.0478 3.0038 1.8676 5.7336 1.7987 8.9936"/>
    <path d="m140.78 198.05c-0.58438 2.4306 2.0685 4.683 3.3405 6.424"/>
   </g>
  </g>
 </g>
 <g transform="matrix(2.9072 0 0 2.9072 -1229.3 -595.71)">
  <path d="m465.43 294.45c6.71e-4 1.0989-0.99084 1.99-2.2142 1.99-1.2233 0-2.2148-0.89114-2.2142-1.99-6.41e-4 -1.0989 0.99088-1.99 2.2142-1.99s2.2148 0.89114 2.2142 1.99z" fill="#f7d917" stroke="#c4a000" stroke-linecap="round" stroke-linejoin="round" stroke-width=".599"/>
  <path d="m461.29 294.23s1.0064-3.2203 3.6229-0.40253c-1.4089 0.30191-3.8242 0.40253-3.6229 0.40253z" fill="#fff" fill-rule="evenodd"/>
 </g>
 <g transform="matrix(2.9072 0 0 2.9072 -1229.4 -570.63)">
  <path d="m465.43 294.45c6.71e-4 1.0989-0.99084 1.99-2.2142 1.99-1.2233 0-2.2148-0.89114-2.2142-1.99-6.41e-4 -1.0989 0.99088-1.99 2.2142-1.99s2.2148 0.89114 2.2142 1.99z" fill="#f7d917" stroke="#c4a000" stroke-linecap="round" stroke-linejoin="round" stroke-width=".599"/>
  <path d="m461.29 294.23s1.0064-3.2203 3.6229-0.40253c-1.4089 0.30191-3.8242 0.40253-3.6229 0.40253z" fill="#fff" fill-rule="evenodd"/>
 </g>
 <g transform="matrix(3.4286 0 0 3.4286 -1545.2 -925.86)">
  <path d="m481.49 305.45c6.41e-4 1.0989-0.99088 1.99-2.2142 1.99s-2.2148-0.89114-2.2142-1.99c-6.71e-4 -1.0989 0.99084-1.99 2.2142-1.99 1.2233 0 2.2148 0.89114 2.2142 1.99z" fill="#f7d917" stroke="#c4a000" stroke-linecap="round" stroke-linejoin="round" stroke-width=".508"/>
  <path d="m477.35 305.24s1.0064-3.2203 3.6229-0.40253c-1.4089 0.30188-3.8242 0.40253-3.6229 0.40253z" fill="#fff" fill-rule="evenodd"/>
 </g>
 <g transform="matrix(3.4286 0 0 3.4286 -1516.9 -926.12)">
  <path d="m481.49 305.45c6.41e-4 1.0989-0.99088 1.99-2.2142 1.99s-2.2148-0.89114-2.2142-1.99c-6.71e-4 -1.0989 0.99084-1.99 2.2142-1.99 1.2233 0 2.2148 0.89114 2.2142 1.99z" fill="#f7d917" stroke="#c4a000" stroke-linecap="round" stroke-linejoin="round" stroke-width=".508"/>
  <path d="m477.35 305.24s1.0064-3.2203 3.6229-0.40253c-1.4089 0.30188-3.8242 0.40253-3.6229 0.40253z" fill="#fff" fill-rule="evenodd"/>
 </g>
 <g transform="matrix(3.0579 0 0 3.4286 -1270 -926.63)">
  <path d="m470.63 305.45c6.71e-4 1.0989-0.99084 1.99-2.2142 1.99-1.2233 0-2.2148-0.89114-2.2142-1.99-6.41e-4 -1.0989 0.99088-1.99 2.2142-1.99s2.2148 0.89114 2.2142 1.99z" fill="#f7d917" stroke="#c4a000" stroke-linecap="round" stroke-linejoin="round" stroke-width=".538"/>
  <path d="m466.5 305.24s1.0064-3.2203 3.6229-0.40253c-1.4089 0.30188-3.8242 0.40253-3.6229 0.40253z" fill="#fff" fill-rule="evenodd"/>
 </g>
 <g transform="matrix(3.0579 0 0 3.4286 -1363.8 -926.12)">
  <path d="m470.63 305.45c6.71e-4 1.0989-0.99084 1.99-2.2142 1.99-1.2233 0-2.2148-0.89114-2.2142-1.99-6.41e-4 -1.0989 0.99088-1.99 2.2142-1.99s2.2148 0.89114 2.2142 1.99z" fill="#f7d917" stroke="#c4a000" stroke-linecap="round" stroke-linejoin="round" stroke-width=".538"/>
  <path d="m466.5 305.24s1.0064-3.2203 3.6229-0.40253c-1.4089 0.30188-3.8242 0.40253-3.6229 0.40253z" fill="#fff" fill-rule="evenodd"/>
 </g>
 <g fill-rule="evenodd">
  <g fill="#729fcf">
   <path d="m85.407 157.07s2.6568 2.8246 5.3147-1.6807c-1.6992 0.52655-2.7255 1.4536-5.3147 1.6807z"/>
   <path d="m97.763 155.8s2.6567 2.8246 5.3147-1.6807c-1.6991 0.52655-2.7255 1.4536-5.3147 1.6807z"/>
   <path d="m109.75 155.98s2.6568 2.8246 5.3147-1.6807c-1.6991 0.52658-2.7255 1.4536-5.3147 1.6807z"/>
   <path d="m123.2 155.8s2.6567 2.8246 5.3147-1.6807c-1.6991 0.52655-2.7255 1.4536-5.3147 1.6807z"/>
   <path d="m136.46 156.35s2.6568 2.8246 5.3147-1.6808c-1.6991 0.52658-2.7255 1.4536-5.3147 1.6808z"/>
   <path d="m147.18 157.07s2.1118 2.8246 4.2245-1.6807c-1.3506 0.52655-2.1664 1.4536-4.2245 1.6807z"/>
   <path d="m75.777 157.26s1.5668 2.8246 3.1343-1.6807c-1.002 0.52658-1.6073 1.4536-3.1343 1.6807z"/>
  </g>
  <g fill="#ebb999">
   <path d="m127.93 161.82l9.5075 0.7708s5.3962 30.578 2.8266 31.606c-2.5696 1.0278-8.3421 6.7874-8.3421 6.7874s0.01828-10.312-6.3046-16.552c-3.5975 1.0278 6.167-2.5696 6.6809-5.3962 0.6673-6.6439 0.60586-12.74-4.3684-17.216z"/>
   <path d="m102.03 171.79c1.5666-1.2134 2.9992 0.50165 4.7123 1.127 1.8869 0.88495 1.6388 2.0754 0.94226 3.8412-0.8721 2.5735-1.2988 4.7849-3.0962 6.7832-0.69412 1.0163-3.0676 1.7989-2.9427-0.12112 0.62448-3.9614 1.1418-7.7092 0.38441-11.63z"/>
  </g>
  <path d="m127.18 173.08c-4.0368-3.2439-16.907-3.9871-22.775-1.4284" fill="none" stroke="#000" stroke-width="2.261"/>
 </g>
</svg>
