<?xml version="1.0" encoding="UTF-8"?>
<!DOCTYPE svg  PUBLIC '-//W3C//DTD SVG 1.1//EN'  'http://www.w3.org/Graphics/SVG/1.1/DTD/svg11.dtd'>
<svg width="282.48mm" height="131.87mm" clip-rule="evenodd" fill-rule="evenodd" image-rendering="optimizeQuality" shape-rendering="geometricPrecision" text-rendering="geometricPrecision" version="1.1" viewBox="0 0 28248 13187" xml:space="preserve" xmlns="http://www.w3.org/2000/svg">
 <defs>
  <style type="text/css">
    .fil9 {fill:url(#m)}
    .fil12 {fill:url(#l)}
    .fil2 {fill:url(#h)}
    .fil1 {fill:url(#g)}
    .fil6 {fill:url(#f)}
    .fil4 {fill:url(#e)}
    .fil7 {fill:url(#d)}
    .fil5 {fill:url(#c)}
    .fil0 {fill:url(#b)}
    .fil8 {fill:url(#a)}
    .fil11 {fill:url(#k)}
    .fil3 {fill:url(#j)}
    .fil10 {fill:url(#i)}
  </style>
  <linearGradient id="m" x1="11540" x2="12366" y1="6751.4" y2="6718.2" gradientUnits="userSpaceOnUse">
   <stop stop-color="#363533" offset="0"/>
   <stop stop-color="#282729" offset="1"/>
  </linearGradient>
  <linearGradient id="l" x1="7080.1" x2="7072.3" y1="5862.7" y2="6636.1" gradientUnits="userSpaceOnUse">
   <stop stop-color="#fff" offset="0"/>
   <stop stop-color="#C7BFBF" offset="1"/>
  </linearGradient>
  <linearGradient id="h" x1="7868.6" x2="7915.3" y1="5193.4" y2="7734.3" gradientUnits="userSpaceOnUse">
   <stop stop-color="#1D1D1E" offset="0"/>
   <stop offset=".34902"/>
   <stop stop-color="#222223" offset="1"/>
  </linearGradient>
  <linearGradient id="g" x1="12836" x2="12810" y1="4380.4" y2="9248.7" gradientUnits="userSpaceOnUse">
   <stop stop-color="#fff" offset="0"/>
   <stop stop-color="#757474" offset=".54118"/>
   <stop stop-color="#333" offset="1"/>
  </linearGradient>
  <linearGradient id="f" x1="12384" x2="12868" y1="6199" y2="6210.7" gradientUnits="userSpaceOnUse">
   <stop stop-color="#48484A" offset="0"/>
   <stop stop-color="#B5AEAE" offset="1"/>
  </linearGradient>
  <linearGradient id="e" x1="15817" x2="15910" y1="5797" y2="8374.9" gradientUnits="userSpaceOnUse">
   <stop stop-color="#F5EDED" offset="0"/>
   <stop stop-color="#DED9DB" offset=".56863"/>
   <stop stop-color="#C6C5C9" offset="1"/>
  </linearGradient>
  <linearGradient id="d" x1="11510" x2="12483" y1="5741.9" y2="5741.8" gradientUnits="userSpaceOnUse">
   <stop stop-color="#1D1D1E" offset="0"/>
   <stop stop-color="#161617" offset=".43922"/>
   <stop stop-color="#565557" offset="1"/>
  </linearGradient>
  <linearGradient id="c" x1="12040" x2="12267" y1="5497.5" y2="7235.6" gradientUnits="userSpaceOnUse">
   <stop stop-color="#3B3838" offset="0"/>
   <stop stop-color="#F5EBEB" offset=".38824"/>
   <stop stop-color="#636060" offset="1"/>
  </linearGradient>
  <linearGradient id="b" x1="15369" x2="15244" y1="1206.7" y2="15268" gradientUnits="userSpaceOnUse">
   <stop stop-color="#DBD0D0" offset="0"/>
   <stop stop-color="#9E9B9B" offset="1"/>
  </linearGradient>
  <linearGradient id="a" x1="12552" x2="11634" y1="6659.8" y2="6667.6" gradientUnits="userSpaceOnUse">
   <stop stop-color="#716E70" offset="0"/>
   <stop stop-color="#201F21" offset=".27843"/>
   <stop stop-color="#272526" offset="1"/>
  </linearGradient>
  <linearGradient id="k" x1="15989" x2="16286" y1="6656.2" y2="8374.9" gradientUnits="userSpaceOnUse">
   <stop stop-color="#D6D3D6" offset="0"/>
   <stop stop-color="#fff" offset="1"/>
  </linearGradient>
  <linearGradient id="j" x1="10955" x2="10963" y1="5699" y2="6731.2" gradientUnits="userSpaceOnUse">
   <stop stop-color="#5C5A5E" offset="0"/>
   <stop stop-color="#121212" offset="1"/>
  </linearGradient>
  <linearGradient id="i" x1="8142" x2="8126.4" y1="5215.9" y2="7278.3" gradientUnits="userSpaceOnUse">
   <stop stop-color="#424348" offset="0"/>
   <stop stop-color="#1A1A1C" offset="1"/>
  </linearGradient>
 </defs>
   <polygon class="fil0" points="0 0 28248 0 28248 13187 0 13187"/>
   <path class="fil1" d="m23782 6406c1070 71 1268 107 1184 196-83 88-447 229-1252 422-805 192-2049 437-3508 651-1458 213-3130 395-4299 510-1169 114-1836 161-2198 172-362 10-419-16-474-58-54-41-106-98-138-255-31-156-41-411-83-567-42-157-115-214-359-224-245-11-662 26-1123 54-461 29-966 50-1862 68-895 18-2182 34-3028 26s-1253-39-1552-34c-300 5-492 47-648 115-157 68-276 161-388 229s-217 109-415 47c-197-63-489-229-671-406-183-177-256-365-269-550s34-367 401-508c368-140 1055-239 3729-260 2675-21 7336 36 10638 117s5244 185 6315 255z"/>
    <path class="fil2" d="m3094 5498l2748 24 2748 23 2020 17 2020 17c18 238 27 473 27 707s-9 466-27 695c-579 68-1176 127-1798 175-622 49-1269 85-1945 106-595 19-1214 26-1859 18-646-8-1319-31-2023-70-159-9-313 11-460 56-146 45-286 115-419 204-38 26-75 53-112 82s-73 60-109 91c-16 15-26 23-38 26s-26 1-51-4c-166-32-316-83-451-148-135-64-255-143-359-230-167-141-295-306-384-478s-140-351-153-519c-17-215 27-413 132-557s270-235 493-235z"/>
    <path class="fil3" d="m11277 5795c-1028-48-3072-82-4503-104s-2248-32-2746-40c-497-8-674-13-812 1s-236 48-318 116-148 169-171 276c-24 107-6 219 39 330 44 110 114 220 217 326 103 107 238 211 372 293s267 142 352 171c84 29 121 26 168-5 47-32 104-91 207-154 103-62 251-128 402-167s305-52 570-49c266 2 644 21 1132 45 488 25 1087 56 1571 68 485 12 855 4 1176-10 322-15 595-35 938-63 342-27 753-61 1136-99 383-37 737-79 944-144s267-154 305-261c38-106 53-231 56-325 2-94-8-156-1035-205z"/>
    <path class="fil4" d="m12632 5603c3390 47 7018-37 10177 135 494 27 1975 396 2371 630 61 36 65 32 8 55-2964 1184-7497 1478-12001 1789l-107-986c-19-174-228-271-450-247 36-451 36-910 2-1376z"/>
    <path class="fil5" d="m11587 7092v-1522l1043 9c36 475 37 943 0 1402-341 40-688 77-1043 111z"/>
    <path class="fil6" d="m12631 6973c-149-71-317-156-329-321-20-263-24-529 8-800 0-137 94-223 211-274l109 1c36 472 37 937 1 1394z"/>
    <path class="fil7" d="m11630 5677c103-15 290-19 422-20s209 0 268 0c60 0 102-1 110 12s-19 40-37 81c-18 40-27 93-39 97-13 5-28-40-110-60-82-19-229-13-372-8-108 5-213 9-285 8v-103c13-3 27-5 43-7z"/>
    <path class="fil8" d="m11587 6470c74-14 161-13 241-10 134 6 252 16 363 34 111 17 217 42 279 85 63 43 82 104 80 145-3 41-28 62-190 84-163 22-464 46-653 57-46 3-86 5-120 6v-401z"/>
    <path class="fil9" d="m11622 6676c93-13 277-18 399-22 122-3 181-4 225-4 43 1 71 2 93 19 23 16 39 47 34 68-6 22-32 35-126 49-94 13-255 27-375 36-120 10-201 16-254 18-12 1-22 1-31 1v-30c20-5 47-10 82-14 92-12 245-20 353-25 109-6 174-10 215-14 40-4 55-8 66-13 10-6 14-13 13-20-2-7-10-15-101-14-90 1-264 9-376 14-111 5-160 6-202 7h-50v-50c10-2 22-4 35-6z"/>
    <path class="fil10" d="m3254 5658l6523 133c511 42 991 99 1277 256 251 136 265 189 30 342-292 190-765 336-1377 449-1570 197-3242-35-4862-53-301-3-665 108-888 314-46 42-72 77-118 86-64 11-134-5-210-42-1181-540-1085-1453-375-1485z"/>
    <path class="fil11" d="m24626 6146c-496 178-1216 419-2250 651-1346 302-3226 588-4838 768s-2956 253-3922 310c-165 10-319 19-462 28l33 309c4504-311 9037-605 12001-1789 57-23 53-19-8-55-113-67-313-144-554-222z"/>
    <path class="fil12" d="m10113 6010c153 0 278 124 278 277s-125 278-278 278-277-125-277-278 124-277 277-277zm-3043 0c153 0 278 124 278 277s-125 278-278 278-277-125-277-278 124-277 277-277zm-3007 0c153 0 277 124 277 277s-124 278-277 278c-154 0-278-125-278-278s124-277 278-277z"/>
</svg>
