<?xml version="1.0" encoding="UTF-8"?>
<svg viewBox="0 0 214.8423 152.46146" xmlns="http://www.w3.org/2000/svg" xmlns:xlink="http://www.w3.org/1999/xlink">
 <defs>
  <filter id="k">
   <feGaussianBlur stdDeviation="3.8737"/>
  </filter>
  <filter id="b">
   <feGaussianBlur stdDeviation="1.0887"/>
  </filter>
  <filter id="o">
   <feGaussianBlur stdDeviation="2.453"/>
  </filter>
  <filter id="n">
   <feGaussianBlur stdDeviation=".5017"/>
  </filter>
  <filter id="t" x="-.22142" y="-.13534" width="1.4428" height="1.2707">
   <feGaussianBlur stdDeviation="1.5487"/>
  </filter>
  <filter id="s" x="-.23166" y="-.38056" width="1.4633" height="1.7611">
   <feGaussianBlur stdDeviation="1.2835"/>
  </filter>
  <filter id="r" x="-.4081" y="-.11546" width="1.8162" height="1.2309">
   <feGaussianBlur stdDeviation=".9047"/>
  </filter>
  <filter id="q" x="-.0903" y="-.10247" width="1.1806" height="1.2049">
   <feGaussianBlur stdDeviation=".8057"/>
  </filter>
  <filter id="p" x="-.23269" y="-.18161" width="1.4654" height="1.3632">
   <feGaussianBlur stdDeviation=".6342"/>
  </filter>
  <filter id="m" x="-.23794" y="-.32855" width="1.4759" height="1.6571">
   <feGaussianBlur stdDeviation=".7701"/>
  </filter>
  <filter id="l" x="-.16558" y="-.36595" width="1.3312" height="1.7319">
   <feGaussianBlur stdDeviation=".4513"/>
  </filter>
  <linearGradient id="j" x1="-1062.3" x2="-741.62" y1="466.08" y2="612.25" gradientUnits="userSpaceOnUse">
   <stop stop-color="#ececec" offset="0"/>
   <stop stop-color="#fff" offset=".1894"/>
   <stop stop-color="#fff" offset=".8596"/>
   <stop stop-color="#e6e6e6" offset="1"/>
  </linearGradient>
  <linearGradient id="i" x1="-949.25" x2="-948.97" y1="612.08" y2="628.97" gradientUnits="userSpaceOnUse">
   <stop stop-color="#f9f9f9" offset="0"/>
   <stop stop-color="#ccc" offset="1"/>
  </linearGradient>
  <linearGradient id="h" x1="-904.18" x2="-905.13" y1="434.19" y2="463.73" gradientUnits="userSpaceOnUse">
   <stop stop-color="#e6e6e6" offset="0"/>
   <stop stop-color="#fff" offset="1"/>
  </linearGradient>
  <linearGradient id="g" x1="-957.64" x2="-902.96" y1="477.31" y2="705.07" gradientUnits="userSpaceOnUse">
   <stop stop-color="#b3b3b3" offset="0"/>
   <stop stop-color="#808080" offset="1"/>
  </linearGradient>
  <linearGradient id="f" x1="-888.5" x2="-938.55" y1="538.3" y2="512.28" gradientUnits="userSpaceOnUse">
   <stop stop-color="#790707" offset="0"/>
   <stop stop-color="#aa0202" offset="1"/>
  </linearGradient>
  <linearGradient id="a">
   <stop stop-color="#aa0202" offset="0"/>
   <stop stop-color="#790707" offset="1"/>
  </linearGradient>
  <linearGradient id="e" x1="-922.81" x2="-879.03" y1="549.63" y2="504.14" gradientUnits="userSpaceOnUse">
   <stop stop-color="#790707" offset="0"/>
   <stop stop-color="#a00303" offset="1"/>
  </linearGradient>
  <linearGradient id="d" x1="-916.24" x2="-889.07" y1="527.01" y2="535.1" gradientUnits="userSpaceOnUse" xlink:href="#a"/>
  <radialGradient id="c" cx="-899.78" cy="535.18" r="30.966" gradientTransform="matrix(1.2779 -.07626 .07808 1.3085 210.34 -233.06)" gradientUnits="userSpaceOnUse" xlink:href="#a"/>
 </defs>
 <g transform="matrix(.52818 -.06719 .06719 .52818 547.97 -263.48)">
  <path d="m-1064.3 433.24h325.91v190.59h-325.91z" filter="url(#k)" opacity=".5"/>
  <path d="m-1064.3 433.24h325.91v190.59h-325.91z" fill="url(#j)"/>
  <path d="m-1064.3 620.82v-3.75c3.297-5.9785 6.9375-11.628 10.5-15.312 41.274-42.691 153.41-90.531 153.41-90.531s113.74 46.368 153.44 90.531c3.0486 3.3917 5.9649 8.4765 8.5625 13.938v5.125h-325.91z" fill="#333" filter="url(#b)" opacity=".3" stroke="#ccc"/>
  <path d="m-1064.3 622.82v-3.75c3.297-5.9785 6.9375-11.628 10.5-15.312 41.274-42.691 153.41-90.531 153.41-90.531s113.74 46.368 153.44 90.531c3.0486 3.3917 5.9649 8.4765 8.5625 13.938v5.125h-325.91z" fill="url(#i)" stroke="#ccc"/>
  <path d="m-1064.3 435.23v3.75c3.297 5.9785 6.9375 11.628 10.5 15.312 41.274 42.691 153.41 90.531 153.41 90.531s113.74-46.368 153.44-90.531c3.0486-3.3917 5.9649-8.4765 8.5625-13.938v-5.125h-325.91z" fill="#1a1a1a" filter="url(#b)" opacity=".5"/>
  <path d="m-1064.3 433.23v3.75c3.297 5.9785 6.9375 11.628 10.5 15.312 41.274 42.691 153.41 90.531 153.41 90.531s113.74-46.368 153.44-90.531c3.0486-3.3917 5.9649-8.4765 8.5625-13.938v-5.125h-325.91z" fill="url(#h)" stroke="#ccc"/>
  <path d="m-1064.3 432.73a0.50005 0.50005 0 0 0 -0.4687 0.5v190.59a0.50005 0.50005 0 0 0 0.5 0.5h325.91a0.50005 0.50005 0 0 0 0.5 -0.5v-190.59a0.50005 0.50005 0 0 0 -0.5 -0.5h-325.91a0.50005 0.50005 0 0 0 -0.031 0zm0.5313 1h324.91v189.59h-324.91v-189.59z" fill="url(#g)"/>
  <path d="m-919.22 497.41c-18.389-0.22427-29.523 23.035-13.844 41.312 2.7201 3.1709 5.1615 7.6456 5.6562 10.375 0.95228 5.2539 2.3656 6.8647 7.25 8.3438 4.6061 1.3948 7.2704 4.1638 10.375 10.719 1.4966 3.1599 4.1952 6.924 6 8.375s4.6259 2.6562 6.25 2.6562c2.8924 0 8.2682-5.4639 8.2812-8.4062 9e-3 -2.2354 8.2626-10.917 11.312-11.906 1.6839-0.54627 3.3456-2.9454 4.4688-6.4062 1.2959-3.9932 3.3096-6.595 7.25-9.3125 6.9268-4.7769 8.613-8.8824 6.7188-16.344-0.78396-3.0878-1.4244-7.8263-1.4375-10.531-0.0229-5.7261-0.16264-5.9687-7.375-12.469-6.4793-5.8394-12.821-6.545-20.938-2.3125-6.6402 3.4624-10.436 3.3234-17.75-0.65625-4.267-2.3217-8.4021-3.391-12.219-3.4375z" filter="url(#o)" opacity=".5"/>
  <path d="m-903.78 576.54c-1.8048-1.451-4.5059-5.2236-6.0025-8.3834-3.1046-6.555-5.7784-9.3117-10.384-10.706-4.8844-1.4791-6.2907-3.1013-7.243-8.3552-0.49475-2.7294-2.9392-7.2158-5.6593-10.387-18.933-22.071 1.2301-51.371 26.056-37.863 7.3141 3.9797 11.119 4.1207 17.759 0.65826 8.117-4.2325 14.448-3.5355 20.927 2.3039 7.2124 6.5 7.3674 6.7621 7.3904 12.488 0.0131 2.705 0.66117 7.4444 1.4451 10.532 1.8942 7.4613 0.21201 11.552-6.7148 16.329-3.9404 2.7175-5.9623 5.3084-7.2582 9.3017-1.1232 3.4608-2.8057 5.8624-4.4895 6.4086-3.0499 0.98937-11.285 9.67-11.294 11.905-0.013 2.9424-5.406 8.4058-8.2983 8.4058-1.6241 0-4.4296-1.1872-6.2343-2.6382z" fill="url(#f)"/>
  <path d="m-889.65 505.69c-3.742 0.0431-6.7862 4.7193-10.508 3.0484-3.2096-1.4214-6.2761-3.6439-9.871-3.4773-6.645-0.65162-13.9 2.6496-16.988 9.4846-3.2413 7.4125-2.8176 16.559 0.1415 24.072 4.8348 11.77 13.919 20.574 23.334 27.814 2.3409 1.0836 4.8266 5.3906 7.2849 2.2642 9.9649-6.9571 19.505-15.566 25.316-27.129 3.8101-7.3969 4.5627-16.64 2.3981-24.657-2.0304-7.7498-9.5167-12.523-16.583-11.898-1.5161 0.046-3.0265 0.22687-4.5253 0.47874z" fill="url(#c)"/>
  <path d="m-885.21 504.2c-3.3124 0.27156-6.7687 0.41197-9.5786 2.4265-3.6091 3.3299-7.437-0.39075-10.977-1.6424-7.8453-2.4468-17.473 0.60125-21.503 8.0333-5.0221 9.9237-3.4061 22.199 2.0783 31.593 5.963 10.686 15.419 18.869 25.241 25.891 3.4811 1.6804 5.8274-2.677 8.6548-4.0337 9.9078-7.5946 19.053-17.145 23.245-29.125 2.3411-7.5594 2.4131-16.035-0.59826-23.414-2.8778-6.2013-9.7087-10.338-16.562-9.7284zm16.158 15c1.9115 8.9831-1.0394 19.839-6.1112 27.476-5.7114 9.2926-13.049 15.367-21.891 21.587-2.6737 1.8822-6.0113-3.1453-8.4382-4.2109-9.7159-7.7378-18.024-16.937-21.597-29.123-1.8786-7.2526-2.5685-14.275 1.4508-20.803 4.5057-6.657 15.146-9.9069 22.048-5.9569 2.5166 1.5785 5.7811 2.8067 8.4974 0.92941 2.6456-1.845 5.7-2.7612 8.9105-2.8406 7.6664 1.5186 15.826 6.4389 17.13 12.943z" fill="url(#e)"/>
  <path d="m-934.89 509.25c3.04-5.2512 15.321-9.8287 15.321-9.8287s-6.9834 7.067-9.5397 11.274c-3.0291 4.9855-6.6489 16.189-6.6489 16.189 0.40053-6.2867-2.0813-12.541 0.86724-17.634z" fill="#fff" filter="url(#t)" opacity=".6463"/>
  <path d="m-904.24 571.11s2.764 6.0273 5.4925 6.0707c3.7477 0.0596 7.8052-8.0943 7.8052-8.0943s-4.612 2.8827-7.227 3.1799c-2.0468 0.23257-6.0707-1.1563-6.0707-1.1563z" fill="#fff" filter="url(#s)" opacity=".5"/>
  <path d="m-866.91 540.06s4.1538-2.565 4.9059-4.7014c1.5744-4.4722-1.8397-14.104-1.8397-14.104s0.56358 7.8437-0.20441 11.651c-0.50783 2.5178-2.8618 7.1544-2.8618 7.1544z" fill="#fff" filter="url(#r)" opacity=".6128"/>
  <path d="m-884.49 501.43s4.3613-1.6381 6.5412-1.2265c3.1582 0.59634 5.6076 3.1786 8.1764 5.1103 2.1211 1.595 4.7582 2.9326 5.9279 5.3147 1.2347 2.5143 0.61324 8.3808 0.61324 8.3808s-2.2144-5.2731-3.8838-7.5632c-1.2488-1.7131-2.836-3.1799-4.497-4.497-1.8223-1.445-3.7924-2.7585-5.9279-3.6794-2.2006-0.94894-6.95-1.8397-6.95-1.8397z" fill="#fff" filter="url(#q)" opacity=".3171"/>
  <path d="m-926.19 547.83s0.19817 3.692 1.2265 5.1103c1.221 1.684 5.3147 3.2706 5.3147 3.2706s-1.6661-2.8002-2.6573-4.0882c-1.1768-1.5292-3.8838-4.2926-3.8838-4.2926z" fill="#fff" filter="url(#p)" opacity=".5335"/>
  <path d="m-894.75 522.92c-1.4808 0.0171-2.6855 1.8676-4.1583 1.2064-1.2701-0.5625-2.4836-1.442-3.9063-1.3761-2.6296-0.25787-5.5006 1.0485-6.7226 3.7533-1.2827 2.9334-1.115 6.5528 0.056 9.526 1.9133 4.6578 5.5082 8.1418 9.2341 11.007 0.92637 0.42882 1.91 2.1332 2.8829 0.89603 3.9434-2.7531 7.7187-6.1598 10.018-10.736 1.5078-2.9272 1.8056-6.585 0.949-9.7577-0.80349-3.0668-3.766-4.9555-6.5623-4.7085-0.59998 0.0182-1.1977 0.0898-1.7908 0.18945z" filter="url(#n)" opacity=".5061"/>
  <path d="m-894.9 522.75c-1.4808 0.0171-2.6855 1.8676-4.1583 1.2064-1.2701-0.5625-2.4836-1.442-3.9063-1.3761-2.6296-0.25787-5.5006 1.0485-6.7226 3.7533-1.2827 2.9334-1.115 6.5528 0.056 9.526 1.9133 4.6578 5.5082 8.1418 9.2341 11.007 0.92637 0.42882 1.91 2.1332 2.8829 0.89603 3.9434-2.7531 7.7187-6.1598 10.018-10.736 1.5078-2.9272 1.8056-6.585 0.949-9.7577-0.80349-3.0668-3.766-4.9555-6.5623-4.7085-0.59998 0.0182-1.1977 0.0898-1.7908 0.18945z" fill="url(#d)"/>
  <path d="m-909.63 529.44s0.43373-2.5367 1.2265-3.475c0.90546-1.0717 2.3212-1.6922 3.6794-2.0441 0.92342-0.23928 2.8618 0 2.8618 0s-3.2497 1.5929-4.7014 2.6573c-1.1274 0.82669-3.0662 2.8618-3.0662 2.8618z" fill="#fff" filter="url(#m)" opacity=".5823"/>
  <path d="m-894.3 523.3s2.6996-0.32301 3.8838 0.20441c1.1443 0.50964 2.6574 2.6573 2.6574 2.6573s-2.006-1.1687-3.0662-1.6353c-1.1243-0.49484-3.475-1.2265-3.475-1.2265z" fill="#fff" filter="url(#l)" opacity=".497"/>
 </g>
</svg>
