<?xml version='1.0' encoding='utf-8'?>
<svg xmlns="http://www.w3.org/2000/svg" viewBox="0 0 1073 749"><title>NIÑO2</title><g style="isolation:isolate"><g id="Capa_4" data-name="Capa 4"><path d="M602.27,381.14c-7.12-.83-10.71-10.33-12.64-16.4-3.85-12.11-7.28-23-15.18-33.2-7.15-9.22-15.75-17.41-23.77-25.86l-26.6-28c-6.16-6.49-19-3.51-19.24,6.39-.35,13.11-.69,26.68-5.73,39-5.17,12.63-17,19.11-29,24.1a107.49,107.49,0,0,1-21.17,6.22q-5.72,1.08-11.52,1.61c-4.64.42-9.83-.41-13.86,2.23-.74.48-2.76,2.36-2.86,2.43a3.14,3.14,0,0,1-1.77.28,17.24,17.24,0,0,1-4.67-1.17c-5.33-2.46-9.24-9-12.74-13.61-10.23-13.62-26-25.41-43.64-17.65-5.65,2.49-7,7.9-5.59,12.59-5.66-.07-11.2.29-16.3,3.12a12.42,12.42,0,0,0-3.27,2.63,10.1,10.1,0,0,0-10.57,2c-36.46,31.26-54.66,80.76-47.66,128.2.67,4.53,5.26,8.91,10,9,73.08,1,144.49,31.5,217.89,17.44a11.1,11.1,0,0,0,8.4-7.21c4.46-13,21.65-17.69,33.9-20.58a138.59,138.59,0,0,1,55.65-1.49c7.42,1.28,12.5-6.52,11.68-13a259.57,259.57,0,0,1,.41-67.21C613.19,386.92,607.91,381.8,602.27,381.14Z" fill="#d1d8db"/><path d="M305.79,148.42l32,93,40,43-23,2,35,17-75,8,40,23s12-19,23-8,25,35,35,33a80,80,0,0,0,18-6l17,2,9-2,9-3,31-14,11-70,27-34-32-59s-9-34-20-41-26-14-22,29l-19,3-29,9h-35l-59-28Z" fill="#f2dfd9"/><path d="M638.79,359.42l-32,24,2,90s-35-14-67,2-41,25-41,25l-111-4s-86-10-95-10-16-7-20-1-3,15,8,26,20,21,12,25-67,19-85,11-16,2-16,2-1,16,28,24,37,8,37,8-16,8-15,16,15,15,15,15,9,15,31,14c0,0,2,4,22,2,0,0-6,12,49,1l174-1s43-2,97-17,70-8,71-58,4-149-5-177Z" fill="#f2dfd9"/><path d="M470.43,198.35,463.2,156.7a10.21,10.21,0,0,0-2.31-4.93,7.79,7.79,0,0,0-.27-2.63A71.43,71.43,0,0,1,458,134.66c3.76-1.44,6.68-3.85,7.52-8.17A11.06,11.06,0,0,0,461,115.12c-13-8.55-20.79-22.6-29.19-35.27s-18.34-25-32.14-32.06c-11.45-5.85-23.27-6.37-35.19-4.75-1.45-4.12-5.21-6.55-9.52-7.33C331,31.34,310.41,45,293,60l-4.1,1.11a13.69,13.69,0,0,0-2.82,1.12c-17.65-1-35.07,2.24-47,17.39-7.67,9.77-11.74,22.44-16.51,33.76-5.07,12-11.2,24.15-14.46,36.85-6.1,23.73,1.22,49.18,7.86,72.11,6.32,21.82,14.47,43.23,25.66,63,12.63,22.35,28.66,42.16,48.59,58.39,4.19,3.41,11.07,1.89,14.33-1.93a10.45,10.45,0,0,0,2.31-9.76l13.35,6.11c10.93,5,20-12.14,10.71-18.89a128.74,128.74,0,0,0,46.77-6.12c5.21-1.71,9.31-5.43,8.91-11.39-.3-4.33-3.44-9-7.88-10.16a10.66,10.66,0,0,0,1.53-4.67c.51-6.49-4.26-10.69-10.11-11.83-15.52-3-25-15.73-31.13-30a72,72,0,0,0,52.28,3.28c13.34-4.3,23.43-12.37,32.92-22.47,4.6-4.89,9.25-10.35,15.11-13.76,3.68-2.14,9.84-4.81,14.09-2.66C461.57,213.56,472.18,208.45,470.43,198.35Z" fill="#a18c77"/><path d="M313.39,339.56c-31.44,3.31-64.89,8.81-86,34.86-10.25,12.65-13.87,29-17.9,44.42C205,436,200.73,453.2,197.62,470.65A265.87,265.87,0,0,0,193.48,510a8.74,8.74,0,0,0-3.22,10l3.55,10.94a12.55,12.55,0,0,0,5,6.83A70.75,70.75,0,0,0,225.1,561.3a13,13,0,0,0,10.09,1.06,243.43,243.43,0,0,0,31.56-2.53c9.61-1.45,20.3-2.83,28.28-8.82,8.45-6.35,11.26-17.33,9.58-27.41-1.65-9.9-7.91-17.71-13.29-25.83-19-28.71-21.78-66.51-6.68-97.5a99.19,99.19,0,0,1,35.54-40C330.57,353.72,326.23,338.21,313.39,339.56Zm-78.58,69.7c1.89-6.38,4.13-12.65,7.68-18.23A291.15,291.15,0,0,0,224,452.4c-.35.93-.7,1.86-1,2.78C226.34,439.75,230.34,424.35,234.81,409.26Z" fill="#f2dfd9"/><path d="M281.22,331.66c-2.47-1.07-5.16-1.59-7.55-2.85-6.34-3.34-10.27-8.86-12.59-15.43-3.45-9.75-17-6.68-20.29,1.18l-1,2.3a10,10,0,0,0,.62,8.55,8.27,8.27,0,0,0-1.29,2.8,44.67,44.67,0,0,1-9.43,18.68c-6.91,8.3,4.76,21.45,13.93,16,7.09-4.19,15-6.94,23.34-6.69,3.93.12,7.88,1.14,11.82.53,5.76-.9,10.74-5.66,11.21-11.59C290.51,339,286.64,334,281.22,331.66Z" fill="#018bcc"/><path d="M714.13,370.85a27.27,27.27,0,0,0-1.64-6.76c-9.9-40.18-23.25-80-40.94-117.35-4.61-9.75-9.95-19.3-16.71-27.74-6.51-8.12-14.69-14.74-22.9-21-17.13-13.16-34.43-26.32-53.78-36.08-21.94-11.07-45.32-18.28-68.8-25.27-11-3.26-18.32,8.86-11.89,17.64.13.18.24.37.37.55a12.57,12.57,0,0,0,1,4.9l8.62,20.84a9.92,9.92,0,0,0,4.17,5c2.08,18.41,11.14,35.46,26,46.63a27.33,27.33,0,0,1-2.46,5.21l-17,17.42a11.44,11.44,0,0,0-3.29,6.43c-5.55,3.68-7.43,12.28-.4,18.1l33.24,27.48a10.75,10.75,0,0,0,2.6,5.86L576.71,344a9.84,9.84,0,0,0,8.23,3.8c2.68,10.08,5.66,20.58,13.59,27.87,5.39,4.95,12.77,5,17.41-1.12,8.5-11.25,24.13-13.18,37.21-12.36A203,203,0,0,1,679,365.74c5,1,11.28,2.52,13,7.31.14.59.29,1.18.43,1.77C695.76,388.68,715.74,384.88,714.13,370.85Z" fill="#018bcc"/><path d="M957.66,644.8c-2.34-.84-4.7-1.6-7.06-2.31a10.67,10.67,0,0,1-2.77-5.39c-1.77-7.7,1.5-16.62,3-24.14a127.31,127.31,0,0,0,.82-44.2c-4.4-29.15-18.21-56.47-36.47-79.37-39.9-50-101.55-75-160.48-94.89-7.35-2.48-14.7-5-22.09-7.33-7.68-2.43-16.15-4-23.61,0-16.8,9-9.14,31-6.76,45.54,5.34,32.56,9,66.46,6.73,99.48-1.72,25.36-8.8,52.41-31.51,66.93-12,7.68-26,11.52-39.81,14.29-16.39,3.28-33,5.5-49.59,7.68-50.44,6.66-101.18,10.44-152,12.29A8.86,8.86,0,0,0,431.3,632l-74.57.18a12.74,12.74,0,0,0-7.78,2.58l-3.93.13a13.14,13.14,0,0,0-8.74,3.45c-1.55-3.78-5.07-6.86-9.28-6.91A129.46,129.46,0,0,1,274.85,620a109.59,109.59,0,0,1-22.42-13.41c-2.11-1.65-5.07-4.87-5.46-6.24-.65-2.33-.26-2.48.84-3.31,8.15-6.15,2.19-17.94-6.39-19.24-12.83-1.95-30.25-4.37-37.71-15.28-3.1-4.54-4.77-10.17-3.19-14.73a16.75,16.75,0,0,1,1.88-3.26c2-3.36,1.93-6.16,1.31-9.87-.74-4.41-1.71-8.77-2.35-13.2a196.71,196.71,0,0,1,13.74-103.91c4.39-10.47-9.67-18.7-17.64-11.89-18.81,16.08-45.83,18.68-68.33,27.9A90.56,90.56,0,0,0,97.45,455C93,459.7,88.8,464.65,83.9,468.88c-4.49,3.88-9,5.71-14.76,7.29a63.17,63.17,0,0,0-8.71,3,10.16,10.16,0,0,0-8.56-5.44c-5.94,0-11.34,3.86-11.83,10.11a11.73,11.73,0,0,0,5.81,10.68,22.65,22.65,0,0,0-1,4.76,9.81,9.81,0,0,0-4.44,7.91l.64,115c.05,9.13-1,19.13.5,28.14,1.85,10.87,10.73,14.83,20.72,15.29,19.1.88,38.22,1.3,57.33,1.49,76.85.77,153.65-2.86,230.47-4.14,43.18-.72,86.37-.68,129.52,1.23a12.33,12.33,0,0,0,2.46-.13c1.67,3.54,5,6.44,9,6.31l365-11.93c28.06-.92,57.25-3.07,84.63,4.2a24.65,24.65,0,0,0,12.44,3.58C965.31,666.19,969.93,649.21,957.66,644.8Z" fill="#d1d8db"/><path d="M567.6,329.64C551,317,533.49,303.76,523.16,285.12c-5.93-10.69-22.78-5.81-20.72,6.78,2.64,16.18,6.25,38.54-10.68,48.26-8.77,5-18.95,8.24-28.63,11-10.63,3-21.71,5.17-32.4,1.38-8.42-3-18.54,6.75-13.52,15.18a105.37,105.37,0,0,0,15,19.58c0,4.69,3,9.62,7.45,11,14.55,4.64,28.72-.27,41.58-7.32s25.66-14.6,38.48-21.91c7.38-4.21,16.16-8.36,22.34-14.52q10.63-2.87,21.43-5C573.26,347.67,575.11,335.36,567.6,329.64Z" fill="#9ba1a3"/><path d="M952.3,201.84c-7.53-3.17-16.79-3.42-24.81-4.56q-13.69-1.94-27.41-3.67-27.44-3.46-55-6.08-61.46-5.84-123.22-7.48a12.15,12.15,0,0,0-5.86,1.33,507.65,507.65,0,0,1-80.51-12.48c-4.42-1.06-9.05,0-11.92,3.19-12-1.82-17.75,17-5.07,21.3,46.41,15.93,60.93,70.07,71.26,112.44,3.34,13.7,6.65,27.41,11,40.84,4.09,12.76,8.12,28.47,19.39,36.91,8.51,6.38,19.51,7.25,30,8.36,20.9,19,49.34,22.38,76.19,27.74,6.27,1.25,12.57,2.77,18.79,4.63a279.22,279.22,0,0,1,27.71,17.74c4,2.89,8,2.6,11.16.63a87.41,87.41,0,0,1,18.44,17.75c9.12,11.92,14.54,26.74,13.66,41.82-.51,14.12,21.1,15.91,21.94,1.72.06-1.1.1-2.2.12-3.3L942,394.2c1.25-34.31,2.17-68.79,7.65-102.74a281.54,281.54,0,0,1,12.24-48.84C967,228.08,969.76,209.18,952.3,201.84Z" fill="#dff2ff"/><g opacity="0.14" style="mix-blend-mode:multiply"><path d="M604,255.76c3.36-3.75-4.41-7.48-6.9-8.13-4.68-1.21-10.49-1-13.89,2.81-10.91,12.16-21.84,24.71-26.66,40.66a49.62,49.62,0,0,0-2,10.33q-14.93-15.11-28.34-31.64c-3.17-3.91-10.17-4.67-14.76-3.66-3.72.81-8,3.83-4.75,7.78a443.32,443.32,0,0,0,58.69,59.57c3.49,2.94,10.21,3.3,14.32,1.92,3.27-1.1,6.56-3.93,3.6-7.42-8.36-9.86-8.59-24.19-4.49-36C583.74,278,594.31,266.57,604,255.76Z"/><path d="M703.49,381.58C695,370.44,681.32,366,667.78,364.83a111.62,111.62,0,0,0-38.38,3.32c-5.78,1.64-11.35,4.33-15.56,8.7-4.7,4.88-6.37,11.7-7,18.25-.13,1.4-.25,2.8-.37,4.21-.73-6.9-2.67-13.42-7.41-18.46-3-3.18-9.61-5.48-11-9.78-1.75-5.49,1.55-10.49-2.8-15.51-6.62-7.64-17.68-7.65-26.48-4.63-9.26,3.18-18.51,6.4-27.76,9.6-3,1.1-4.6,3.18-3.91,5.52-3.89-1-8.88-1.6-11.34,1.54-2.95,3.75,2.45,8,5.6,9.07,35.42,12,47.65,56,28.06,86.71-1.56,2.45-.69,4.64,1.19,6.38a85.94,85.94,0,0,0-16.25,5.57,6.33,6.33,0,0,0-1.46.9q-6.25.13-12.5.84c-2.72.31-6.4,1.46-6.4,4.74s4,5.53,6.64,6.55c6.53,2.54,10.24,10.72,10,17.42a22.14,22.14,0,0,1-12.66,19.19c-3.45,1.68-2.06,5.53.14,7.48a17.3,17.3,0,0,0,12.83,3.74,477.4,477.4,0,0,0,92.32-21.86c3.19-1.1,5.21-3.54,3.22-6.75a10,10,0,0,0-5-3.81l3.29-50.54c1.19-18.28,1.57-36.83,3.68-55,.8-6.94,2.86-13,9.26-16.49,5.14-2.82,11.44-3.32,17.16-3.87,10.27-1,22.23-2.77,28.7,5.7,3.13,4.1,9.28,5.81,14.25,5.29C701.32,388.43,706.65,385.72,703.49,381.58ZM566.4,364.89q0,.46,0,.91l-1-.59Zm-9.66,143.2a1.58,1.58,0,0,1-.11-.27c-.16-.56-.34-1.07-.51-1.56a14.82,14.82,0,0,0,3.32,1l1,.13A38,38,0,0,1,556.74,508.08Zm43.53-34.29a12.3,12.3,0,0,0,1.47-.63l-.09,1.36Q601,474.14,600.27,473.79Z"/><path d="M492.37,342.24c-12.88-2.58-23.19,1.59-34.29,7.71-3.72,2.05-8.11,4.85-12.52,4.47-6.48-.57-11.87-1.82-18.43-.49-2.75.56-4,2.4-3.89,4.4-2.79.57-5.33,2-4.84,5.18.72,4.61,8.54,6.93,12.25,7.11,24.24,1.18,48.33-4.48,69-17.44C506.42,348.89,496.35,343,492.37,342.24Z"/><path d="M431.05,341.71c-.69-7.61-22.25-10.77-21.41-1.43a3.23,3.23,0,0,1-.39,1.2c-1.8-2.57-4-5.15-5.79-7.61a45.2,45.2,0,0,0-16.11-14,52.9,52.9,0,0,0-22.58-5.9,57.33,57.33,0,0,0-11.48,1c-1.46.26-2.91.54-4.38.73l-1,.11c-3.91-2.25-8.83-3.3-13.14-2-2.67.82-4.22,2.84-4,5a100.32,100.32,0,0,1-7.25-10.18c18.3,5.45,38.08,5.9,56.44.3,4.24-1.29,5.73-4.73,2.39-8.15-3.62-3.71-9.91-5.31-14.93-4.38a72.74,72.74,0,0,1-57.79-14,17.41,17.41,0,0,0-11.85-3c-2.17.3-6.62,1.73-5.56,4.95.39,1.18.82,2.33,1.24,3.49-2.55,2.52-.18,6.23,2.67,8.1l.9.57a118.06,118.06,0,0,0,14.1,23.26c-12.93-12.43-22.94-29.13-31.73-43.36-3.05-4.94-20.31-10.88-20.58-1.39a131.73,131.73,0,0,1-3.27-65.62c1.32-6.31-9.63-10.8-16.34-9.6-.37-22.05,6.83-44.26,20.92-61.44,5.74-7-14.46-15.13-19.46-9-21.58,26.32-28,62.45-18.25,94.52-3.56.74-6.1,2.68-5.37,6a205.44,205.44,0,0,0,21.46,56.84,11.36,11.36,0,0,0,6.64,5.09,143.46,143.46,0,0,0,11,19.36c-3-.05-6.37.39-8.22,2-3.19.57-6.76,2.1-5.55,5.43.49,1.35,1,2.67,1.61,4C222.68,382,201.42,442.39,191.26,504.82c-2.45,15.05-1.57,30.06,8.61,41.21-4.81,0-8.84,1.76-7.92,5.8,2.85,12.58,17.17,18,28.11,21.43a231.22,231.22,0,0,0,44.33,9.17c2.42.27,6.16-.39,8-2.34,3,.28,6-.2,7.67-2.17,3.25-3.94-2.53-7.68-5.38-9.2-10.86-5.79-23.1-7-35.17-7.8-8.47-.53-18.29-.49-24.69-6.83a12.9,12.9,0,0,0-1.29-1.1c0-.11-.07-.21-.1-.32s-.05-.16-.07-.24a16.33,16.33,0,0,0,6.21-1.33c4.5-2.1,4.11-5.66.64-8.47-14.06-11.38-7.27-35.53-4.37-50.2,3.9-19.75,8.73-39.31,14.18-58.68,8.57-30.49,18.7-60.49,29.27-90.33C274,356.66,294.73,363,315.06,360.3c3.78-.5,8.21-3,5.52-7.26s-9.83-5.72-14.31-5.13c-17.72,2.34-32.81-7.91-40.33-23.27l.17-.48c2.51,2.92,5.13,5.76,7.89,8.48a17.36,17.36,0,0,0,13.73,4.52c3.54-.5,7-2.61,4.9-6.64a107.54,107.54,0,0,1-6.69-15.65,122.6,122.6,0,0,0,10.41,10.69c14.92,13.48,33.6,23.36,53.86,25.09,2.88.25,7.34.41,9-2.57,1.51-2.76-1-5.79-3.35-7.22a99.84,99.84,0,0,1-21-17.39c9,5.86,18.79,5.38,29.23,3.65,7.58-1.26,13.65,1,18.47,7.16,7.22,9.28,12.51,18.39,24.89,21.29C417.53,357.93,432.21,354.55,431.05,341.71Z"/><path d="M402,495.05a227.14,227.14,0,0,1-31-119.41c.15-7.65-20.9-13.29-21.09-3.93a234.84,234.84,0,0,0,32.14,122.85c2.61,4.45,8.52,6.88,13.51,7C399.07,501.58,404.67,499.54,402,495.05Z"/><path d="M509.85,405.68c-4.24-.41-10.06.28-11.52,4.93a235,235,0,0,1-42.87,78.53c-3.19,3.87,4.32,7.43,6.94,8.09,4.53,1.15,10.67,1,13.87-2.88a242.51,242.51,0,0,0,44-81.63C521.63,408.24,512.59,405.95,509.85,405.68Z"/><path d="M697.12,556.51c-4.08-1.21-9.94-1.65-12.25,2.64-24.25,45-80.72,52.7-126.44,57-56.09,5.34-112.21,5.78-168.49,4.33q-37.5-1-75-2c-2.91-3.43-8.61-4.75-12.67-5a87.38,87.38,0,0,1-9.43-1c2-.62,3.6-1.79,3.94-3.94.72-4.53-6.9-7.21-10.12-7.4A145.92,145.92,0,0,1,255,595.9c-3.88-1.11-11.45-1.76-14,2.38s3.5,7.43,6.65,8.33c3,.85,5.94,1.6,8.93,2.3a4.27,4.27,0,0,0-.6,1.65c-.77,5.27,1.82,10,5.65,13.46,6,5.4,14.18,6.63,22,5.74,2.39-.27,5.16-2,5.82-4.15,2.75,3.89,9,5.33,13.27,5.45q20.61.56,41.24,1.25a4.15,4.15,0,0,0,.37,2.23c1.72,3.91,8.22,6,12.08,5.89q22.68-.77,45.37-.85c23.5.86,47,3.2,70.47,4q21.8.75,43.63-.08,24.6,1.8,49.13,4.41,13.76,1.47,27.49,3.24a19.18,19.18,0,0,0,10.57,2q1.13-.1,2.24-.25,8.7,1.19,17.38,2.47a25.87,25.87,0,0,0,8-.39l0,.71a5.09,5.09,0,0,0,2.27,3.6c4.62,6,22.53,7,20.5-.94a26.5,26.5,0,0,0-.95-2.95q.16-1.74.23-3.48a3.81,3.81,0,0,0,.87-3.62l-1-4.44a70,70,0,0,0-1.91-12.07L650,619c-.11-1.91-2.3-3.49-4.32-4.53l.91-.32c24.66-9.16,46.76-25.31,59.38-48.75C708.18,561.26,699.77,557.3,697.12,556.51Z"/><path d="M140,572.3c-6.15,3.93-9.86,10.23-14.28,15.82a45.28,45.28,0,0,1-7,7,236.49,236.49,0,0,1-70,10c-3.53,0-9.73,1.85-8.47,6.47a6.27,6.27,0,0,0,3.56,3.8c-6.65,8.52-5.62,20.35-3.78,30.69.64,3.61,7.21,5.26,10,5.58,3.35.38,9.07.16,11-3.18,11.23-19.1,34.21-24.24,53.2-32.37a102.26,102.26,0,0,0,20-10.91,256.25,256.25,0,0,0,39.79-16.28c1.44-.74,3.59-1.91,3.68-3.86C178.64,566.59,151.44,565,140,572.3ZM68,618.29a3.08,3.08,0,0,1,1-.28C69.26,618.53,68.76,618.51,68,618.29Zm-.93.58q.39.23.81.43-1.64.8-3.25,1.65A23.47,23.47,0,0,1,67.11,618.87Z"/><path d="M810.48,470.42c-4.38-2.57-10.52-3.41-15.16-1.09l-18.17,9.09a63.85,63.85,0,0,0-10.49-19.75,74.28,74.28,0,0,0-46.17-26.73c-3.54-.56-10.87-1.17-12,3.6-1.07,4.5,6.34,7.65,9.52,8.15,14.94,2.35,27.3,12.16,34.45,25.45,4.35,8.08,5.16,17.36,8.62,25.77,3.8,9.24,10.19,15.92,19.5,19.68,3.72,1.5,11.33,2.56,14.11-1.31,2.92-4.07-3-7.6-6-8.82-2.77-1.12-4.81-5.17-6-7.73a51.62,51.62,0,0,1-2.67-7.92c4.14,1.77,9.24,2.12,13.23.12l19.3-9.66C817.19,477,813.36,472.11,810.48,470.42Z"/><path d="M275.69,103.64c-1.37-4.7-9.29-5.48-13.06-5.48-3.53,0-9.69,2-8.36,6.62s9.29,5.48,13.06,5.48C270.86,110.26,277,108.22,275.69,103.64Z"/></g><line x1="606.79" y1="383.42" x2="611.79" y2="507.42" fill="none" stroke="#000" stroke-linecap="round" stroke-linejoin="round" stroke-width="5.67"/><path d="M630.79,507.42s2,3-95,26-161,23-161,23-21-27-41-36-37-34-46-34-21-7-16,15c0,0,27,22,27,30s-40,18-41,18-48,2-49,1-13-10-14-6-5,17,17,29c0,0,49-3,49,4s-27,18-16,28,22-1,30,2" fill="none" stroke="#000" stroke-linecap="round" stroke-linejoin="round" stroke-width="5.67"/><path d="M258.79,612.42s6,19,31,12" fill="none" stroke="#000" stroke-linecap="round" stroke-linejoin="round" stroke-width="5.67"/><path d="M286.79,629.42c3,0,11,4,25,0,0,0,0,11,49,0,0,0,55,0,133,2s115-12,142-19,51-10,60-28,10-32,11-53-2-121-10-155" fill="none" stroke="#000" stroke-linecap="round" stroke-linejoin="round" stroke-width="5.67"/><path d="M638.32,363.43a89.62,89.62,0,0,0-36.56,22.48" fill="none" stroke="#000" stroke-linecap="round" stroke-linejoin="round" stroke-width="5.67"/><path d="M602.44,383.86a36.89,36.89,0,0,1-15.5-25.61c-.59-4.93.83-11.22,5.67-12.29,3.46-.77,6.73,1.61,9.68,3.58,10.75,7.15,23.74,10.12,36.54,11.83s25.8,2.31,38.35,5.37,24.93,8.91,32.9,19.07l-9.8,3" fill="none" stroke="#000" stroke-linecap="round" stroke-linejoin="round" stroke-width="5.67"/><path d="M710.48,385.5c1.83-8.07-.85-16.4-3.49-24.25l-13.36-39.6" fill="none" stroke="#000" stroke-linecap="round" stroke-linejoin="round" stroke-width="5.67"/><path d="M585.11,355.22a152.76,152.76,0,0,1-9.86-71.08" fill="none" stroke="#000" stroke-linecap="round" stroke-linejoin="round" stroke-width="5.67"/><path d="M575.93,348.32c-27,3.43-50.79,18.43-74.95,30.9a437.91,437.91,0,0,1-68.77,28.38l7.34-11.84L424,399l2.5-5" fill="none" stroke="#000" stroke-linecap="round" stroke-linejoin="round" stroke-width="5.67"/><path d="M408.22,359.5l19.69,25.26c2,2.59,4.1,5.24,6.94,6.88s6.65,2.05,9.3.12l3.53,5" fill="none" stroke="#000" stroke-linecap="round" stroke-linejoin="round" stroke-width="5.67"/><path d="M246.79,303.84a204.88,204.88,0,0,1-18.64,60.41A1109.79,1109.79,0,0,0,337.3,338.07" fill="none" stroke="#000" stroke-linecap="round" stroke-linejoin="round" stroke-width="5.67"/><path d="M328.21,343.72c-16.14,20.06-31.35,41.24-41.06,65.09s-13.59,50.75-6.68,75.55" fill="none" stroke="#000" stroke-linecap="round" stroke-linejoin="round" stroke-width="5.67"/><path d="M230.35,364a433.29,433.29,0,0,0-33.87,155c-.26,8.65-.13,17.83,4.42,25.2" fill="none" stroke="#000" stroke-linecap="round" stroke-linejoin="round" stroke-width="5.67"/><path d="M222.15,573.42a52.23,52.23,0,0,0,32.38,8.2" fill="none" stroke="#000" stroke-linecap="round" stroke-linejoin="round" stroke-width="5.67"/><path d="M295.22,487.17c26.31-4.05,52.51,5.67,78.8,9.86,21.88,3.49,44.17,3.14,66.33,2.79l60.89-1" fill="none" stroke="#000" stroke-linecap="round" stroke-linejoin="round" stroke-width="5.67"/><path d="M502.82,500.28c10.14-16.5,28.75-26.49,47.81-29.94s38.69-1.06,57.72,2.61" fill="none" stroke="#000" stroke-linecap="round" stroke-linejoin="round" stroke-width="5.67"/><path d="M584.52,489.81a81.9,81.9,0,0,1,23.83,6.48" fill="none" stroke="#000" stroke-linecap="round" stroke-linejoin="round" stroke-width="5.67"/><path d="M346.47,384.69l-.54-14.15c3.11-.48,6.11,1.78,7.55,4.57s1.66,6,1.91,9.17A298.77,298.77,0,0,0,385.05,492.2" fill="none" stroke="#000" stroke-linecap="round" stroke-linejoin="round" stroke-width="5.67"/><path d="M460.82,496.52c13.67-11.69,16.45-31.47,25.33-47.11,3.83-6.75,8.86-12.79,12.5-19.65s5.84-15,3.44-22.41" fill="none" stroke="#000" stroke-linecap="round" stroke-linejoin="round" stroke-width="5.67"/><path d="M216.79,223.42s13,75,54,105" fill="none" stroke="#000" stroke-linecap="round" stroke-linejoin="round" stroke-width="5.67"/><path d="M251.79,287.42s3,32,49,64" fill="none" stroke="#000" stroke-linecap="round" stroke-linejoin="round" stroke-width="5.67"/><path d="M264.79,289.42s27,50,50,62" fill="none" stroke="#000" stroke-linecap="round" stroke-linejoin="round" stroke-width="5.67"/><path d="M286.79,311.42s16,35,79,29c0,0-42-14-51-29" fill="none" stroke="#000" stroke-linecap="round" stroke-linejoin="round" stroke-width="5.67"/><path d="M294.79,287.42s18,50,95,16c0,0-63-17-63-46" fill="none" stroke="#000" stroke-linecap="round" stroke-linejoin="round" stroke-width="5.67"/><path d="M353.79,286.42a56,56,0,0,0,31-2s-43-27-47-43c0,0,31,34,77-9s40-33,46-20" fill="none" stroke="#000" stroke-linecap="round" stroke-linejoin="round" stroke-width="5.67"/><path d="M305.79,99.42s-55,33-30,130" fill="none" stroke="#000" stroke-linecap="round" stroke-linejoin="round" stroke-width="5.67"/><path d="M287.79,64.42s-56-1-53,21" fill="none" stroke="#000" stroke-linecap="round" stroke-linejoin="round" stroke-width="5.67"/><path d="M254.79,82.42s-40,17-31,28" fill="none" stroke="#000" stroke-linecap="round" stroke-linejoin="round" stroke-width="5.67"/><path d="M251.79,96.42c-1-2-57,45-45,72" fill="none" stroke="#000" stroke-linecap="round" stroke-linejoin="round" stroke-width="5.67"/><path d="M234.79,124.42s-36,39-21,77" fill="none" stroke="#000" stroke-linecap="round" stroke-linejoin="round" stroke-width="5.67"/><path d="M243.79,132.42s-38,62-21,97" fill="none" stroke="#000" stroke-linecap="round" stroke-linejoin="round" stroke-width="5.67"/><path d="M287.79,152.42s32,73,31,89" fill="none" stroke="#000" stroke-linecap="round" stroke-linejoin="round" stroke-width="5.67"/><path d="M318.79,257.42s31,9,6-56-19-79-19-79" fill="none" stroke="#000" stroke-linecap="round" stroke-linejoin="round" stroke-width="5.67"/><path d="M318.79,145.42s71,48,118,19" fill="none" stroke="#000" stroke-linecap="round" stroke-linejoin="round" stroke-width="5.67"/><path d="M470.79,124.42s-71-94-101-81" fill="none" stroke="#000" stroke-linecap="round" stroke-linejoin="round" stroke-width="5.67"/><path d="M462.79,159.42s-10-41,14-33,34,65,25,71" fill="none" stroke="#000" stroke-linecap="round" stroke-linejoin="round" stroke-width="5.67"/><path d="M484.79,143.42s-14-20-14,0,12,38,12,38,8-3,8,6" fill="none" stroke="#000" stroke-linecap="round" stroke-linejoin="round" stroke-width="5.67"/><path d="M354.79,331.42s20-15,30,0,23,27,26,28,17-1,20-11c0,0,15-9,10-17a11,11,0,0,0-13-5" fill="none" stroke="#000" stroke-linecap="round" stroke-linejoin="round" stroke-width="5.67"/><path d="M404.79,301.42l9,2s17-6,21-22" fill="none" stroke="#000" stroke-linecap="round" stroke-linejoin="round" stroke-width="5.67"/><path d="M430.79,353.42s9,3,14,2,17-18,26-17" fill="none" stroke="#000" stroke-linecap="round" stroke-linejoin="round" stroke-width="5.67"/><path d="M456.79,353.42c1,0,13-11,17-10" fill="none" stroke="#000" stroke-linecap="round" stroke-linejoin="round" stroke-width="5.67"/><path d="M470.79,351.42s19-14,26-15" fill="none" stroke="#000" stroke-linecap="round" stroke-linejoin="round" stroke-width="5.67"/><path d="M496.79,331.42s19-77,8-108" fill="none" stroke="#000" stroke-linecap="round" stroke-linejoin="round" stroke-width="5.67"/><path d="M507.79,176.42s22,51,27,56" fill="none" stroke="#000" stroke-linecap="round" stroke-linejoin="round" stroke-width="5.67"/><path d="M534.79,201.42s17,26-24,65" fill="none" stroke="#000" stroke-linecap="round" stroke-linejoin="round" stroke-width="5.67"/><path d="M507.79,275.42s68.59,56.8,74.79,72.9" fill="none" stroke="#000" stroke-linecap="round" stroke-linejoin="round" stroke-width="5.67"/><path d="M551.79,306.42s18-35,39-49" fill="none" stroke="#000" stroke-linecap="round" stroke-linejoin="round" stroke-width="5.67"/><path d="M564.79,306.42c0-1-6-9,26-37s-10-28-13-25" fill="none" stroke="#000" stroke-linecap="round" stroke-linejoin="round" stroke-width="5.67"/><path d="M514.79,168.42s19,15,27,19,9,23,13,28,7,8,7,8" fill="none" stroke="#000" stroke-linecap="round" stroke-linejoin="round" stroke-width="5.67"/><path d="M564.79,248.42c-2-3,8-31,0-40" fill="none" stroke="#000" stroke-linecap="round" stroke-linejoin="round" stroke-width="5.67"/><path d="M570.79,194.42s3-23-29-21" fill="none" stroke="#000" stroke-linecap="round" stroke-linejoin="round" stroke-width="5.67"/><path d="M494.79,138.42s33-11,85,25,50,32,52,36" fill="none" stroke="#000" stroke-linecap="round" stroke-linejoin="round" stroke-width="5.67"/><path d="M624.79,211.42s10-12,20-7,22,29,35,57,23,42,16,54a130.34,130.34,0,0,0-11,26" fill="none" stroke="#000" stroke-linecap="round" stroke-linejoin="round" stroke-width="5.67"/><path d="M686.79,298.42s13,11-9,26-29,17-29,17" fill="none" stroke="#000" stroke-linecap="round" stroke-linejoin="round" stroke-width="5.67"/><path d="M216.79,396.42s-29,19-44,23-25,1-41,23-24,23-30,30-32,57-32,72-1,18,2,31" fill="none" stroke="#000" stroke-linecap="round" stroke-linejoin="round" stroke-width="5.67"/><path d="M46.79,654.42c1,0,2-8,32-28s70-52,71-57,72,27,76,24" fill="none" stroke="#000" stroke-linecap="round" stroke-linejoin="round" stroke-width="5.67"/><path d="M129.79,437.42a90.51,90.51,0,0,0-36,28" fill="none" stroke="#000" stroke-linecap="round" stroke-linejoin="round" stroke-width="5.67"/><path d="M76.79,473.42c-15,4-23,4-30,12" fill="none" stroke="#000" stroke-linecap="round" stroke-linejoin="round" stroke-width="5.67"/><path d="M709.79,431.42s21,20,30,25,14,5,18,24,18,35,18,35" fill="none" stroke="#000" stroke-linecap="round" stroke-linejoin="round" stroke-width="5.67"/><path d="M761.79,476.42s12,7,45-5" fill="none" stroke="#000" stroke-linecap="round" stroke-linejoin="round" stroke-width="5.67"/><path d="M713.79,380.42s129,44,156,65,24,9,34,26,62,92,48,133,14,54,14,54" fill="none" stroke="#000" stroke-linecap="round" stroke-linejoin="round" stroke-width="5.67"/><path d="M935.79,597.42s-28,38,0,61" fill="none" stroke="#000" stroke-linecap="round" stroke-linejoin="round" stroke-width="5.67"/><path d="M810.79,658.42s-1-24-21-61" fill="none" stroke="#000" stroke-linecap="round" stroke-linejoin="round" stroke-width="5.67"/><path d="M648.79,658.42s2.73-36.69-5.63-47.84" fill="none" stroke="#000" stroke-linecap="round" stroke-linejoin="round" stroke-width="5.67"/><path d="M653.79,637.42s18-9,18-22" fill="none" stroke="#000" stroke-linecap="round" stroke-linejoin="round" stroke-width="5.67"/><path d="M594.79,168.42s69,5,101,10,234,5,270,30c0,0,5,12-7,35s-26,252-23,262-1.59,19.22,2.7,27.11" fill="none" stroke="#000" stroke-linecap="round" stroke-linejoin="round" stroke-width="5.67"/></g></g></svg>