<?xml version="1.0" encoding="UTF-8"?>
<svg viewBox="0 0 747.41 876" xmlns="http://www.w3.org/2000/svg">
 <defs>
  <linearGradient id="d" x2="1.8889" y1=".78076" y2=".5">
   <stop stop-color="#eaedef" offset="0"/>
   <stop stop-color="#ecf0f2" offset="1"/>
  </linearGradient>
  <linearGradient id="c" x1="1.2871" x2="0" y1="1.1293" y2=".20505">
   <stop stop-color="#adbbc1" offset="0"/>
   <stop stop-color="#f0f2f4" offset="1"/>
  </linearGradient>
 </defs>
 <rect x="1" y="634" width="745.4" height="242" fill="#2e3436"/>
 <path d="m1 0h498v634h-498v-634z" fill="url(#c)"/>
 <path d="m497 0h249.41l1.0057 707-250.41-73v-634z" fill="url(#d)"/>
 <path d="m2.4034 663.91v-30l17.75 6e-3 17.75 6e-3 7.5 28.202c4.125 15.511 7.6438 29.009 7.8196 29.994 0.30032 1.6838-1.2194 1.7916-25.25 1.7916h-25.57v-30z" fill="#e2af5e"/>
 <path d="m93.602 664.16l-15.969-29.75 16.598-0.2751c9.1292-0.15131 17.111-0.078369 17.738 0.16223 0.62682 0.24054 11.178 12.964 23.447 28.275s22.98 28.625 23.802 29.588c1.4176 1.66 0.17941 1.75-24.077 1.75h-25.571l-15.969-29.75z" fill="#e4b161"/>
 <path d="m187.4 666.33c-16.225-15.14-30.615-28.627-31.977-29.971l-2.4773-2.4437h34.028l38.463 28.612c21.155 15.736 39.122 29.236 39.927 30 1.2513 1.1863-2.1672 1.3841-23.5 1.3597l-24.964-0.0285-29.5-27.528v-6.1e-5z" fill="#e4b262"/>
 <g fill="#e9b96e">
  <path d="m276.41 664.07l-47.488-29.66 16.323-0.2752 16.323-0.2751 55.665 29.663c30.616 16.314 55.853 29.826 56.082 30.025 0.22916 0.19934-10.796 0.32196-24.5 0.27246l-24.917-0.09-47.488-29.66v6.1e-5z"/>
  <path d="m368.28 664.13l-63.625-29.718 15.667-0.2738 15.667-0.2737 71.458 29.625c39.302 16.294 71.645 29.804 71.875 30.024 0.22916 0.21948-10.346 0.3847-23.5 0.36725l-23.917-0.0318-63.625-29.718z"/>
  <path d="m459.6 664.09l-79.306-29.675 15.077-0.2761 15.077-0.2762 86.73 29.388c47.701 16.164 87.405 29.64 88.23 29.947 0.82501 0.30737-9.3 0.56085-22.5 0.56323l-24 4e-3 -79.306-29.675v3.66e-4z"/>
  <path d="m550.93 664.06l-94.978-29.645 14.478-0.2711 14.478-0.2712 103 29.531c56.65 16.242 103.45 29.716 104 29.942 0.54999 0.22626-9.575 0.39948-22.5 0.38495l-23.5-0.0266-94.978-29.644z"/>
  <path d="m43.56 648.04c-1.7361-6.5295-3.1566-12.38-3.1566-13 0-0.79437 5.1552-1.1282 17.425-1.1282h17.425l6.5754 12.395c3.6165 6.8171 6.5754 12.667 6.5754 13 0 0.33282-9.3795 0.60516-20.843 0.60516h-20.843l-3.1566-11.872z"/>
  <path d="m125.64 647.15l-10.265-12.738 17.143-0.2742 17.143-0.2742 5.6222 5.2346c3.0922 2.879 9.3646 8.7399 13.939 13.024l8.3165 7.7896-20.816-0.0116-20.816-0.0116-10.265-12.738z"/>
  <path d="m207.97 647.13l-16.933-12.723 16.627-0.2739 16.627-0.2739 20.306 12.629c11.168 6.946 20.493 12.807 20.722 13.024 0.22919 0.2171-8.7708 0.38281-20 0.36816l-20.417-0.0266-16.933-12.723z"/>
  <path d="m290.29 647.09l-23.614-12.679 16.114-0.272 16.114-0.2721 27 12.618c14.85 6.9402 27.188 12.8 27.417 13.022 0.22916 0.22192-8.5458 0.3717-19.5 0.33276l-19.917-0.0708-23.614-12.679z"/>
  <path d="m372.63 647.06l-30.272-12.645 15.383-0.2747 15.383-0.2747 33.889 12.611c18.639 6.936 34.077 12.797 34.306 13.025 0.22916 0.22754-8.3208 0.36639-19 0.30859l-19.417-0.1051-30.272-12.645z"/>
  <path d="m455 647.03l-36.902-12.62 14.818-0.2777 14.818-0.2777 40.583 12.623c22.321 6.9428 40.771 12.805 41 13.028 0.22919 0.22247-8.0958 0.34613-18.5 0.27484l-18.917-0.1296-36.902-12.62z"/>
 </g>
 <g fill="#daa34c">
  <path d="m66.903 736.41c0-0.45453-18.398-69.616-19.618-73.748-0.4808-1.6284 0.97472-1.75 20.937-1.75h21.454l20.113 37.56c11.062 20.658 20.113 37.758 20.113 38 0 0.24182-14.175 0.43964-31.5 0.43964s-31.5-0.22565-31.5-0.50146z"/>
  <path d="m167.53 699.45c-16.57-20.602-30.126-37.702-30.126-38 0-0.29791 9.3375-0.5293 20.75-0.51422l20.75 0.0274 37 34.527c20.35 18.99 38.568 36.078 40.483 37.973l3.4833 3.4453h-62.214l-30.126-37.458v6.1e-5z"/>
 </g>
 <path d="m278.85 699.91l-50.894-38h41.402l59.772 37.124c32.875 20.418 60.199 37.518 60.722 38 0.54547 0.50299-12.051 0.87604-29.579 0.87604h-30.529l-50.894-38z" fill="#e3af5f"/>
 <path d="m386.09 698.15l-70.816-37.744 19.816-0.2645 19.816-0.2645 80.475 37.573c44.261 20.665 80.674 37.772 80.917 38.014 0.2428 0.24286-13.021 0.43878-29.475 0.43542l-29.917-6e-3 -70.816-37.744v-1.22e-4z" fill="#dfaa57"/>
 <path d="m495.43 698.05l-90.471-37.638 19.143-0.2713 19.143-0.2713 100.83 37.614c55.456 20.688 101.02 37.797 101.24 38.021 0.22913 0.22412-13.046 0.35687-29.5 0.29498l-29.917-0.1125-90.471-37.638z" fill="#e1ad5c"/>
 <path d="m606.28 698.05l-110.62-37.639 18.551-0.2728 18.551-0.2727 100.07 31.135c55.038 17.124 102.21 31.777 104.82 32.562l4.75 1.4261v10.922l-12.75-0.1107-12.75-0.1107-110.62-37.639z" fill="#daa24b"/>
 <path d="m2.4034 754.93v-61l25.75 3e-3 25.75 3e-3 15.933 59.747c8.7632 32.861 16.124 60.309 16.357 60.996 0.33469 0.98694-8.4381 1.25-41.683 1.25h-42.107v-61 9.16e-4z" fill="#dda752"/>
 <path d="m146.4 762.74c-15.675-29.249-30.38-56.682-32.679-60.961l-4.1788-7.7805 25.398-0.2827 25.398-0.2826 47.781 59.428c26.279 32.685 48.369 60.248 49.088 61.25 1.2583 1.7546-0.24185 1.8218-40.5 1.8154l-41.807-7e-3 -28.5-53.18v3.05e-4z" fill="#d9a148"/>
 <path d="m283.39 755.84c-35.466-33.051-64.896-60.485-65.399-60.965-0.52304-0.4989 9.7424-0.99512 23.954-1.1578l24.87-0.2847 81.546 60.867c44.85 33.477 81.733 61.039 81.962 61.25 0.22916 0.21082-18.228 0.38336-41.016 0.38336h-41.433l-64.484-60.092z" fill="#d79e43"/>
 <path d="m423.11 755.18l-97.67-60.75 24.34-0.2672 24.34-0.2672 111.39 59.366c61.265 32.651 112.74 60.091 114.39 60.977 2.8016 1.5047 0.28522 1.6138-38.06 1.6512l-41.06 0.04-97.67-60.75v6.1e-5z" fill="#dba44e"/>
 <path d="m563.05 755.1l-129.85-60.662 23.776-0.2685 23.776-0.2685 133.32 55.268 133.32 55.268 3e-3 5.75 0.0031 5.75-27.25-0.0877-27.25-0.0877-129.85-60.662-9e-4 1e-4z" fill="#d89f46"/>
 <path d="m643.9 732.86c-55.55-20.818-101.45-38.049-102-38.29-0.54999-0.24109 9.1826-0.59528 21.628-0.78717l22.628-0.3488 39.872 13.546c21.93 7.4506 58.21 19.768 80.622 27.371l40.75 13.825v11.379c0 8.4958-0.31671 11.351-1.25 11.268-0.6875-0.061218-46.7-17.144-102.25-37.963z" fill="#cd8e2c"/>
 <path d="m697.66 709.67c-26.532-8.2977-48.109-15.219-47.948-15.38 0.16119-0.16119 10.195-0.33758 22.297-0.39191l22.004-0.0988 26.694 7.7385 26.694 7.7385v7.8294c0 4.3062-0.33752 7.7892-0.75 7.7401-0.41248-0.049072-22.458-6.8783-48.991-15.176z" fill="#dfaa57"/>
 <path d="m2.4034 844.93v-27h42.5c23.375 0 42.5 0.24811 42.5 0.55139 0 0.47223 12.198 46.743 13.629 51.699 0.47643 1.65-2.3292 1.75-49.062 1.75h-49.567v-27z" fill="#c5841b"/>
 <path d="m190.9 845.8c-7.7-14.365-14.15-26.512-14.333-26.994-0.18748-0.49268 18.059-0.87598 41.701-0.87598h42.034l20.713 25.75c11.392 14.162 21.144 26.312 21.671 27 0.76388 0.99609-9.0705 1.2487-48.414 1.2435l-49.372-6e-3 -14-26.118v-4.27e-4z" fill="#cf9332"/>
 <path d="m379.17 845.18l-28.726-26.75 41.624-0.2611 41.624-0.261 35.107 26.204c19.309 14.412 35.535 26.568 36.057 27.011 0.52249 0.4436-21.08 0.80652-48.005 0.80652h-48.955l-28.726-26.75z" fill="#c17d11"/>
 <path d="m567.8 845.18l-43.041-26.75 40.979-0.2612 40.979-0.2612 50.093 26.665c27.551 14.666 50.28 26.821 50.509 27.011 0.22919 0.19055-21.384 0.3465-48.03 0.3465h-48.447l-43.041-26.75z" fill="#c7861f"/>
 <path d="m722.97 829.57l-23.933-11.137 23.831-0.2684c13.107-0.14764 24.005-0.094788 24.217 0.11731 0.21216 0.21216 0.258 5.3446 0.10181 11.405l-0.284 11.02-23.933-11.137z" fill="#c17d11"/>
 <path d="m103.4 871.59c0-0.51379-34.954-130.94-35.485-132.4-0.35598-0.98328 6.3152-1.2492 31.266-1.246l31.719 4e-3 31.499 58.746c17.324 32.31 33.436 62.458 35.805 66.996l4.3062 8.25h-49.555c-27.255 0-49.555-0.15643-49.555-0.34753v-6.1e-5z" fill="#ce902f"/>
 <path d="m286.13 846.68c-55.119-68.381-86.725-107.84-86.725-108.27 0-0.26263 13.923-0.47754 30.94-0.47754h30.94l69.31 64.621c38.121 35.542 70.425 65.692 71.788 67l2.4773 2.3789h-98.376l-20.353-25.25z" fill="#c98823"/>
 <path d="m419.92 805.31c-48.942-36.581-89.166-66.692-89.388-66.913-0.22134-0.22131 13.236-0.52802 29.904-0.68152l30.307-0.2791 105.08 65.335c57.794 35.934 106.43 66.189 108.08 67.233 2.9697 1.8793 2.5054 1.8981-46 1.8575l-49-0.041-88.985-66.511z" fill="#ce9130"/>
 <path d="m586.41 804.89l-125.5-66.952h60.896l112.8 52.611 112.8 52.611v28.778l-17.75-0.0483-17.75-0.0483-125.5-66.952v6.1e-5z" fill="#cd8f2d"/>
 <path d="m669.61 770.13l-76.295-31.694 29.295-0.274 29.295-0.274 47.74 17.774 47.74 17.774 0.0099 14.25c0.005005 7.8375-0.32782 14.225-0.7403 14.194-0.41248-0.031006-35.083-14.318-77.045-31.75h-3.05e-4z" fill="#d3973a"/>
 <path d="m724.72 738.13h21.92v8.4853l-21.92-8.4853z" fill="#c17d11"/>
 <rect y="614" width="497" height="21" fill="#cf9332"/>
 <path d="m496.5 614.5l250.5 59.5v33l-250-72.25-0.5-20.25z" fill="#c17d11"/>
</svg>
